<?xml version="1.0" encoding="UTF-8"?><svg xmlns="http://www.w3.org/2000/svg" xmlns:xlink="http://www.w3.org/1999/xlink" fill-opacity="1" color-rendering="auto" color-interpolation="auto" text-rendering="auto" stroke="black" stroke-linecap="square" width="1239" stroke-miterlimit="10" shape-rendering="auto" stroke-opacity="1" fill="black" stroke-dasharray="none" font-weight="normal" stroke-width="1" height="240" font-family="'Dialog'" font-style="normal" stroke-linejoin="miter" font-size="12px" stroke-dashoffset="0" image-rendering="auto">
  <!--Generated by ySVG 2.6-->
  <defs id="genericDefs"/>
  <g>
    <defs id="defs1">
      <clipPath clipPathUnits="userSpaceOnUse" id="clipPath1">
        <path d="M0 0 L1239 0 L1239 240 L0 240 L0 0 Z"/>
      </clipPath>
      <clipPath clipPathUnits="userSpaceOnUse" id="clipPath2">
        <path d="M-85 -15 L1154 -15 L1154 225 L-85 225 L-85 -15 Z"/>
      </clipPath>
    </defs>
    <g fill="white" text-rendering="geometricPrecision" shape-rendering="geometricPrecision" transform="translate(85,15)" stroke="white">
      <rect x="-85" width="1239" height="240" y="-15" clip-path="url(#clipPath2)" stroke="none"/>
    </g>
    <g fill="white" text-rendering="geometricPrecision" shape-rendering="geometricPrecision" transform="matrix(1,0,0,1,85,15)" stroke="white">
      <rect x="20.0004" width="63.0723" height="30" y="0" clip-path="url(#clipPath2)" stroke="none"/>
    </g>
    <g text-rendering="geometricPrecision" stroke-miterlimit="1.45" shape-rendering="geometricPrecision" font-family="sans-serif" transform="matrix(1,0,0,1,85,15)" stroke-linecap="butt">
      <text x="22.0004" xml:space="preserve" y="13.1387" clip-path="url(#clipPath2)" stroke="none">two_pos</text>
      <rect fill="none" x="20.0004" width="63.0723" height="30" y="0" clip-path="url(#clipPath2)"/>
    </g>
    <g fill="white" text-rendering="geometricPrecision" shape-rendering="geometricPrecision" transform="matrix(1,0,0,1,85,15)" stroke="white">
      <rect x="26.1879" width="50.6973" height="30" y="180" clip-path="url(#clipPath2)" stroke="none"/>
    </g>
    <g text-rendering="geometricPrecision" stroke-miterlimit="1.45" shape-rendering="geometricPrecision" font-family="sans-serif" transform="matrix(1,0,0,1,85,15)" stroke-linecap="butt">
      <text x="28.1879" xml:space="preserve" y="193.1387" clip-path="url(#clipPath2)" stroke="none">target</text>
      <rect fill="none" x="26.1879" width="50.6973" height="30" y="180" clip-path="url(#clipPath2)"/>
    </g>
    <g fill="white" text-rendering="geometricPrecision" shape-rendering="geometricPrecision" transform="matrix(1,0,0,1,85,15)" stroke="white">
      <rect x="-69.8399" width="63.0723" height="30" y="0" clip-path="url(#clipPath2)" stroke="none"/>
    </g>
    <g text-rendering="geometricPrecision" stroke-miterlimit="1.45" shape-rendering="geometricPrecision" font-family="sans-serif" transform="matrix(1,0,0,1,85,15)" stroke-linecap="butt">
      <text x="-67.8399" xml:space="preserve" y="13.1387" clip-path="url(#clipPath2)" stroke="none">two_pos</text>
      <rect fill="none" x="-69.8399" width="63.0723" height="30" y="0" clip-path="url(#clipPath2)"/>
    </g>
    <g fill="white" text-rendering="geometricPrecision" shape-rendering="geometricPrecision" transform="matrix(1,0,0,1,85,15)" stroke="white">
      <rect x="-63.6524" width="50.6973" height="30" y="180" clip-path="url(#clipPath2)" stroke="none"/>
    </g>
    <g text-rendering="geometricPrecision" stroke-miterlimit="1.45" shape-rendering="geometricPrecision" font-family="sans-serif" transform="matrix(1,0,0,1,85,15)" stroke-linecap="butt">
      <text x="-61.6524" xml:space="preserve" y="193.1387" clip-path="url(#clipPath2)" stroke="none">target</text>
      <rect fill="none" x="-63.6524" width="50.6973" height="30" y="180" clip-path="url(#clipPath2)"/>
    </g>
    <g fill="white" text-rendering="geometricPrecision" shape-rendering="geometricPrecision" transform="matrix(1,0,0,1,85,15)" stroke="white">
      <rect x="1070.4411" width="67.6074" height="30" y="0" clip-path="url(#clipPath2)" stroke="none"/>
    </g>
    <g text-rendering="geometricPrecision" stroke-miterlimit="1.45" shape-rendering="geometricPrecision" font-family="sans-serif" transform="matrix(1,0,0,1,85,15)" stroke-linecap="butt">
      <text x="1072.4412" xml:space="preserve" y="13.1387" clip-path="url(#clipPath2)" stroke="none">centered</text>
      <rect fill="none" x="1070.4411" width="67.6074" height="30" y="0" clip-path="url(#clipPath2)"/>
    </g>
    <g fill="white" text-rendering="geometricPrecision" shape-rendering="geometricPrecision" transform="matrix(1,0,0,1,85,15)" stroke="white">
      <rect x="1078.8962" width="50.6973" height="30" y="180" clip-path="url(#clipPath2)" stroke="none"/>
    </g>
    <g text-rendering="geometricPrecision" stroke-miterlimit="1.45" shape-rendering="geometricPrecision" font-family="sans-serif" transform="matrix(1,0,0,1,85,15)" stroke-linecap="butt">
      <text x="1080.8962" xml:space="preserve" y="193.1387" clip-path="url(#clipPath2)" stroke="none">target</text>
      <rect fill="none" x="1078.8962" width="50.6973" height="30" y="180" clip-path="url(#clipPath2)"/>
    </g>
    <g fill="white" text-rendering="geometricPrecision" shape-rendering="geometricPrecision" transform="matrix(1,0,0,1,85,15)" stroke="white">
      <rect x="982.5424" width="57.8984" height="30" y="0" clip-path="url(#clipPath2)" stroke="none"/>
    </g>
    <g text-rendering="geometricPrecision" stroke-miterlimit="1.45" shape-rendering="geometricPrecision" font-family="sans-serif" transform="matrix(1,0,0,1,85,15)" stroke-linecap="butt">
      <text x="984.5424" xml:space="preserve" y="13.1387" clip-path="url(#clipPath2)" stroke="none">six_pos</text>
      <rect fill="none" x="982.5424" width="57.8984" height="30" y="0" clip-path="url(#clipPath2)"/>
    </g>
    <g fill="white" text-rendering="geometricPrecision" shape-rendering="geometricPrecision" transform="matrix(1,0,0,1,85,15)" stroke="white">
      <rect x="986.143" width="50.6973" height="30" y="180" clip-path="url(#clipPath2)" stroke="none"/>
    </g>
    <g text-rendering="geometricPrecision" stroke-miterlimit="1.45" shape-rendering="geometricPrecision" font-family="sans-serif" transform="matrix(1,0,0,1,85,15)" stroke-linecap="butt">
      <text x="988.143" xml:space="preserve" y="193.1387" clip-path="url(#clipPath2)" stroke="none">target</text>
      <rect fill="none" x="986.143" width="50.6973" height="30" y="180" clip-path="url(#clipPath2)"/>
    </g>
    <g fill="white" text-rendering="geometricPrecision" shape-rendering="geometricPrecision" transform="matrix(1,0,0,1,85,15)" stroke="white">
      <rect x="894.6436" width="57.8984" height="30" y="0" clip-path="url(#clipPath2)" stroke="none"/>
    </g>
    <g text-rendering="geometricPrecision" stroke-miterlimit="1.45" shape-rendering="geometricPrecision" font-family="sans-serif" transform="matrix(1,0,0,1,85,15)" stroke-linecap="butt">
      <text x="896.6436" xml:space="preserve" y="13.1387" clip-path="url(#clipPath2)" stroke="none">six_pos</text>
      <rect fill="none" x="894.6436" width="57.8984" height="30" y="0" clip-path="url(#clipPath2)"/>
    </g>
    <g fill="white" text-rendering="geometricPrecision" shape-rendering="geometricPrecision" transform="matrix(1,0,0,1,85,15)" stroke="white">
      <rect x="898.2442" width="50.6973" height="30" y="180" clip-path="url(#clipPath2)" stroke="none"/>
    </g>
    <g text-rendering="geometricPrecision" stroke-miterlimit="1.45" shape-rendering="geometricPrecision" font-family="sans-serif" transform="matrix(1,0,0,1,85,15)" stroke-linecap="butt">
      <text x="900.2442" xml:space="preserve" y="193.1387" clip-path="url(#clipPath2)" stroke="none">target</text>
      <rect fill="none" x="898.2442" width="50.6973" height="30" y="180" clip-path="url(#clipPath2)"/>
    </g>
    <g fill="white" text-rendering="geometricPrecision" shape-rendering="geometricPrecision" transform="matrix(1,0,0,1,85,15)" stroke="white">
      <rect x="806.7448" width="57.8984" height="30" y="0" clip-path="url(#clipPath2)" stroke="none"/>
    </g>
    <g text-rendering="geometricPrecision" stroke-miterlimit="1.45" shape-rendering="geometricPrecision" font-family="sans-serif" transform="matrix(1,0,0,1,85,15)" stroke-linecap="butt">
      <text x="808.7448" xml:space="preserve" y="13.1387" clip-path="url(#clipPath2)" stroke="none">six_pos</text>
      <rect fill="none" x="806.7448" width="57.8984" height="30" y="0" clip-path="url(#clipPath2)"/>
    </g>
    <g fill="white" text-rendering="geometricPrecision" shape-rendering="geometricPrecision" transform="matrix(1,0,0,1,85,15)" stroke="white">
      <rect x="810.3454" width="50.6973" height="30" y="180" clip-path="url(#clipPath2)" stroke="none"/>
    </g>
    <g text-rendering="geometricPrecision" stroke-miterlimit="1.45" shape-rendering="geometricPrecision" font-family="sans-serif" transform="matrix(1,0,0,1,85,15)" stroke-linecap="butt">
      <text x="812.3454" xml:space="preserve" y="193.1387" clip-path="url(#clipPath2)" stroke="none">target</text>
      <rect fill="none" x="810.3454" width="50.6973" height="30" y="180" clip-path="url(#clipPath2)"/>
    </g>
    <g fill="white" text-rendering="geometricPrecision" shape-rendering="geometricPrecision" transform="matrix(1,0,0,1,85,15)" stroke="white">
      <rect x="718.846" width="57.8984" height="30" y="0" clip-path="url(#clipPath2)" stroke="none"/>
    </g>
    <g text-rendering="geometricPrecision" stroke-miterlimit="1.45" shape-rendering="geometricPrecision" font-family="sans-serif" transform="matrix(1,0,0,1,85,15)" stroke-linecap="butt">
      <text x="720.846" xml:space="preserve" y="13.1387" clip-path="url(#clipPath2)" stroke="none">six_pos</text>
      <rect fill="none" x="718.846" width="57.8984" height="30" y="0" clip-path="url(#clipPath2)"/>
    </g>
    <g fill="white" text-rendering="geometricPrecision" shape-rendering="geometricPrecision" transform="matrix(1,0,0,1,85,15)" stroke="white">
      <rect x="722.4466" width="50.6973" height="30" y="180" clip-path="url(#clipPath2)" stroke="none"/>
    </g>
    <g text-rendering="geometricPrecision" stroke-miterlimit="1.45" shape-rendering="geometricPrecision" font-family="sans-serif" transform="matrix(1,0,0,1,85,15)" stroke-linecap="butt">
      <text x="724.4466" xml:space="preserve" y="193.1387" clip-path="url(#clipPath2)" stroke="none">target</text>
      <rect fill="none" x="722.4466" width="50.6973" height="30" y="180" clip-path="url(#clipPath2)"/>
    </g>
    <g fill="white" text-rendering="geometricPrecision" shape-rendering="geometricPrecision" transform="matrix(1,0,0,1,85,15)" stroke="white">
      <rect x="630.9472" width="57.8984" height="30" y="0" clip-path="url(#clipPath2)" stroke="none"/>
    </g>
    <g text-rendering="geometricPrecision" stroke-miterlimit="1.45" shape-rendering="geometricPrecision" font-family="sans-serif" transform="matrix(1,0,0,1,85,15)" stroke-linecap="butt">
      <text x="632.9472" xml:space="preserve" y="13.1387" clip-path="url(#clipPath2)" stroke="none">six_pos</text>
      <rect fill="none" x="630.9472" width="57.8984" height="30" y="0" clip-path="url(#clipPath2)"/>
    </g>
    <g fill="white" text-rendering="geometricPrecision" shape-rendering="geometricPrecision" transform="matrix(1,0,0,1,85,15)" stroke="white">
      <rect x="634.5478" width="50.6973" height="30" y="180" clip-path="url(#clipPath2)" stroke="none"/>
    </g>
    <g text-rendering="geometricPrecision" stroke-miterlimit="1.45" shape-rendering="geometricPrecision" font-family="sans-serif" transform="matrix(1,0,0,1,85,15)" stroke-linecap="butt">
      <text x="636.5478" xml:space="preserve" y="193.1387" clip-path="url(#clipPath2)" stroke="none">target</text>
      <rect fill="none" x="634.5478" width="50.6973" height="30" y="180" clip-path="url(#clipPath2)"/>
    </g>
    <g fill="white" text-rendering="geometricPrecision" shape-rendering="geometricPrecision" transform="matrix(1,0,0,1,85,15)" stroke="white">
      <rect x="543.0484" width="57.8984" height="30" y="0" clip-path="url(#clipPath2)" stroke="none"/>
    </g>
    <g text-rendering="geometricPrecision" stroke-miterlimit="1.45" shape-rendering="geometricPrecision" font-family="sans-serif" transform="matrix(1,0,0,1,85,15)" stroke-linecap="butt">
      <text x="545.0484" xml:space="preserve" y="13.1387" clip-path="url(#clipPath2)" stroke="none">six_pos</text>
      <rect fill="none" x="543.0484" width="57.8984" height="30" y="0" clip-path="url(#clipPath2)"/>
    </g>
    <g fill="white" text-rendering="geometricPrecision" shape-rendering="geometricPrecision" transform="matrix(1,0,0,1,85,15)" stroke="white">
      <rect x="546.649" width="50.6973" height="30" y="180" clip-path="url(#clipPath2)" stroke="none"/>
    </g>
    <g text-rendering="geometricPrecision" stroke-miterlimit="1.45" shape-rendering="geometricPrecision" font-family="sans-serif" transform="matrix(1,0,0,1,85,15)" stroke-linecap="butt">
      <text x="548.649" xml:space="preserve" y="193.1387" clip-path="url(#clipPath2)" stroke="none">target</text>
      <rect fill="none" x="546.649" width="50.6973" height="30" y="180" clip-path="url(#clipPath2)"/>
    </g>
    <g fill="white" text-rendering="geometricPrecision" shape-rendering="geometricPrecision" transform="matrix(1,0,0,1,85,15)" stroke="white">
      <rect x="422.4311" width="90.6172" height="30" y="0" clip-path="url(#clipPath2)" stroke="none"/>
    </g>
    <g text-rendering="geometricPrecision" stroke-miterlimit="1.45" shape-rendering="geometricPrecision" font-family="sans-serif" transform="matrix(1,0,0,1,85,15)" stroke-linecap="butt">
      <text x="424.4311" xml:space="preserve" y="13.1387" clip-path="url(#clipPath2)" stroke="none">three_center</text>
      <rect fill="none" x="422.4311" width="90.6172" height="30" y="0" clip-path="url(#clipPath2)"/>
    </g>
    <g fill="white" text-rendering="geometricPrecision" shape-rendering="geometricPrecision" transform="matrix(1,0,0,1,85,15)" stroke="white">
      <rect x="442.391" width="50.6973" height="30" y="180" clip-path="url(#clipPath2)" stroke="none"/>
    </g>
    <g text-rendering="geometricPrecision" stroke-miterlimit="1.45" shape-rendering="geometricPrecision" font-family="sans-serif" transform="matrix(1,0,0,1,85,15)" stroke-linecap="butt">
      <text x="444.3911" xml:space="preserve" y="193.1387" clip-path="url(#clipPath2)" stroke="none">target</text>
      <rect fill="none" x="442.391" width="50.6973" height="30" y="180" clip-path="url(#clipPath2)"/>
    </g>
    <g fill="white" text-rendering="geometricPrecision" shape-rendering="geometricPrecision" transform="matrix(1,0,0,1,85,15)" stroke="white">
      <rect x="301.8136" width="90.6172" height="30" y="0" clip-path="url(#clipPath2)" stroke="none"/>
    </g>
    <g text-rendering="geometricPrecision" stroke-miterlimit="1.45" shape-rendering="geometricPrecision" font-family="sans-serif" transform="matrix(1,0,0,1,85,15)" stroke-linecap="butt">
      <text x="303.8136" xml:space="preserve" y="13.1387" clip-path="url(#clipPath2)" stroke="none">three_center</text>
      <rect fill="none" x="301.8136" width="90.6172" height="30" y="0" clip-path="url(#clipPath2)"/>
    </g>
    <g fill="white" text-rendering="geometricPrecision" shape-rendering="geometricPrecision" transform="matrix(1,0,0,1,85,15)" stroke="white">
      <rect x="321.7736" width="50.6973" height="30" y="180" clip-path="url(#clipPath2)" stroke="none"/>
    </g>
    <g text-rendering="geometricPrecision" stroke-miterlimit="1.45" shape-rendering="geometricPrecision" font-family="sans-serif" transform="matrix(1,0,0,1,85,15)" stroke-linecap="butt">
      <text x="323.7736" xml:space="preserve" y="193.1387" clip-path="url(#clipPath2)" stroke="none">target</text>
      <rect fill="none" x="321.7736" width="50.6973" height="30" y="180" clip-path="url(#clipPath2)"/>
    </g>
    <g fill="white" text-rendering="geometricPrecision" shape-rendering="geometricPrecision" transform="matrix(1,0,0,1,85,15)" stroke="white">
      <rect x="181.1962" width="90.6172" height="30" y="0" clip-path="url(#clipPath2)" stroke="none"/>
    </g>
    <g text-rendering="geometricPrecision" stroke-miterlimit="1.45" shape-rendering="geometricPrecision" font-family="sans-serif" transform="matrix(1,0,0,1,85,15)" stroke-linecap="butt">
      <text x="183.1962" xml:space="preserve" y="13.1387" clip-path="url(#clipPath2)" stroke="none">three_center</text>
      <rect fill="none" x="181.1962" width="90.6172" height="30" y="0" clip-path="url(#clipPath2)"/>
    </g>
    <g fill="white" text-rendering="geometricPrecision" shape-rendering="geometricPrecision" transform="matrix(1,0,0,1,85,15)" stroke="white">
      <rect x="201.1561" width="50.6973" height="30" y="180" clip-path="url(#clipPath2)" stroke="none"/>
    </g>
    <g text-rendering="geometricPrecision" stroke-miterlimit="1.45" shape-rendering="geometricPrecision" font-family="sans-serif" transform="matrix(1,0,0,1,85,15)" stroke-linecap="butt">
      <text x="203.1561" xml:space="preserve" y="193.1387" clip-path="url(#clipPath2)" stroke="none">target</text>
      <rect fill="none" x="201.1561" width="50.6973" height="30" y="180" clip-path="url(#clipPath2)"/>
    </g>
    <g fill="white" text-rendering="geometricPrecision" shape-rendering="geometricPrecision" transform="matrix(1,0,0,1,85,15)" stroke="white">
      <rect x="113.2722" width="37.9238" height="30" y="0" clip-path="url(#clipPath2)" stroke="none"/>
    </g>
    <g text-rendering="geometricPrecision" stroke-miterlimit="1.45" shape-rendering="geometricPrecision" font-family="sans-serif" transform="matrix(1,0,0,1,85,15)" stroke-linecap="butt">
      <text x="115.2722" xml:space="preserve" y="13.1387" clip-path="url(#clipPath2)" stroke="none">free</text>
      <rect fill="none" x="113.2722" width="37.9238" height="30" y="0" clip-path="url(#clipPath2)"/>
    </g>
    <g fill="white" text-rendering="geometricPrecision" shape-rendering="geometricPrecision" transform="matrix(1,0,0,1,85,15)" stroke="white">
      <rect x="106.8855" width="50.6973" height="30" y="180" clip-path="url(#clipPath2)" stroke="none"/>
    </g>
    <g text-rendering="geometricPrecision" stroke-miterlimit="1.45" shape-rendering="geometricPrecision" font-family="sans-serif" transform="matrix(1,0,0,1,85,15)" stroke-linecap="butt">
      <text x="108.8855" xml:space="preserve" y="193.1387" clip-path="url(#clipPath2)" stroke="none">target</text>
      <rect fill="none" x="106.8855" width="50.6973" height="30" y="180" clip-path="url(#clipPath2)"/>
      <path fill="none" d="M51.5365 30 L51.5365 171.9634" clip-path="url(#clipPath2)"/>
      <path d="M51.5365 179.9634 L56.5365 167.9634 L51.5365 170.9634 L46.5365 167.9634 Z" clip-path="url(#clipPath2)" stroke="none"/>
      <rect x="15.5775" y="96.0156" clip-path="url(#clipPath2)" fill="white" width="33.959" height="17.9688" stroke="none"/>
    </g>
    <g fill="red" text-rendering="geometricPrecision" stroke-miterlimit="1.6" shape-rendering="geometricPrecision" transform="matrix(1,0,0,1,85,15)" stroke="red">
      <rect fill="none" x="15.5775" width="33.959" height="17.9688" y="96.0156" clip-path="url(#clipPath2)"/>
    </g>
    <g text-rendering="geometricPrecision" stroke-miterlimit="1.45" shape-rendering="geometricPrecision" font-family="sans-serif" transform="matrix(1,0,0,1,85,15)" stroke-linecap="butt">
      <text x="17.5775" xml:space="preserve" y="109.1543" clip-path="url(#clipPath2)" stroke="none">head</text>
      <path fill="none" d="M-38.3037 30 L-38.3037 171.9634" clip-path="url(#clipPath2)"/>
      <path d="M-38.3037 179.9634 L-33.3037 167.9634 L-38.3037 170.9634 L-43.3037 167.9634 Z" clip-path="url(#clipPath2)" stroke="none"/>
      <rect x="-36.3037" y="96.0156" clip-path="url(#clipPath2)" fill="white" width="22.7266" height="17.9688" stroke="none"/>
    </g>
    <g fill="red" text-rendering="geometricPrecision" stroke-miterlimit="1.6" shape-rendering="geometricPrecision" transform="matrix(1,0,0,1,85,15)" stroke="red">
      <rect fill="none" x="-36.3037" width="22.7266" height="17.9688" y="96.0156" clip-path="url(#clipPath2)"/>
    </g>
    <g text-rendering="geometricPrecision" stroke-miterlimit="1.45" shape-rendering="geometricPrecision" font-family="sans-serif" transform="matrix(1,0,0,1,85,15)" stroke-linecap="butt">
      <text x="-34.3037" xml:space="preserve" y="109.1543" clip-path="url(#clipPath2)" stroke="none">tail</text>
      <path fill="none" d="M1104.2449 30 L1104.2449 171.9634" clip-path="url(#clipPath2)"/>
      <path d="M1104.2449 179.9634 L1109.2449 167.9634 L1104.2449 170.9634 L1099.2449 167.9634 Z" clip-path="url(#clipPath2)" stroke="none"/>
      <rect x="1082.9411" y="96.0156" clip-path="url(#clipPath2)" fill="white" width="42.6074" height="17.9688" stroke="none"/>
    </g>
    <g fill="red" text-rendering="geometricPrecision" stroke-miterlimit="1.6" shape-rendering="geometricPrecision" transform="matrix(1,0,0,1,85,15)" stroke="red">
      <rect fill="none" x="1082.9411" width="42.6074" height="17.9688" y="96.0156" clip-path="url(#clipPath2)"/>
    </g>
    <g text-rendering="geometricPrecision" stroke-miterlimit="1.45" shape-rendering="geometricPrecision" font-family="sans-serif" transform="matrix(1,0,0,1,85,15)" stroke-linecap="butt">
      <text x="1084.9412" xml:space="preserve" y="109.1543" clip-path="url(#clipPath2)" stroke="none">center</text>
      <path fill="none" d="M1011.4916 30 L1011.4916 171.9634" clip-path="url(#clipPath2)"/>
      <path d="M1011.4916 179.9634 L1016.4916 167.9634 L1011.4916 170.9634 L1006.4916 167.9634 Z" clip-path="url(#clipPath2)" stroke="none"/>
      <rect x="969.2807" y="40.125" clip-path="url(#clipPath2)" fill="white" width="40.2109" height="17.9688" stroke="none"/>
    </g>
    <g fill="red" text-rendering="geometricPrecision" stroke-miterlimit="1.6" shape-rendering="geometricPrecision" transform="matrix(1,0,0,1,85,15)" stroke="red">
      <rect fill="none" x="969.2807" width="40.2109" height="17.9688" y="40.125" clip-path="url(#clipPath2)"/>
    </g>
    <g text-rendering="geometricPrecision" stroke-miterlimit="1.45" shape-rendering="geometricPrecision" font-family="sans-serif" transform="matrix(1,0,0,1,85,15)" stroke-linecap="butt">
      <text x="971.2807" xml:space="preserve" y="53.2637" clip-path="url(#clipPath2)" stroke="none">shead</text>
      <path fill="none" d="M923.5928 30 L923.5928 171.9634" clip-path="url(#clipPath2)"/>
      <path d="M923.5928 179.9634 L928.5928 167.9634 L923.5928 170.9634 L918.5928 167.9634 Z" clip-path="url(#clipPath2)" stroke="none"/>
      <rect x="882.9288" y="151.9062" clip-path="url(#clipPath2)" fill="white" width="38.6641" height="17.9688" stroke="none"/>
    </g>
    <g fill="red" text-rendering="geometricPrecision" stroke-miterlimit="1.6" shape-rendering="geometricPrecision" transform="matrix(1,0,0,1,85,15)" stroke="red">
      <rect fill="none" x="882.9288" width="38.6641" height="17.9688" y="151.9062" clip-path="url(#clipPath2)"/>
    </g>
    <g text-rendering="geometricPrecision" stroke-miterlimit="1.45" shape-rendering="geometricPrecision" font-family="sans-serif" transform="matrix(1,0,0,1,85,15)" stroke-linecap="butt">
      <text x="884.9288" xml:space="preserve" y="165.0449" clip-path="url(#clipPath2)" stroke="none">thead</text>
      <path fill="none" d="M835.694 30 L835.694 171.9634" clip-path="url(#clipPath2)"/>
      <path d="M835.694 179.9634 L840.694 167.9634 L835.694 170.9634 L830.694 167.9634 Z" clip-path="url(#clipPath2)" stroke="none"/>
      <rect x="799.7351" y="96.0156" clip-path="url(#clipPath2)" fill="white" width="33.959" height="17.9688" stroke="none"/>
    </g>
    <g fill="red" text-rendering="geometricPrecision" stroke-miterlimit="1.6" shape-rendering="geometricPrecision" transform="matrix(1,0,0,1,85,15)" stroke="red">
      <rect fill="none" x="799.7351" width="33.959" height="17.9688" y="96.0156" clip-path="url(#clipPath2)"/>
    </g>
    <g text-rendering="geometricPrecision" stroke-miterlimit="1.45" shape-rendering="geometricPrecision" font-family="sans-serif" transform="matrix(1,0,0,1,85,15)" stroke-linecap="butt">
      <text x="801.735" xml:space="preserve" y="109.1543" clip-path="url(#clipPath2)" stroke="none">head</text>
      <path fill="none" d="M747.7952 30 L747.7952 171.9634" clip-path="url(#clipPath2)"/>
      <path d="M747.7952 179.9634 L752.7952 167.9634 L747.7952 170.9634 L742.7952 167.9634 Z" clip-path="url(#clipPath2)" stroke="none"/>
      <rect x="749.7952" y="40.125" clip-path="url(#clipPath2)" fill="white" width="28.9785" height="17.9688" stroke="none"/>
    </g>
    <g fill="red" text-rendering="geometricPrecision" stroke-miterlimit="1.6" shape-rendering="geometricPrecision" transform="matrix(1,0,0,1,85,15)" stroke="red">
      <rect fill="none" x="749.7952" width="28.9785" height="17.9688" y="40.125" clip-path="url(#clipPath2)"/>
    </g>
    <g text-rendering="geometricPrecision" stroke-miterlimit="1.45" shape-rendering="geometricPrecision" font-family="sans-serif" transform="matrix(1,0,0,1,85,15)" stroke-linecap="butt">
      <text x="751.7952" xml:space="preserve" y="53.2637" clip-path="url(#clipPath2)" stroke="none">stail</text>
      <path fill="none" d="M659.8964 30 L659.8964 171.9634" clip-path="url(#clipPath2)"/>
      <path d="M659.8964 179.9634 L664.8964 167.9634 L659.8964 170.9634 L654.8964 167.9634 Z" clip-path="url(#clipPath2)" stroke="none"/>
      <rect x="661.8964" y="151.9062" clip-path="url(#clipPath2)" fill="white" width="27.4316" height="17.9688" stroke="none"/>
    </g>
    <g fill="red" text-rendering="geometricPrecision" stroke-miterlimit="1.6" shape-rendering="geometricPrecision" transform="matrix(1,0,0,1,85,15)" stroke="red">
      <rect fill="none" x="661.8964" width="27.4316" height="17.9688" y="151.9062" clip-path="url(#clipPath2)"/>
    </g>
    <g text-rendering="geometricPrecision" stroke-miterlimit="1.45" shape-rendering="geometricPrecision" font-family="sans-serif" transform="matrix(1,0,0,1,85,15)" stroke-linecap="butt">
      <text x="663.8964" xml:space="preserve" y="165.0449" clip-path="url(#clipPath2)" stroke="none">ttail</text>
      <path fill="none" d="M571.9976 30 L571.9976 171.9634" clip-path="url(#clipPath2)"/>
      <path d="M571.9976 179.9634 L576.9976 167.9634 L571.9976 170.9634 L566.9976 167.9634 Z" clip-path="url(#clipPath2)" stroke="none"/>
      <rect x="573.9976" y="96.0156" clip-path="url(#clipPath2)" fill="white" width="22.7266" height="17.9688" stroke="none"/>
    </g>
    <g fill="red" text-rendering="geometricPrecision" stroke-miterlimit="1.6" shape-rendering="geometricPrecision" transform="matrix(1,0,0,1,85,15)" stroke="red">
      <rect fill="none" x="573.9976" width="22.7266" height="17.9688" y="96.0156" clip-path="url(#clipPath2)"/>
    </g>
    <g text-rendering="geometricPrecision" stroke-miterlimit="1.45" shape-rendering="geometricPrecision" font-family="sans-serif" transform="matrix(1,0,0,1,85,15)" stroke-linecap="butt">
      <text x="575.9976" xml:space="preserve" y="109.1543" clip-path="url(#clipPath2)" stroke="none">tail</text>
      <path fill="none" d="M467.7397 30 L467.7397 171.9634" clip-path="url(#clipPath2)"/>
      <path d="M467.7397 179.9634 L472.7397 167.9634 L467.7397 170.9634 L462.7397 167.9634 Z" clip-path="url(#clipPath2)" stroke="none"/>
      <rect x="446.436" y="96.0156" clip-path="url(#clipPath2)" fill="white" width="42.6074" height="17.9688" stroke="none"/>
    </g>
    <g fill="red" text-rendering="geometricPrecision" stroke-miterlimit="1.6" shape-rendering="geometricPrecision" transform="matrix(1,0,0,1,85,15)" stroke="red">
      <rect fill="none" x="446.436" width="42.6074" height="17.9688" y="96.0156" clip-path="url(#clipPath2)"/>
    </g>
    <g text-rendering="geometricPrecision" stroke-miterlimit="1.45" shape-rendering="geometricPrecision" font-family="sans-serif" transform="matrix(1,0,0,1,85,15)" stroke-linecap="butt">
      <text x="448.436" xml:space="preserve" y="109.1543" clip-path="url(#clipPath2)" stroke="none">center</text>
      <path fill="none" d="M347.1222 30 L347.1222 171.9634" clip-path="url(#clipPath2)"/>
      <path d="M347.1222 179.9634 L352.1222 167.9634 L347.1222 170.9634 L342.1222 167.9634 Z" clip-path="url(#clipPath2)" stroke="none"/>
      <rect x="326.3839" y="40.125" clip-path="url(#clipPath2)" fill="white" width="41.4766" height="17.9688" stroke="none"/>
    </g>
    <g fill="red" text-rendering="geometricPrecision" stroke-miterlimit="1.6" shape-rendering="geometricPrecision" transform="matrix(1,0,0,1,85,15)" stroke="red">
      <rect fill="none" x="326.3839" width="41.4766" height="17.9688" y="40.125" clip-path="url(#clipPath2)"/>
    </g>
    <g text-rendering="geometricPrecision" stroke-miterlimit="1.45" shape-rendering="geometricPrecision" font-family="sans-serif" transform="matrix(1,0,0,1,85,15)" stroke-linecap="butt">
      <text x="328.3839" xml:space="preserve" y="53.2637" clip-path="url(#clipPath2)" stroke="none">scentr</text>
      <path fill="none" d="M226.5048 30 L226.5048 171.9634" clip-path="url(#clipPath2)"/>
      <path d="M226.5048 179.9634 L231.5048 167.9634 L226.5048 170.9634 L221.5048 167.9634 Z" clip-path="url(#clipPath2)" stroke="none"/>
      <rect x="206.5399" y="151.9062" clip-path="url(#clipPath2)" fill="white" width="39.9297" height="17.9688" stroke="none"/>
    </g>
    <g fill="red" text-rendering="geometricPrecision" stroke-miterlimit="1.6" shape-rendering="geometricPrecision" transform="matrix(1,0,0,1,85,15)" stroke="red">
      <rect fill="none" x="206.5399" width="39.9297" height="17.9688" y="151.9062" clip-path="url(#clipPath2)"/>
    </g>
    <g text-rendering="geometricPrecision" stroke-miterlimit="1.45" shape-rendering="geometricPrecision" font-family="sans-serif" transform="matrix(1,0,0,1,85,15)" stroke-linecap="butt">
      <text x="208.5399" xml:space="preserve" y="165.0449" clip-path="url(#clipPath2)" stroke="none">tcentr</text>
      <path fill="none" d="M132.2341 30 L132.2341 171.9634" clip-path="url(#clipPath2)"/>
      <path d="M132.2341 179.9634 L137.2341 167.9634 L132.2341 170.9634 L127.2341 167.9634 Z" clip-path="url(#clipPath2)" stroke="none"/>
      <rect x="100.6443" y="21.0156" clip-path="url(#clipPath2)" fill="white" width="63.1797" height="17.9688" stroke="none"/>
    </g>
    <g fill="red" text-rendering="geometricPrecision" stroke-miterlimit="1.6" shape-rendering="geometricPrecision" transform="matrix(1,0,0,1,85,15)" stroke="red">
      <rect fill="none" x="100.6443" width="63.1797" height="17.9688" y="21.0156" clip-path="url(#clipPath2)"/>
    </g>
    <g text-rendering="geometricPrecision" stroke-miterlimit="1.45" shape-rendering="geometricPrecision" font-family="sans-serif" transform="matrix(1,0,0,1,85,15)" stroke-linecap="butt">
      <text x="102.6443" xml:space="preserve" y="34.1543" clip-path="url(#clipPath2)" stroke="none">anywhere</text>
    </g>
  </g>
</svg>
