<?xml version="1.0" encoding="UTF-8"?><svg xmlns="http://www.w3.org/2000/svg" xmlns:xlink="http://www.w3.org/1999/xlink" fill-opacity="1" color-rendering="auto" color-interpolation="auto" text-rendering="auto" stroke="black" stroke-linecap="square" width="830" stroke-miterlimit="10" shape-rendering="auto" stroke-opacity="1" fill="black" stroke-dasharray="none" font-weight="normal" stroke-width="1" height="477" font-family="'Dialog'" font-style="normal" stroke-linejoin="miter" font-size="12px" stroke-dashoffset="0" image-rendering="auto">
  <!--Generated by ySVG 2.6-->
  <defs id="genericDefs"/>
  <g>
    <g fill="white" text-rendering="geometricPrecision" shape-rendering="geometricPrecision" transform="translate(42,15)" stroke="white">
      <rect x="-42" width="830" height="477" y="-15" clip-path="url(#clipPath2)" stroke="none"/>
    </g>
    <g fill="white" text-rendering="geometricPrecision" shape-rendering="geometricPrecision" transform="matrix(1,0,0,1,42,15)" stroke="white">
      <rect x="516.4054" width="32.9082" height="30" y="34.4844" clip-path="url(#clipPath2)" stroke="none"/>
    </g>
    <g text-rendering="geometricPrecision" stroke-miterlimit="1.45" shape-rendering="geometricPrecision" transform="matrix(1,0,0,1,42,15)" stroke-linecap="butt">
      <text x="523.4054" xml:space="preserve" y="53.6387" clip-path="url(#clipPath2)" stroke="none">foo</text>
      <rect fill="none" x="516.4054" width="32.9082" height="30" y="34.4844" clip-path="url(#clipPath2)"/>
    </g>
    <g fill="white" text-rendering="geometricPrecision" shape-rendering="geometricPrecision" transform="matrix(1,0,0,1,42,15)" stroke="white">
      <rect x="510.8302" y="157.375" clip-path="url(#clipPath2)" width="44.0586" rx="4" ry="4" height="30" stroke="none"/>
    </g>
    <g stroke-linecap="butt" transform="matrix(1,0,0,1,42,15)" text-rendering="geometricPrecision" font-family="sans-serif" shape-rendering="geometricPrecision" font-style="italic" font-weight="bold" stroke-miterlimit="1.45">
      <text x="517.8302" xml:space="preserve" y="176.5293" clip-path="url(#clipPath2)" stroke="none">foo2</text>
      <rect x="510.8302" y="157.375" clip-path="url(#clipPath2)" fill="none" width="44.0586" rx="4" ry="4" height="30"/>
    </g>
    <g fill="white" text-rendering="geometricPrecision" shape-rendering="geometricPrecision" transform="matrix(1,0,0,1,42,15)" stroke="white">
      <rect x="668.889" width="103.7363" height="126.8125" y="108.9688" clip-path="url(#clipPath2)" stroke="none"/>
    </g>
    <g text-rendering="geometricPrecision" stroke-miterlimit="1.45" shape-rendering="geometricPrecision" transform="matrix(1,0,0,1,42,15)" stroke-linecap="butt">
      <rect fill="none" x="668.889" width="103.7363" height="126.8125" y="108.9688" clip-path="url(#clipPath2)"/>
      <text x="675.889" xml:space="preserve" y="125.1074" clip-path="url(#clipPath3)" font-family="sans-serif" stroke="none">&lt;&lt;abstract&gt;&gt;</text>
      <text x="693.1946" xml:space="preserve" y="148.0762" clip-path="url(#clipPath3)" font-family="sans-serif" stroke="none">UmlNode</text>
      <line stroke-linecap="square" clip-path="url(#clipPath3)" fill="none" x1="669" x2="771" y1="155" y2="155" stroke-miterlimit="10"/>
      <text x="673.889" xml:space="preserve" y="172.0449" clip-path="url(#clipPath3)" font-family="sans-serif" stroke="none">foo</text>
      <text x="673.889" xml:space="preserve" y="186.0137" clip-path="url(#clipPath3)" font-family="sans-serif" stroke="none">bar</text>
      <line stroke-linecap="square" clip-path="url(#clipPath3)" fill="none" x1="669" x2="771" y1="193" y2="193" stroke-miterlimit="10"/>
      <text x="673.889" xml:space="preserve" y="209.9824" clip-path="url(#clipPath3)" font-family="sans-serif" stroke="none">foo()</text>
      <text x="673.889" xml:space="preserve" y="223.9512" clip-path="url(#clipPath3)" font-family="sans-serif" stroke="none">bar()</text>
    </g>
    <g fill="white" text-rendering="geometricPrecision" shape-rendering="geometricPrecision" transform="matrix(1,0,0,1,42,15)" stroke="white">
      <rect x="452.501" width="33.9043" height="30" y="34.4844" clip-path="url(#clipPath2)" stroke="none"/>
    </g>
    <g text-rendering="geometricPrecision" stroke-miterlimit="1.45" shape-rendering="geometricPrecision" font-family="sans-serif" transform="matrix(1,0,0,1,42,15)" stroke-linecap="butt">
      <text x="459.501" xml:space="preserve" y="53.6387" clip-path="url(#clipPath2)" stroke="none">bar</text>
      <rect fill="none" x="452.501" width="33.9043" height="30" y="34.4844" clip-path="url(#clipPath2)"/>
    </g>
    <g fill="white" text-rendering="geometricPrecision" shape-rendering="geometricPrecision" transform="matrix(1,0,0,1,42,15)" stroke="white">
      <rect x="369.6882" width="52.8125" height="30" y="34.4844" clip-path="url(#clipPath2)" stroke="none"/>
    </g>
    <g text-rendering="geometricPrecision" stroke-miterlimit="1.45" shape-rendering="geometricPrecision" font-family="sans-serif" transform="matrix(1,0,0,1,42,15)" stroke-linecap="butt">
      <text x="376.6882" xml:space="preserve" y="53.6387" clip-path="url(#clipPath2)" stroke="none">foobar</text>
      <rect fill="none" x="369.6882" width="52.8125" height="30" y="34.4844" clip-path="url(#clipPath2)"/>
    </g>
    <g fill="rgb(232,238,247)" text-rendering="geometricPrecision" shape-rendering="geometricPrecision" transform="matrix(1,0,0,1,42,15)" stroke="rgb(232,238,247)">
      <rect x="290.6548" y="12.5469" clip-path="url(#clipPath4)" width="49.0332" rx="4" ry="4" height="73.875" stroke="none"/>
      <rect x="290.6548" y="12.5469" clip-path="url(#clipPath5)" fill="rgb(183,201,227)" width="49.0332" rx="4" ry="4" height="73.875" stroke="none"/>
    </g>
    <g text-rendering="geometricPrecision" stroke-miterlimit="1.45" shape-rendering="geometricPrecision" transform="matrix(1,0,0,1,42,15)" stroke-linecap="butt">
      <rect x="290.6548" y="12.5469" clip-path="url(#clipPath2)" fill="none" width="49.0332" rx="4" ry="4" height="73.875"/>
      <line y2="38.5156" fill="none" x1="290.6548" clip-path="url(#clipPath2)" x2="339.688" y1="38.5156"/>
      <text x="297.6548" xml:space="preserve" y="29.6855" clip-path="url(#clipPath2)" font-family="sans-serif" stroke="none">Entity</text>
      <text x="294.6548" xml:space="preserve" y="55.6543" clip-path="url(#clipPath2)" font-family="sans-serif" stroke="none">line1</text>
      <text x="294.6548" xml:space="preserve" y="69.623" clip-path="url(#clipPath2)" font-family="sans-serif" stroke="none">line2</text>
      <text x="294.6548" xml:space="preserve" y="83.5918" clip-path="url(#clipPath2)" font-family="sans-serif" stroke="none">line3</text>
    </g>
    <g fill="rgb(232,238,247)" text-rendering="geometricPrecision" shape-rendering="geometricPrecision" transform="matrix(1,0,0,1,42,15)" stroke="rgb(232,238,247)">
      <rect x="117.6548" y="0" clip-path="url(#clipPath6)" width="143" rx="4" ry="4" height="98.9688" stroke="none"/>
      <rect x="117.6548" y="0" clip-path="url(#clipPath7)" fill="rgb(183,201,227)" width="143" rx="4" ry="4" height="98.9688" stroke="none"/>
    </g>
    <g text-rendering="geometricPrecision" stroke-miterlimit="1.45" shape-rendering="geometricPrecision" transform="matrix(1,0,0,1,42,15)" stroke-linecap="butt">
      <rect x="117.6548" y="0" clip-path="url(#clipPath2)" fill="none" width="143" rx="4" ry="4" height="98.9688"/>
      <line y2="25.9688" fill="none" x1="117.6548" clip-path="url(#clipPath2)" x2="260.6548" y1="25.9688"/>
      <text x="171.6382" xml:space="preserve" y="17.1387" clip-path="url(#clipPath2)" font-family="sans-serif" stroke="none">Entity</text>
    </g>
    <g text-rendering="geometricPrecision" stroke-miterlimit="1.45" shape-rendering="geometricPrecision" font-family="sans-serif" transform="matrix(1,0,0,1,42,15) translate(122,32)" stroke-linecap="butt">
      <polygon points=" 0 0 -1 -1 45 -1 44 0" stroke="none" clip-path="url(#clipPath9)"/>
      <polygon clip-path="url(#clipPath10)" transform="translate(44,0) rotate(90)" points=" 0 0 -1 -1 22 -1 21 0" stroke="none"/>
      <polygon clip-path="url(#clipPath11)" transform="translate(44,21) rotate(180)" points=" 0 0 -1 -1 45 -1 44 0" stroke="none"/>
      <polygon clip-path="url(#clipPath12)" transform="translate(0,21) rotate(270)" points=" 0 0 -1 -1 22 -1 21 0" stroke="none"/>
    </g>
    <g stroke-linecap="butt" transform="matrix(1,0,0,1,42,15) translate(121,31)" text-rendering="geometricPrecision" font-family="sans-serif" shape-rendering="geometricPrecision" font-weight="bold" stroke-miterlimit="1.45">
      <text x="4" xml:space="preserve" y="16" clip-path="url(#clipPath8)" stroke="none">Rows</text>
    </g>
    <g stroke-linecap="butt" transform="matrix(1,0,0,1,42,15) translate(167,32)" text-rendering="geometricPrecision" font-family="sans-serif" shape-rendering="geometricPrecision" font-weight="bold" stroke-miterlimit="1.45">
      <polygon points=" 0 0 0 -1 47 -1 46 0" stroke="none" clip-path="url(#clipPath13)"/>
      <polygon clip-path="url(#clipPath10)" transform="translate(46,0) rotate(90)" points=" 0 0 -1 -1 22 -1 21 0" stroke="none"/>
      <polygon clip-path="url(#clipPath14)" transform="translate(46,21) rotate(180)" points=" 0 0 -1 -1 46 -1 46 0" stroke="none"/>
    </g>
    <g stroke-linecap="butt" transform="matrix(1,0,0,1,42,15) translate(121,31)" text-rendering="geometricPrecision" font-family="sans-serif" shape-rendering="geometricPrecision" font-weight="bold" stroke-miterlimit="1.45">
      <text x="49" xml:space="preserve" y="16" clip-path="url(#clipPath8)" stroke="none">Name</text>
    </g>
    <g stroke-linecap="butt" transform="matrix(1,0,0,1,42,15) translate(214,32)" text-rendering="geometricPrecision" font-family="sans-serif" shape-rendering="geometricPrecision" font-weight="bold" stroke-miterlimit="1.45">
      <polygon points=" 0 0 0 -1 36 -1 35 0" stroke="none" clip-path="url(#clipPath15)"/>
      <polygon clip-path="url(#clipPath10)" transform="translate(35,0) rotate(90)" points=" 0 0 -1 -1 22 -1 21 0" stroke="none"/>
      <polygon clip-path="url(#clipPath16)" transform="translate(35,21) rotate(180)" points=" 0 0 -1 -1 35 -1 35 0" stroke="none"/>
    </g>
    <g stroke-linecap="butt" transform="matrix(1,0,0,1,42,15) translate(121,31)" text-rendering="geometricPrecision" font-family="sans-serif" shape-rendering="geometricPrecision" font-weight="bold" stroke-miterlimit="1.45">
      <text x="96" xml:space="preserve" y="16" clip-path="url(#clipPath8)" stroke="none">Unit</text>
    </g>
    <g stroke-linecap="butt" transform="matrix(1,0,0,1,42,15) translate(166,54) rotate(90)" text-rendering="geometricPrecision" font-family="sans-serif" shape-rendering="geometricPrecision" font-weight="bold" stroke-miterlimit="1.45">
      <polygon points=" 0 0 0 -1 22 -1 21 0" stroke="none" clip-path="url(#clipPath17)"/>
      <polygon clip-path="url(#clipPath11)" transform="rotate(-90) translate(0,21) rotate(180)" points=" 0 0 -1 -1 45 -1 44 0" stroke="none"/>
      <polygon clip-path="url(#clipPath18)" transform="rotate(-90) translate(-44,21) rotate(270)" points=" 0 0 -1 -1 21 -1 21 0" stroke="none"/>
    </g>
    <g text-rendering="geometricPrecision" stroke-miterlimit="1.45" shape-rendering="geometricPrecision" font-family="sans-serif" transform="matrix(1,0,0,1,42,15) translate(121,31)" stroke-linecap="butt">
      <text x="4" xml:space="preserve" y="38" clip-path="url(#clipPath8)" stroke="none">Row 0</text>
    </g>
    <g text-rendering="geometricPrecision" stroke-miterlimit="1.45" shape-rendering="geometricPrecision" font-family="sans-serif" transform="matrix(1,0,0,1,42,15) translate(213,54) rotate(90)" stroke-linecap="butt">
      <polygon points=" 0 0 0 -1 22 -1 21 0" stroke="none" clip-path="url(#clipPath17)"/>
      <polygon clip-path="url(#clipPath14)" transform="rotate(-90) translate(0,21) rotate(180)" points=" 0 0 -1 -1 46 -1 46 0" stroke="none"/>
    </g>
    <g text-rendering="geometricPrecision" stroke-miterlimit="1.45" shape-rendering="geometricPrecision" font-family="sans-serif" transform="matrix(1,0,0,1,42,15) translate(121,31)" stroke-linecap="butt">
      <text x="49" xml:space="preserve" y="38" clip-path="url(#clipPath8)" stroke="none">toto</text>
    </g>
    <g text-rendering="geometricPrecision" stroke-miterlimit="1.45" shape-rendering="geometricPrecision" font-family="sans-serif" transform="matrix(1,0,0,1,42,15) translate(249,54) rotate(90)" stroke-linecap="butt">
      <polygon points=" 0 0 0 -1 22 -1 21 0" stroke="none" clip-path="url(#clipPath17)"/>
      <polygon clip-path="url(#clipPath16)" transform="rotate(-90) translate(0,21) rotate(180)" points=" 0 0 -1 -1 35 -1 35 0" stroke="none"/>
    </g>
    <g text-rendering="geometricPrecision" stroke-miterlimit="1.45" shape-rendering="geometricPrecision" font-family="sans-serif" transform="matrix(1,0,0,1,42,15) translate(121,31)" stroke-linecap="butt">
      <text x="96" xml:space="preserve" y="38" clip-path="url(#clipPath8)" stroke="none">str</text>
    </g>
    <g text-rendering="geometricPrecision" stroke-miterlimit="1.45" shape-rendering="geometricPrecision" font-family="sans-serif" transform="matrix(1,0,0,1,42,15) translate(166,76) rotate(90)" stroke-linecap="butt">
      <polygon points=" 0 0 0 -1 22 -1 21 0" stroke="none" clip-path="url(#clipPath17)"/>
      <polygon clip-path="url(#clipPath11)" transform="rotate(-90) translate(0,21) rotate(180)" points=" 0 0 -1 -1 45 -1 44 0" stroke="none"/>
      <polygon clip-path="url(#clipPath18)" transform="rotate(-90) translate(-44,21) rotate(270)" points=" 0 0 -1 -1 21 -1 21 0" stroke="none"/>
    </g>
    <g text-rendering="geometricPrecision" stroke-miterlimit="1.45" shape-rendering="geometricPrecision" font-family="sans-serif" transform="matrix(1,0,0,1,42,15) translate(121,31)" stroke-linecap="butt">
      <text x="4" xml:space="preserve" y="60" clip-path="url(#clipPath8)" stroke="none">Row 1</text>
    </g>
    <g text-rendering="geometricPrecision" stroke-miterlimit="1.45" shape-rendering="geometricPrecision" font-family="sans-serif" transform="matrix(1,0,0,1,42,15) translate(213,76) rotate(90)" stroke-linecap="butt">
      <polygon points=" 0 0 0 -1 22 -1 21 0" stroke="none" clip-path="url(#clipPath17)"/>
      <polygon clip-path="url(#clipPath14)" transform="rotate(-90) translate(0,21) rotate(180)" points=" 0 0 -1 -1 46 -1 46 0" stroke="none"/>
    </g>
    <g text-rendering="geometricPrecision" stroke-miterlimit="1.45" shape-rendering="geometricPrecision" font-family="sans-serif" transform="matrix(1,0,0,1,42,15) translate(121,31)" stroke-linecap="butt">
      <text x="49" xml:space="preserve" y="60" clip-path="url(#clipPath8)" stroke="none">123</text>
    </g>
    <g text-rendering="geometricPrecision" stroke-miterlimit="1.45" shape-rendering="geometricPrecision" font-family="sans-serif" transform="matrix(1,0,0,1,42,15) translate(249,76) rotate(90)" stroke-linecap="butt">
      <polygon points=" 0 0 0 -1 22 -1 21 0" stroke="none" clip-path="url(#clipPath17)"/>
      <polygon clip-path="url(#clipPath16)" transform="rotate(-90) translate(0,21) rotate(180)" points=" 0 0 -1 -1 35 -1 35 0" stroke="none"/>
    </g>
    <g text-rendering="geometricPrecision" stroke-miterlimit="1.45" shape-rendering="geometricPrecision" font-family="sans-serif" transform="matrix(1,0,0,1,42,15) translate(121,31)" stroke-linecap="butt">
      <text x="96" xml:space="preserve" y="60" clip-path="url(#clipPath8)" stroke="none">int</text>
    </g>
    <g text-rendering="geometricPrecision" shape-rendering="geometricPrecision" transform="matrix(1,0,0,1,15.6746,15.0625)">
      <g clip-path="url(#clipPath19)">
        <svg xmlns:svg="http://www.w3.org/2000/svg" xmlns:sodipodi="http://sodipodi.sourceforge.net/DTD/sodipodi-0.dtd" xmlns:inkscape="http://www.inkscape.org/namespaces/inkscape" xmlns:dc="http://purl.org/dc/elements/1.1/" xmlns:cc="http://creativecommons.org/ns#" xmlns:rdf="http://www.w3.org/1999/02/22-rdf-syntax-ns#" opacity="1" writing-mode="lr-tb" stop-color="rgb(0, 0, 0)" shape-rendering="auto" glyph-orientation-horizontal="0deg" color-profile="auto" lighting-color="rgb(255, 255, 255)" color="rgb(0, 0, 0)" font-weight="400" alignment-baseline="auto" font-style="normal" version="1.1" color-interpolation-filters="linearrgb" text-anchor="start" stroke-linecap="butt" color-interpolation="srgb" font-variant="normal" word-spacing="normal" fill-opacity="1" text-rendering="auto" clip-path="none" text-decoration="none" letter-spacing="normal" viewBox="0 0 30.157257 26.152401" glyph-orientation-vertical="auto" display="inline" font-size-adjust="none" overflow="hidden" fill="rgb(0, 0, 0)" font-stretch="normal" stroke-dasharray="none" inkscape:version="0.92.5 (2060ec1f9f, 2020-04-08)" id="svg1.svg8" stroke-miterlimit="4" stop-opacity="1" color-rendering="auto" font-size="12" pointer-events="visiblepainted" mask="none" direction="ltr" baseline-shift="baseline" sodipodi:docname="yed_regular_hexagon.svg" enable-background="accumulate" fill-rule="nonzero" image-rendering="auto" stroke-dashoffset="0" marker-end="none" width="30.157257mm" clip="auto" cursor="auto" stroke="none" filter="none" visibility="visible" kerning="auto" stroke-width="1" font-family="&quot;Arial&quot;,&quot;Helvetica&quot;,sans-serif" flood-opacity="1" clip-rule="nonzero" src="none" height="26.152401mm" unicode-bidi="normal" stroke-linejoin="miter" stroke-opacity="1" flood-color="rgb(0, 0, 0)" dominant-baseline="auto" marker-start="none" marker-mid="none">
            
          <defs id="svg1.defs2">
            <clipPath clipPathUnits="userSpaceOnUse" id="clipPath1">
              <path d="M0 0 L830 0 L830 477 L0 477 L0 0 Z"/>
            </clipPath>
            <clipPath clipPathUnits="userSpaceOnUse" id="clipPath2">
              <path d="M-42 -15 L788 -15 L788 462 L-42 462 L-42 -15 Z"/>
            </clipPath>
            <clipPath clipPathUnits="userSpaceOnUse" id="clipPath3">
              <path d="M668 108 L668 234 L771 234 L771 108 Z"/>
            </clipPath>
            <clipPath clipPathUnits="userSpaceOnUse" id="clipPath4">
              <path d="M-42 38.5156 L-42 462 L788 462 L788 38.5156 Z"/>
            </clipPath>
            <clipPath clipPathUnits="userSpaceOnUse" id="clipPath5">
              <path d="M-42 -15 L-42 38.5156 L788 38.5156 L788 -15 Z"/>
            </clipPath>
            <clipPath clipPathUnits="userSpaceOnUse" id="clipPath6">
              <path d="M-42 25.9688 L-42 462 L788 462 L788 25.9688 Z"/>
            </clipPath>
            <clipPath clipPathUnits="userSpaceOnUse" id="clipPath7">
              <path d="M-42 -15 L-42 25.9688 L788 25.9688 L788 -15 Z"/>
            </clipPath>
            <clipPath clipPathUnits="userSpaceOnUse" id="clipPath8">
              <path d="M0 0 L0 67 L129 67 L129 0 Z"/>
            </clipPath>
            <clipPath clipPathUnits="userSpaceOnUse" id="clipPath9">
              <path d="M-1 -1 L0 0 L44 0 L45 -1 Z"/>
            </clipPath>
            <clipPath clipPathUnits="userSpaceOnUse" id="clipPath10">
              <path d="M-1 -1 L0 0 L21 0 L22 -1 L-1 -1 Z"/>
            </clipPath>
            <clipPath clipPathUnits="userSpaceOnUse" id="clipPath11">
              <path d="M44 0 L45 -1 L-1 -1 L0 0 Z"/>
            </clipPath>
            <clipPath clipPathUnits="userSpaceOnUse" id="clipPath12">
              <path d="M22 -1 L-1 -1 L0 0 L21 0 L22 -1 Z"/>
            </clipPath>
            <clipPath clipPathUnits="userSpaceOnUse" id="clipPath13">
              <path d="M0 -1 L0 0 L46 0 L47 -1 Z"/>
            </clipPath>
            <clipPath clipPathUnits="userSpaceOnUse" id="clipPath14">
              <path d="M46 0 L46 -1 L-1 -1 L0 0 Z"/>
            </clipPath>
            <clipPath clipPathUnits="userSpaceOnUse" id="clipPath15">
              <path d="M0 -1 L0 0 L35 0 L36 -1 Z"/>
            </clipPath>
            <clipPath clipPathUnits="userSpaceOnUse" id="clipPath16">
              <path d="M35 0 L35 -1 L-1 -1 L0 0 Z"/>
            </clipPath>
            <clipPath clipPathUnits="userSpaceOnUse" id="clipPath17">
              <path d="M0 0 L21 0 L22 -1 L0 -1 Z"/>
            </clipPath>
            <clipPath clipPathUnits="userSpaceOnUse" id="clipPath18">
              <path d="M21 -1 L-1 -1 L0 0 L21 0 Z"/>
            </clipPath>
            <clipPath clipPathUnits="userSpaceOnUse" id="clipPath19">
              <path d="M-15.6746 -15.0625 L814.3254 -15.0625 L814.3254 461.9375 L-15.6746 461.9375 L-15.6746 -15.0625 Z"/>
            </clipPath>
          </defs>
            
  
          <metadata id="svg1.metadata5">
    
  </metadata>
            
          <g inkscape:groupmode="layer" id="svg1.layer1" transform="translate(-44.255207,-28.948671)" inkscape:label="Calque 1">
                
            <path d="M 74.280174,42.024872 66.807005,54.968781 H 51.860666 L 44.387497,42.024872 51.860666,29.080963 h 14.946339 z" id="svg1.path815" inkscape:connector-curvature="0" style="opacity:1;fill:none;fill-opacity:1;fill-rule:evenodd;stroke:#000000;stroke-width:0.26458332;stroke-linecap:round;stroke-linejoin:round;stroke-miterlimit:4;stroke-dasharray:none;stroke-dashoffset:0;stroke-opacity:1"/>
              
          </g>
          
        </svg>
      </g>
    </g>
    <g text-rendering="geometricPrecision" stroke-miterlimit="1.45" shape-rendering="geometricPrecision" font-family="sans-serif" transform="matrix(1,0,0,1,42,15)" stroke-linecap="butt">
      <text x="3.8375" xml:space="preserve" y="53.6387" clip-path="url(#clipPath2)" stroke="none">SvgNode</text>
      <path fill="none" d="M532.8595 64.4844 L532.8595 149.3297" clip-path="url(#clipPath2)"/>
      <path d="M532.8595 157.3297 L537.8595 145.3297 L532.8595 148.3297 L527.8595 145.3297 Z" clip-path="url(#clipPath2)" stroke="none"/>
    </g>
    <g stroke-linecap="round" transform="matrix(1,0,0,1,42,15)" stroke-dashoffset="2" fill="blue" text-rendering="geometricPrecision" shape-rendering="geometricPrecision" stroke-dasharray="0,12" stroke="blue" stroke-width="3" stroke-miterlimit="1.45">
      <path fill="none" d="M564.8888 172.375 L660.1111 172.375" clip-path="url(#clipPath2)"/>
      <path d="M554.8888 172.375 L569.8888 178.625 L566.1388 172.375 L569.8888 166.125 Z" clip-path="url(#clipPath2)" stroke="none"/>
      <path fill="white" d="M668.8611 172.375 L660.1111 178.625 L651.3611 172.375 L660.1111 166.125 Z" clip-path="url(#clipPath2)" stroke="none"/>
    </g>
    <g stroke-linecap="butt" transform="matrix(1,0,0,1,42,15)" fill="blue" text-rendering="geometricPrecision" shape-rendering="geometricPrecision" stroke="blue" stroke-miterlimit="1.45">
      <path fill="none" d="M668.8611 172.375 L660.1111 178.625 L651.3611 172.375 L660.1111 166.125 Z" clip-path="url(#clipPath2)"/>
      <text x="592.6321" y="176.5293" clip-path="url(#clipPath2)" fill="black" font-family="sans-serif" stroke="none" xml:space="preserve">EDGE!</text>
    </g>
    <g transform="matrix(1,0,0,1,42,15)" fill-opacity="0.502" fill="rgb(202,236,255)" text-rendering="geometricPrecision" shape-rendering="geometricPrecision" stroke="rgb(202,236,255)" stroke-opacity="0.502">
      <rect x="408.7734" width="219.219" height="195.7812" y="250.7812" clip-path="url(#clipPath2)" stroke="none"/>
    </g>
    <g fill="rgb(153,204,255)" text-rendering="geometricPrecision" shape-rendering="geometricPrecision" transform="matrix(1,0,0,1,42,15)" stroke="rgb(153,204,255)">
      <rect x="408.7734" width="219.219" height="17.9688" y="250.7812" clip-path="url(#clipPath2)" stroke="none"/>
    </g>
    <g text-rendering="geometricPrecision" stroke-miterlimit="1.45" shape-rendering="geometricPrecision" font-family="sans-serif" transform="matrix(1,0,0,1,42,15)" stroke-linecap="butt">
      <text x="488.1427" xml:space="preserve" y="263.9199" clip-path="url(#clipPath2)" stroke="none">MY_Group</text>
    </g>
    <g transform="matrix(1,0,0,1,42,15)" fill-opacity="0.502" fill="rgb(255,255,255)" text-rendering="geometricPrecision" shape-rendering="geometricPrecision" stroke="rgb(255,255,255)" stroke-opacity="0.502">
      <rect x="408.7734" width="1" height="195.7812" y="250.7812" clip-path="url(#clipPath2)" stroke="none"/>
      <rect x="409.7734" width="217.219" height="1" y="250.7812" clip-path="url(#clipPath2)" stroke="none"/>
      <rect x="409.7734" y="445.5625" clip-path="url(#clipPath2)" fill="rgb(141,165,178)" width="218.219" height="1" stroke="none"/>
      <rect x="626.9925" y="250.7812" clip-path="url(#clipPath2)" fill="rgb(141,165,178)" width="1" height="194.7812" stroke="none"/>
    </g>
    <g fill="white" text-rendering="geometricPrecision" shape-rendering="geometricPrecision" transform="matrix(1,0,0,1,42,15)" stroke="white">
      <rect x="496.3536" y="283.75" clip-path="url(#clipPath2)" width="44.0586" rx="4" ry="4" height="30" stroke="none"/>
    </g>
    <g stroke-linecap="butt" transform="matrix(1,0,0,1,42,15)" text-rendering="geometricPrecision" font-family="sans-serif" shape-rendering="geometricPrecision" font-style="italic" font-weight="bold" stroke-miterlimit="1.45">
      <text x="503.3536" xml:space="preserve" y="302.9043" clip-path="url(#clipPath2)" stroke="none">foo4</text>
      <line y2="305.7344" fill="none" x1="503.3536" clip-path="url(#clipPath2)" x2="533.4122" y1="305.7344"/>
      <rect x="496.3536" y="283.75" clip-path="url(#clipPath2)" fill="none" width="44.0586" rx="4" ry="4" height="30"/>
    </g>
    <g fill="white" text-rendering="geometricPrecision" shape-rendering="geometricPrecision" transform="matrix(1,0,0,1,42,15)" stroke="white">
      <rect x="423.7736" width="189.2188" height="97.8125" y="333.75" clip-path="url(#clipPath2)" stroke="none"/>
    </g>
    <g font-size="72px" stroke-linecap="butt" transform="matrix(1,0,0,1,42,15)" text-rendering="geometricPrecision" font-family="sans-serif" shape-rendering="geometricPrecision" stroke-miterlimit="1.45">
      <text x="430.7736" xml:space="preserve" y="407.582" clip-path="url(#clipPath2)" stroke="none">abc2</text>
      <rect fill="none" x="423.7736" width="189.2188" height="97.8125" y="333.75" clip-path="url(#clipPath2)"/>
      <path fill="none" d="M532.8595 187.375 L532.8595 242.7503" clip-path="url(#clipPath2)"/>
      <path d="M532.8595 250.7503 L537.8595 238.7503 L532.8595 241.7503 L527.8595 238.7503 Z" stroke="none" clip-path="url(#clipPath2)"/>
      <path fill="none" d="M518.3829 313.75 L518.3829 325.7109" clip-path="url(#clipPath2)"/>
      <path d="M518.3829 333.7109 L523.3829 321.7109 L518.3829 324.7109 L513.3829 321.7109 Z" stroke="none" clip-path="url(#clipPath2)"/>
    </g>
  </g>
</svg>
