<?xml version="1.0" encoding="UTF-8"?><svg xmlns="http://www.w3.org/2000/svg" xmlns:xlink="http://www.w3.org/1999/xlink" fill-opacity="1" color-rendering="auto" color-interpolation="auto" text-rendering="auto" stroke="black" stroke-linecap="square" width="839" stroke-miterlimit="10" shape-rendering="auto" stroke-opacity="1" fill="black" stroke-dasharray="none" font-weight="normal" stroke-width="1" height="808" font-family="'Dialog'" font-style="normal" stroke-linejoin="miter" font-size="12px" stroke-dashoffset="0" image-rendering="auto">
  <!--Generated by ySVG 2.6-->
  <defs id="genericDefs"/>
  <g>
    <defs id="defs1">
      <clipPath clipPathUnits="userSpaceOnUse" id="clipPath1">
        <path d="M0 0 L839 0 L839 808 L0 808 L0 0 Z"/>
      </clipPath>
      <clipPath clipPathUnits="userSpaceOnUse" id="clipPath2">
        <path d="M-420 -405 L419 -405 L419 403 L-420 403 L-420 -405 Z"/>
      </clipPath>
      <clipPath clipPathUnits="userSpaceOnUse" id="clipPath3">
        <path d="M-547.8802 -506.6546 L178.715 -926.1546 L582.715 -226.4061 L-143.8803 193.0939 L-547.8802 -506.6546 Z"/>
      </clipPath>
      <clipPath clipPathUnits="userSpaceOnUse" id="clipPath4">
        <path d="M-798.1187 -111.9365 L-378.6187 -838.5318 L321.1299 -434.5318 L-98.3702 292.0635 L-798.1187 -111.9365 Z"/>
      </clipPath>
      <clipPath clipPathUnits="userSpaceOnUse" id="clipPath5">
        <path d="M-768.1247 388.0529 L-768.1247 -450.9471 L39.8753 -450.9471 L39.8753 388.0529 L-768.1247 388.0529 Z"/>
      </clipPath>
    </defs>
    <g fill="white" text-rendering="geometricPrecision" shape-rendering="geometricPrecision" transform="translate(420,405)" stroke="white">
      <rect x="-420" width="839" height="808" y="-405" clip-path="url(#clipPath2)" stroke="none"/>
    </g>
    <g fill="white" text-rendering="geometricPrecision" shape-rendering="geometricPrecision" transform="matrix(1,0,0,1,420,405)" stroke="white">
      <rect x="118.1414" width="100" height="30" y="93.2981" clip-path="url(#clipPath2)" stroke="none"/>
    </g>
    <g text-rendering="geometricPrecision" stroke-miterlimit="1.45" shape-rendering="geometricPrecision" font-family="sans-serif" transform="matrix(1,0,0,1,420,405)" stroke-linecap="butt">
      <text x="137.8279" xml:space="preserve" y="112.4524" clip-path="url(#clipPath2)" stroke="none">alignment</text>
      <rect fill="none" x="118.1414" width="100" height="30" y="93.2981" clip-path="url(#clipPath2)"/>
    </g>
    <g fill="white" text-rendering="geometricPrecision" shape-rendering="geometricPrecision" transform="matrix(1,0,0,1,420,405)" stroke="white">
      <rect x="233.6899" width="60" height="30" y="251.632" clip-path="url(#clipPath2)" stroke="none"/>
      <rect x="233.6899" y="251.632" clip-path="url(#clipPath2)" fill="none" width="60" height="30" stroke="red" stroke-miterlimit="1.6"/>
    </g>
    <g text-rendering="geometricPrecision" stroke-miterlimit="1.45" shape-rendering="geometricPrecision" font-family="sans-serif" transform="matrix(1,0,0,1,420,405)" stroke-linecap="butt">
      <text x="235.6899" xml:space="preserve" y="264.7707" clip-path="url(#clipPath2)" stroke="none">left</text>
      <rect fill="none" x="233.6899" width="60" height="30" y="251.632" clip-path="url(#clipPath2)"/>
    </g>
    <g fill="white" text-rendering="geometricPrecision" shape-rendering="geometricPrecision" transform="matrix(1,0,0,1,420,405)" stroke="white">
      <rect x="285.2651" width="60" height="30" y="188.0589" clip-path="url(#clipPath2)" stroke="none"/>
      <rect x="285.2651" y="188.0589" clip-path="url(#clipPath2)" fill="none" width="60" height="30" stroke="red" stroke-miterlimit="1.6"/>
    </g>
    <g text-rendering="geometricPrecision" stroke-miterlimit="1.45" shape-rendering="geometricPrecision" font-family="sans-serif" transform="matrix(1,0,0,1,420,405)" stroke-linecap="butt">
      <text x="295.9614" xml:space="preserve" y="201.1976" clip-path="url(#clipPath2)" stroke="none">center</text>
      <rect fill="none" x="285.2651" width="60" height="30" y="188.0589" clip-path="url(#clipPath2)"/>
    </g>
    <g fill="white" text-rendering="geometricPrecision" shape-rendering="geometricPrecision" transform="matrix(1,0,0,1,420,405)" stroke="white">
      <rect x="321.8162" width="60" height="30" y="114.8089" clip-path="url(#clipPath2)" stroke="none"/>
      <rect x="321.8162" y="114.8089" clip-path="url(#clipPath2)" fill="none" width="60" height="30" stroke="red" stroke-miterlimit="1.6"/>
    </g>
    <g text-rendering="geometricPrecision" stroke-miterlimit="1.45" shape-rendering="geometricPrecision" font-family="sans-serif" transform="matrix(1,0,0,1,420,405)" stroke-linecap="butt">
      <text x="351.6209" xml:space="preserve" y="127.9476" clip-path="url(#clipPath2)" stroke="none">right</text>
      <rect fill="none" x="321.8162" width="60" height="30" y="114.8089" clip-path="url(#clipPath2)"/>
    </g>
    <g fill="white" text-rendering="geometricPrecision" shape-rendering="geometricPrecision" transform="matrix(1,0,0,1,420,405)" stroke="white">
      <rect x="145.8672" width="100" height="30" y="-55.4482" clip-path="url(#clipPath2)" stroke="none"/>
    </g>
    <g text-rendering="geometricPrecision" stroke-miterlimit="1.45" shape-rendering="geometricPrecision" font-family="sans-serif" transform="matrix(1,0,0,1,420,405)" stroke-linecap="butt">
      <text x="168.8584" xml:space="preserve" y="-36.2939" clip-path="url(#clipPath2)" stroke="none">fontStyle</text>
      <rect fill="none" x="145.8672" width="100" height="30" y="-55.4482" clip-path="url(#clipPath2)"/>
    </g>
    <g fill="white" text-rendering="geometricPrecision" shape-rendering="geometricPrecision" transform="matrix(1,0,0,1,420,405)" stroke="white">
      <rect x="341.6092" width="60" height="30" y="35.3153" clip-path="url(#clipPath2)" stroke="none"/>
    </g>
    <g text-rendering="geometricPrecision" stroke-miterlimit="1.45" shape-rendering="geometricPrecision" font-family="sans-serif" transform="matrix(1,0,0,1,420,405)" stroke-linecap="butt">
      <text x="356.9871" xml:space="preserve" y="54.4696" clip-path="url(#clipPath2)" stroke="none">plain</text>
      <rect fill="none" x="341.6092" width="60" height="30" y="35.3153" clip-path="url(#clipPath2)"/>
    </g>
    <g fill="white" text-rendering="geometricPrecision" shape-rendering="geometricPrecision" transform="matrix(1,0,0,1,420,405)" stroke="white">
      <rect x="343.6631" width="60" height="30" y="-46.6374" clip-path="url(#clipPath2)" stroke="none"/>
    </g>
    <g stroke-linecap="butt" transform="matrix(1,0,0,1,420,405)" text-rendering="geometricPrecision" font-family="sans-serif" shape-rendering="geometricPrecision" font-weight="bold" stroke-miterlimit="1.45">
      <text x="358.8945" xml:space="preserve" y="-27.4831" clip-path="url(#clipPath2)" stroke="none">bold</text>
      <rect fill="none" x="343.6631" width="60" height="30" y="-46.6374" clip-path="url(#clipPath2)"/>
    </g>
    <g fill="white" text-rendering="geometricPrecision" shape-rendering="geometricPrecision" transform="matrix(1,0,0,1,420,405)" stroke="white">
      <rect x="327.8596" width="60" height="30" y="-127.0781" clip-path="url(#clipPath2)" stroke="none"/>
    </g>
    <g stroke-linecap="butt" transform="matrix(1,0,0,1,420,405)" text-rendering="geometricPrecision" font-family="sans-serif" shape-rendering="geometricPrecision" font-style="italic" stroke-miterlimit="1.45">
      <text x="343.5305" xml:space="preserve" y="-107.9238" clip-path="url(#clipPath2)" stroke="none">italic</text>
      <rect fill="none" x="327.8596" width="60" height="30" y="-127.0781" clip-path="url(#clipPath2)"/>
    </g>
    <g fill="white" text-rendering="geometricPrecision" shape-rendering="geometricPrecision" transform="matrix(1,0,0,1,420,405)" stroke="white">
      <rect x="293.1318" width="60" height="30" y="-205.2914" clip-path="url(#clipPath2)" stroke="none"/>
    </g>
    <g stroke-linecap="butt" transform="matrix(1,0,0,1,420,405)" text-rendering="geometricPrecision" font-family="sans-serif" shape-rendering="geometricPrecision" font-style="italic" font-weight="bold" stroke-miterlimit="1.45">
      <text x="291.7197" xml:space="preserve" y="-186.1371" clip-path="url(#clipPath2)" stroke="none">bolditalic</text>
      <rect fill="none" x="293.1318" width="60" height="30" y="-205.2914" clip-path="url(#clipPath2)"/>
    </g>
    <g fill="white" text-rendering="geometricPrecision" shape-rendering="geometricPrecision" transform="matrix(1,0,0,1,420,405)" stroke="white">
      <rect x="65.3997" width="100" height="30" y="-178.3491" clip-path="url(#clipPath2)" stroke="none"/>
    </g>
    <g text-rendering="geometricPrecision" stroke-miterlimit="1.45" shape-rendering="geometricPrecision" font-family="sans-serif" transform="matrix(1,0,0,1,420,405)" stroke-linecap="butt">
      <text x="69.9309" xml:space="preserve" y="-159.1948" clip-path="url(#clipPath2)" stroke="none">underlinedText</text>
      <rect fill="none" x="65.3997" width="100" height="30" y="-178.3491" clip-path="url(#clipPath2)"/>
    </g>
    <g fill="white" text-rendering="geometricPrecision" shape-rendering="geometricPrecision" transform="matrix(1,0,0,1,420,405)" stroke="white">
      <rect x="230.3027" width="60" height="30" y="-284.9398" clip-path="url(#clipPath2)" stroke="none"/>
    </g>
    <g text-rendering="geometricPrecision" stroke-miterlimit="1.45" shape-rendering="geometricPrecision" font-family="sans-serif" transform="matrix(1,0,0,1,420,405)" stroke-linecap="butt">
      <text x="247.9892" xml:space="preserve" y="-265.7855" clip-path="url(#clipPath2)" stroke="none">true</text>
      <line y2="-262.9554" fill="none" x1="247.9892" clip-path="url(#clipPath2)" x2="272.6162" y1="-262.9554"/>
      <rect fill="none" x="230.3027" width="60" height="30" y="-284.9398" clip-path="url(#clipPath2)"/>
    </g>
    <g fill="white" text-rendering="geometricPrecision" shape-rendering="geometricPrecision" transform="matrix(1,0,0,1,420,405)" stroke="white">
      <rect x="137.4449" width="60" height="30" y="-350.5402" clip-path="url(#clipPath2)" stroke="none"/>
    </g>
    <g text-rendering="geometricPrecision" stroke-miterlimit="1.45" shape-rendering="geometricPrecision" font-family="sans-serif" transform="matrix(1,0,0,1,420,405)" stroke-linecap="butt">
      <text x="153.1715" xml:space="preserve" y="-331.3859" clip-path="url(#clipPath2)" stroke="none">false</text>
      <rect fill="none" x="137.4449" width="60" height="30" y="-350.5402" clip-path="url(#clipPath2)"/>
    </g>
    <g fill="white" text-rendering="geometricPrecision" shape-rendering="geometricPrecision" transform="matrix(1,0,0,1,420,405)" stroke="white">
      <rect x="-53.4819" width="100" height="30" y="-214.9697" clip-path="url(#clipPath2)" stroke="none"/>
    </g>
    <g text-rendering="geometricPrecision" stroke-miterlimit="1.45" shape-rendering="geometricPrecision" font-family="sans-serif" transform="matrix(1,0,0,1,420,405)" stroke-linecap="butt">
      <text x="-29.975" xml:space="preserve" y="-195.8154" clip-path="url(#clipPath2)" stroke="none">lineColor</text>
      <rect fill="none" x="-53.4819" width="100" height="30" y="-214.9697" clip-path="url(#clipPath2)"/>
    </g>
    <g fill="white" text-rendering="geometricPrecision" shape-rendering="geometricPrecision" transform="matrix(1,0,0,1,420,405)" stroke="white">
      <rect x="44.9886" width="60" height="30" y="-382.4258" clip-path="url(#clipPath2)" stroke="none"/>
    </g>
    <g text-rendering="geometricPrecision" stroke-miterlimit="1.45" shape-rendering="geometricPrecision" font-family="sans-serif" transform="matrix(1,0,0,1,420,405)" stroke-linecap="butt">
      <text x="59.3353" xml:space="preserve" y="-363.2715" clip-path="url(#clipPath2)" stroke="none">None</text>
      <rect fill="none" x="44.9886" width="60" height="30" y="-382.4258" clip-path="url(#clipPath2)"/>
    </g>
    <g fill="white" text-rendering="geometricPrecision" shape-rendering="geometricPrecision" transform="matrix(1,0,0,1,420,405)" stroke="white">
      <rect x="-36.5285" width="60" height="30" y="-389.9432" clip-path="url(#clipPath2)" stroke="none"/>
      <rect x="-36.4601" y="-383.9275" clip-path="url(#clipPath2)" fill="none" width="59.8633" height="17.9688" stroke="black" stroke-miterlimit="1.6"/>
    </g>
    <g text-rendering="geometricPrecision" stroke-miterlimit="1.45" shape-rendering="geometricPrecision" font-family="sans-serif" transform="matrix(1,0,0,1,420,405)" stroke-linecap="butt">
      <text x="-34.4601" xml:space="preserve" y="-370.7889" clip-path="url(#clipPath2)" stroke="none">#000000</text>
      <rect fill="none" x="-36.5285" width="60" height="30" y="-389.9432" clip-path="url(#clipPath2)"/>
    </g>
    <g fill="white" text-rendering="geometricPrecision" shape-rendering="geometricPrecision" transform="matrix(1,0,0,1,420,405)" stroke="white">
      <rect x="-117.7344" width="60" height="30" y="-379.5925" clip-path="url(#clipPath2)" stroke="none"/>
      <rect x="-116.9337" y="-373.5768" clip-path="url(#clipPath2)" fill="none" width="58.3984" height="17.9688" stroke="red" stroke-miterlimit="1.6"/>
    </g>
    <g text-rendering="geometricPrecision" stroke-miterlimit="1.45" shape-rendering="geometricPrecision" font-family="sans-serif" transform="matrix(1,0,0,1,420,405)" stroke-linecap="butt">
      <text x="-114.9337" xml:space="preserve" y="-360.4382" clip-path="url(#clipPath2)" stroke="none">#FF0000</text>
      <rect fill="none" x="-117.7344" width="60" height="30" y="-379.5925" clip-path="url(#clipPath2)"/>
    </g>
    <g fill="white" text-rendering="geometricPrecision" shape-rendering="geometricPrecision" transform="matrix(1,0,0,1,420,405)" stroke="white">
      <rect x="-174.7641" width="100" height="30" y="-171.3136" clip-path="url(#clipPath2)" stroke="none"/>
    </g>
    <g text-rendering="geometricPrecision" stroke-miterlimit="1.45" shape-rendering="geometricPrecision" font-family="sans-serif" transform="matrix(1,0,0,1,420,405)" stroke-linecap="butt">
      <text x="-176.0482" xml:space="preserve" y="-152.1593" clip-path="url(#clipPath2)" stroke="none">backgroundColor</text>
      <rect fill="none" x="-174.7641" width="100" height="30" y="-171.3136" clip-path="url(#clipPath2)"/>
    </g>
    <g fill="white" text-rendering="geometricPrecision" shape-rendering="geometricPrecision" transform="matrix(1,0,0,1,420,405)" stroke="white">
      <rect x="-194.7594" width="60" height="30" y="-351.867" clip-path="url(#clipPath2)" stroke="none"/>
    </g>
    <g text-rendering="geometricPrecision" stroke-miterlimit="1.45" shape-rendering="geometricPrecision" font-family="sans-serif" transform="matrix(1,0,0,1,420,405)" stroke-linecap="butt">
      <text x="-180.4127" xml:space="preserve" y="-332.7127" clip-path="url(#clipPath2)" stroke="none">None</text>
      <rect fill="none" x="-194.7594" width="60" height="30" y="-351.867" clip-path="url(#clipPath2)"/>
    </g>
    <g fill="white" text-rendering="geometricPrecision" shape-rendering="geometricPrecision" transform="matrix(1,0,0,1,420,405)" stroke="white">
      <rect x="-263.9326" width="60" height="30" y="-308.0879" clip-path="url(#clipPath2)" stroke="none"/>
      <rect x="-263.1318" y="-302.0723" clip-path="url(#clipPath2)" fill="lime" width="58.3984" height="17.9688" stroke="none"/>
    </g>
    <g text-rendering="geometricPrecision" stroke-miterlimit="1.45" shape-rendering="geometricPrecision" font-family="sans-serif" transform="matrix(1,0,0,1,420,405)" stroke-linecap="butt">
      <text x="-261.1318" xml:space="preserve" y="-288.9336" clip-path="url(#clipPath2)" stroke="none">#00FF00</text>
      <rect fill="none" x="-263.9326" width="60" height="30" y="-308.0879" clip-path="url(#clipPath2)"/>
    </g>
    <g fill="white" text-rendering="geometricPrecision" shape-rendering="geometricPrecision" transform="matrix(1,0,0,1,420,405)" stroke="white">
      <rect x="-321.9577" width="60" height="30" y="-250.3416" clip-path="url(#clipPath2)" stroke="none"/>
      <rect x="-321.1569" y="-244.326" clip-path="url(#clipPath2)" fill="red" width="58.3984" height="17.9688" stroke="none"/>
    </g>
    <g text-rendering="geometricPrecision" stroke-miterlimit="1.45" shape-rendering="geometricPrecision" font-family="sans-serif" transform="matrix(1,0,0,1,420,405)" stroke-linecap="butt">
      <text x="-319.157" xml:space="preserve" y="-231.1873" clip-path="url(#clipPath2)" stroke="none">#FF0000</text>
      <rect fill="none" x="-321.9577" width="60" height="30" y="-250.3416" clip-path="url(#clipPath2)"/>
    </g>
    <g fill="white" text-rendering="geometricPrecision" shape-rendering="geometricPrecision" transform="matrix(1,0,0,1,420,405)" stroke="white">
      <rect x="-244.2217" width="100" height="30" y="-62.7278" clip-path="url(#clipPath2)" stroke="none"/>
    </g>
    <g text-rendering="geometricPrecision" stroke-miterlimit="1.45" shape-rendering="geometricPrecision" font-family="sans-serif" transform="matrix(1,0,0,1,420,405)" stroke-linecap="butt">
      <text x="-221.834" xml:space="preserve" y="-43.5735" clip-path="url(#clipPath2)" stroke="none">textColor</text>
      <rect fill="none" x="-244.2217" width="100" height="30" y="-62.7278" clip-path="url(#clipPath2)"/>
    </g>
    <g fill="white" text-rendering="geometricPrecision" shape-rendering="geometricPrecision" transform="matrix(1,0,0,1,420,405)" stroke="white">
      <rect x="-366.0695" width="60" height="30" y="-181.3801" clip-path="url(#clipPath2)" stroke="none"/>
    </g>
    <g text-rendering="geometricPrecision" stroke-miterlimit="1.45" shape-rendering="geometricPrecision" font-family="sans-serif" transform="matrix(1,0,0,1,420,405)" stroke-linecap="butt">
      <text x="-351.7228" xml:space="preserve" y="-162.2258" clip-path="url(#clipPath2)" stroke="none">None</text>
      <rect fill="none" x="-366.0695" width="60" height="30" y="-181.3801" clip-path="url(#clipPath2)"/>
    </g>
    <g fill="white" text-rendering="geometricPrecision" shape-rendering="geometricPrecision" transform="matrix(1,0,0,1,420,405)" stroke="white">
      <rect x="-394.1656" width="60" height="30" y="-104.4896" clip-path="url(#clipPath2)" stroke="none"/>
    </g>
    <g stroke-linecap="butt" transform="matrix(1,0,0,1,420,405)" fill="lime" text-rendering="geometricPrecision" font-family="sans-serif" shape-rendering="geometricPrecision" stroke="lime" stroke-miterlimit="1.45">
      <text x="-391.3649" xml:space="preserve" y="-85.3353" clip-path="url(#clipPath2)" stroke="none">#00FF00</text>
      <rect x="-394.1656" y="-104.4896" clip-path="url(#clipPath2)" fill="none" width="60" height="30" stroke="black"/>
    </g>
    <g fill="white" text-rendering="geometricPrecision" shape-rendering="geometricPrecision" transform="matrix(1,0,0,1,420,405)" stroke="white">
      <rect x="-404.9074" width="60" height="30" y="-23.3344" clip-path="url(#clipPath2)" stroke="none"/>
    </g>
    <g stroke-linecap="butt" transform="matrix(1,0,0,1,420,405)" fill="red" text-rendering="geometricPrecision" font-family="sans-serif" shape-rendering="geometricPrecision" stroke="red" stroke-miterlimit="1.45">
      <text x="-402.1066" xml:space="preserve" y="-4.1801" clip-path="url(#clipPath2)" stroke="none">#FF0000</text>
      <rect x="-404.9074" y="-23.3344" clip-path="url(#clipPath2)" fill="none" width="60" height="30" stroke="black"/>
    </g>
    <g fill="white" text-rendering="geometricPrecision" shape-rendering="geometricPrecision" transform="matrix(1,0,0,1,420,405)" stroke="white">
      <rect x="-234.8679" width="100" height="30" y="61.3141" clip-path="url(#clipPath2)" stroke="none"/>
    </g>
    <g text-rendering="geometricPrecision" stroke-miterlimit="1.45" shape-rendering="geometricPrecision" font-family="sans-serif" transform="matrix(1,0,0,1,420,405)" stroke-linecap="butt">
      <text x="-216.6638" xml:space="preserve" y="80.4684" clip-path="url(#clipPath2)" stroke="none">fontFamily</text>
      <rect fill="none" x="-234.8679" width="100" height="30" y="61.3141" clip-path="url(#clipPath2)"/>
    </g>
    <g fill="white" text-rendering="geometricPrecision" shape-rendering="geometricPrecision" transform="matrix(1,0,0,1,420,405)" stroke="white">
      <rect x="-394.3124" width="60" height="30" y="73.8901" clip-path="url(#clipPath2)" stroke="none"/>
    </g>
    <g text-rendering="geometricPrecision" stroke-miterlimit="1.45" shape-rendering="geometricPrecision" font-family="sans-serif" transform="matrix(1,0,0,1,420,405)" stroke-linecap="butt">
      <text x="-383.4228" xml:space="preserve" y="93.0444" clip-path="url(#clipPath2)" stroke="none">Dialog</text>
      <rect fill="none" x="-394.3124" width="60" height="30" y="73.8901" clip-path="url(#clipPath2)"/>
    </g>
    <g fill="white" text-rendering="geometricPrecision" shape-rendering="geometricPrecision" transform="matrix(1,0,0,1,420,405)" stroke="white">
      <rect x="-350.9307" width="60" height="30" y="178.9806" clip-path="url(#clipPath2)" stroke="none"/>
    </g>
    <g text-rendering="geometricPrecision" stroke-miterlimit="1.45" shape-rendering="geometricPrecision" font-family="'Courier'" transform="matrix(1,0,0,1,420,405)" stroke-linecap="butt">
      <text x="-346.1309" xml:space="preserve" y="197.2986" clip-path="url(#clipPath2)" stroke="none">Courier</text>
      <rect fill="none" x="-350.9307" width="60" height="30" y="178.9806" clip-path="url(#clipPath2)"/>
    </g>
    <g fill="white" text-rendering="geometricPrecision" shape-rendering="geometricPrecision" transform="matrix(1,0,0,1,420,405)" stroke="white">
      <rect x="-134.7306" width="100" height="30" y="166.1649" clip-path="url(#clipPath2)" stroke="none"/>
    </g>
    <g text-rendering="geometricPrecision" stroke-miterlimit="1.45" shape-rendering="geometricPrecision" font-family="sans-serif" transform="matrix(1,0,0,1,420,405)" stroke-linecap="butt">
      <text x="-125.4649" xml:space="preserve" y="185.3192" clip-path="url(#clipPath2)" stroke="none">rotationAngle</text>
      <rect fill="none" x="-134.7306" width="100" height="30" y="166.1649" clip-path="url(#clipPath2)"/>
    </g>
    <g fill="white" text-rendering="geometricPrecision" shape-rendering="geometricPrecision" transform="matrix(1,0,0,1,420,405)" stroke="white">
      <rect x="-289.8581" width="60" height="30" y="255.3678" clip-path="url(#clipPath2)" stroke="none"/>
    </g>
    <g text-rendering="geometricPrecision" stroke-miterlimit="1.45" shape-rendering="geometricPrecision" font-family="sans-serif" transform="matrix(1,0,0,1,420,405)" stroke-linecap="butt">
      <text x="-263.6755" xml:space="preserve" y="274.5221" clip-path="url(#clipPath2)" stroke="none">0</text>
      <rect fill="none" x="-289.8581" width="60" height="30" y="255.3678" clip-path="url(#clipPath2)"/>
    </g>
    <g fill="white" text-rendering="geometricPrecision" shape-rendering="geometricPrecision" transform="matrix(1,0,0,1,420,405)" stroke="white">
      <rect x="-224.9973" width="60" height="30" y="305.314" clip-path="url(#clipPath2)" stroke="none"/>
    </g>
    <g text-rendering="geometricPrecision" stroke-miterlimit="1.45" shape-rendering="geometricPrecision" font-family="sans-serif" transform="matrix(0.866,0.5,-0.5,0.866,221.1509,712.7159)" stroke-linecap="butt">
      <text x="2" xml:space="preserve" y="13.1387" clip-path="url(#clipPath3)" stroke="none">30</text>
    </g>
    <g text-rendering="geometricPrecision" stroke-miterlimit="1.45" shape-rendering="geometricPrecision" transform="matrix(1,0,0,1,420,405)" stroke-linecap="butt">
      <rect fill="none" x="-224.9973" width="60" height="30" y="305.314" clip-path="url(#clipPath2)"/>
    </g>
    <g fill="white" text-rendering="geometricPrecision" shape-rendering="geometricPrecision" transform="matrix(1,0,0,1,420,405)" stroke="white">
      <rect x="-150.8438" width="60" height="30" y="339.9954" clip-path="url(#clipPath2)" stroke="none"/>
    </g>
    <g text-rendering="geometricPrecision" stroke-miterlimit="1.45" shape-rendering="geometricPrecision" font-family="sans-serif" transform="matrix(0.5,0.866,-0.866,0.5,302.1195,747.1593)" stroke-linecap="butt">
      <text x="2" xml:space="preserve" y="13.1387" clip-path="url(#clipPath4)" stroke="none">60</text>
    </g>
    <g text-rendering="geometricPrecision" stroke-miterlimit="1.45" shape-rendering="geometricPrecision" transform="matrix(1,0,0,1,420,405)" stroke-linecap="butt">
      <rect fill="none" x="-150.8438" width="60" height="30" y="339.9954" clip-path="url(#clipPath2)"/>
    </g>
    <g fill="white" text-rendering="geometricPrecision" shape-rendering="geometricPrecision" transform="matrix(1,0,0,1,420,405)" stroke="white">
      <rect x="-70.9315" width="60" height="30" y="357.7595" clip-path="url(#clipPath2)" stroke="none"/>
    </g>
    <g text-rendering="geometricPrecision" stroke-miterlimit="1.45" shape-rendering="geometricPrecision" font-family="sans-serif" transform="matrix(0,1,-1,0,388.0529,768.1247)" stroke-linecap="butt">
      <text x="2" xml:space="preserve" y="13.1387" clip-path="url(#clipPath5)" stroke="none">90</text>
    </g>
    <g text-rendering="geometricPrecision" stroke-miterlimit="1.45" shape-rendering="geometricPrecision" transform="matrix(1,0,0,1,420,405)" stroke-linecap="butt">
      <rect fill="none" x="-70.9315" width="60" height="30" y="357.7595" clip-path="url(#clipPath2)"/>
    </g>
    <g fill="white" text-rendering="geometricPrecision" shape-rendering="geometricPrecision" transform="matrix(1,0,0,1,420,405)" stroke="white">
      <rect x="15.7993" width="100" height="30" y="173.8662" clip-path="url(#clipPath2)" stroke="none"/>
    </g>
    <g text-rendering="geometricPrecision" stroke-miterlimit="1.45" shape-rendering="geometricPrecision" font-family="sans-serif" transform="matrix(1,0,0,1,420,405)" stroke-linecap="butt">
      <text x="41.5445" xml:space="preserve" y="193.0205" clip-path="url(#clipPath2)" stroke="none">fontSize</text>
      <rect fill="none" x="15.7993" width="100" height="30" y="173.8662" clip-path="url(#clipPath2)"/>
    </g>
    <g fill="white" text-rendering="geometricPrecision" shape-rendering="geometricPrecision" transform="matrix(1,0,0,1,420,405)" stroke="white">
      <rect x="10.9849" width="60" height="30" y="357.7536" clip-path="url(#clipPath2)" stroke="none"/>
    </g>
    <g text-rendering="geometricPrecision" stroke-miterlimit="1.45" shape-rendering="geometricPrecision" font-family="sans-serif" transform="matrix(1,0,0,1,420,405)" stroke-linecap="butt">
      <text x="33.3502" xml:space="preserve" y="376.9079" clip-path="url(#clipPath2)" stroke="none">12</text>
      <rect fill="none" x="10.9849" width="60" height="30" y="357.7536" clip-path="url(#clipPath2)"/>
    </g>
    <g fill="white" text-rendering="geometricPrecision" shape-rendering="geometricPrecision" transform="matrix(1,0,0,1,420,405)" stroke="white">
      <rect x="90.9965" width="60" height="30" y="339.9434" clip-path="url(#clipPath2)" stroke="none"/>
    </g>
    <g font-size="20px" stroke-linecap="butt" transform="matrix(1,0,0,1,420,405)" text-rendering="geometricPrecision" font-family="sans-serif" shape-rendering="geometricPrecision" stroke-miterlimit="1.45">
      <text x="108.2719" xml:space="preserve" y="361.8673" clip-path="url(#clipPath2)" stroke="none">20</text>
      <rect fill="none" x="90.9965" width="60" height="30" y="339.9434" clip-path="url(#clipPath2)"/>
    </g>
    <g fill="white" text-rendering="geometricPrecision" shape-rendering="geometricPrecision" transform="matrix(1,0,0,1,420,405)" stroke="white">
      <rect x="167.3693" width="60" height="30" y="303.8579" clip-path="url(#clipPath2)" stroke="none"/>
    </g>
    <g font-size="30px" stroke-linecap="butt" transform="matrix(1,0,0,1,420,405)" text-rendering="geometricPrecision" font-family="sans-serif" shape-rendering="geometricPrecision" stroke-miterlimit="1.45">
      <text x="178.2824" xml:space="preserve" y="329.2436" clip-path="url(#clipPath2)" stroke="none">30</text>
      <rect fill="none" x="167.3693" width="60" height="30" y="303.8579" clip-path="url(#clipPath2)"/>
      <path fill="none" d="M181.3477 123.2822 L223.2667 181.1304 L256.8839 248.6301 L258.0188 251.632" clip-path="url(#clipPath2)"/>
      <path d="M258.0188 251.632 L258.452 238.6392 L254.836 243.2136 L249.0982 242.1757 Z" stroke="none" clip-path="url(#clipPath2)"/>
      <path fill="none" d="M191.4301 123.2981 L285.2508 183.727" clip-path="url(#clipPath2)"/>
      <path d="M291.9764 188.0589 L284.5954 177.3575 L284.41 183.1855 L279.1805 185.7646 Z" stroke="none" clip-path="url(#clipPath2)"/>
      <path fill="none" d="M218.1255 120.4068 L257.2515 128.3663 L313.8349 130.3869" clip-path="url(#clipPath2)"/>
      <path d="M321.8298 130.6724 L310.0158 125.2473 L312.8355 130.3512 L309.659 135.2409 Z" stroke="none" clip-path="url(#clipPath2)"/>
      <path fill="none" d="M245.8791 -26.6065 L262.7793 -21.2404 L311.3427 3.6083 L348.134 30.5989" clip-path="url(#clipPath2)"/>
      <path d="M354.5844 35.331 L347.8664 24.2013 L347.3277 30.0074 L341.9513 32.2643 Z" stroke="none" clip-path="url(#clipPath2)"/>
      <path fill="none" d="M245.8438 -40.4257 L334.0445 -37.2154 L335.7455 -36.9982" clip-path="url(#clipPath2)"/>
      <path d="M343.6812 -35.9851 L332.4109 -42.4645 L334.7536 -37.1248 L331.1446 -32.545 Z" stroke="none" clip-path="url(#clipPath2)"/>
      <path fill="none" d="M234.0699 -55.4572 L320.9113 -93.8513" clip-path="url(#clipPath2)"/>
      <path d="M328.2281 -97.0862 L315.2311 -96.8069 L319.9967 -93.4469 L319.2747 -87.6609 Z" stroke="none" clip-path="url(#clipPath2)"/>
      <path fill="none" d="M216.5438 -55.4491 L249.9926 -83.713 L285.2175 -124.8931 L314.7273 -172.896 L315.8846 -175.2914" clip-path="url(#clipPath2)"/>
      <path d="M315.8846 -175.2914 L306.1621 -166.6616 L311.9692 -167.1877 L315.1662 -162.3112 Z" stroke="none" clip-path="url(#clipPath2)"/>
      <path fill="none" d="M131.2762 -178.36 L207.9706 -238.8012 L227.3202 -250.7448" clip-path="url(#clipPath2)"/>
      <path d="M234.1278 -254.9467 L221.2901 -252.8985 L226.4692 -250.2195 L226.5426 -244.389 Z" stroke="none" clip-path="url(#clipPath2)"/>
      <path fill="none" d="M122.2101 -178.3491 L123.5706 -181.3455 L155.5827 -275.8112 L164.1189 -315.412 L164.9663 -320.5402" clip-path="url(#clipPath2)"/>
      <path d="M164.9663 -320.5402 L158.0768 -309.5159 L163.499 -311.6606 L167.9431 -307.8856 Z" stroke="none" clip-path="url(#clipPath2)"/>
      <path fill="none" d="M0.3286 -214.9697 L0.9708 -217.4978 L26.4008 -286.2852 L63.8107 -351.7591 L64.2864 -352.4258" clip-path="url(#clipPath2)"/>
      <path d="M64.2864 -352.4258 L53.2465 -345.5613 L59.0592 -345.0994 L61.3869 -339.7532 Z" stroke="none" clip-path="url(#clipPath2)"/>
      <path fill="none" d="M-3.743 -214.9697 L-6.128 -351.9444" clip-path="url(#clipPath2)"/>
      <path d="M-6.2673 -359.9431 L-11.0576 -347.8579 L-6.1106 -350.9445 L-1.0592 -348.032 Z" stroke="none" clip-path="url(#clipPath2)"/>
      <path fill="none" d="M-7.8535 -214.9697 L-8.5421 -217.3322 L-36.3513 -285.1926 L-76.018 -349.3244 L-76.2237 -349.5925" clip-path="url(#clipPath2)"/>
      <path d="M-76.2237 -349.5925 L-72.8851 -337.0285 L-70.7447 -342.4524 L-64.9516 -343.1163 Z" stroke="none" clip-path="url(#clipPath2)"/>
      <path fill="none" d="M-131.238 -171.3136 L-131.9304 -172.9179 L-153.7506 -242.9342 L-164.0571 -317.6342 L-164.2117 -321.867" clip-path="url(#clipPath2)"/>
      <path d="M-164.2117 -321.867 L-168.7705 -309.6925 L-163.8833 -312.873 L-158.7771 -310.0574 Z" stroke="none" clip-path="url(#clipPath2)"/>
      <path fill="none" d="M-136.7366 -171.3136 L-216.9696 -271.8354" clip-path="url(#clipPath2)"/>
      <path d="M-221.9601 -278.0879 L-218.3822 -265.59 L-216.3458 -271.0538 L-210.5665 -271.8282 Z" stroke="none" clip-path="url(#clipPath2)"/>
      <path fill="none" d="M-146.8314 -171.3131 L-202.803 -203.7822 L-254.4706 -223.269" clip-path="url(#clipPath2)"/>
      <path d="M-261.9559 -226.0922 L-252.4924 -217.1791 L-253.5349 -222.9161 L-248.9635 -226.5358 Z" stroke="none" clip-path="url(#clipPath2)"/>
      <path fill="none" d="M-218.8496 -62.7079 L-270.0369 -98.6729 L-317.8936 -145.7776" clip-path="url(#clipPath2)"/>
      <path d="M-323.5951 -151.3894 L-318.5503 -139.4082 L-317.181 -145.0761 L-311.5355 -146.535 Z" stroke="none" clip-path="url(#clipPath2)"/>
      <path fill="none" d="M-244.2217 -60.0147 L-326.3968 -80.2083" clip-path="url(#clipPath2)"/>
      <path d="M-334.1656 -82.1174 L-323.7055 -74.3982 L-325.4257 -79.9697 L-321.3192 -84.1093 Z" stroke="none" clip-path="url(#clipPath2)"/>
      <path fill="none" d="M-244.2194 -43.0809 L-285.0142 -37.7246 L-337.2766 -21.8124" clip-path="url(#clipPath2)"/>
      <path d="M-344.9298 -19.4823 L-331.9937 -18.1942 L-336.32 -22.1037 L-334.9064 -27.7607 Z" stroke="none" clip-path="url(#clipPath2)"/>
      <path fill="none" d="M-234.8926 83.4671 L-303.4399 90.5648 L-326.3356 90.3073" clip-path="url(#clipPath2)"/>
      <path d="M-334.3351 90.2174 L-322.392 95.352 L-325.3356 90.3186 L-322.2796 85.3526 Z" stroke="none" clip-path="url(#clipPath2)"/>
      <path fill="none" d="M-206.5096 91.2844 L-278.9651 149.854 L-307.3561 178.7512 L-307.5605 178.9806" clip-path="url(#clipPath2)"/>
      <path d="M-307.5605 178.9806 L-295.8435 173.3494 L-301.5722 172.262 L-303.3086 166.6956 Z" stroke="none" clip-path="url(#clipPath2)"/>
      <path fill="none" d="M-101.8832 196.1727 L-139.3212 223.8163 L-187.5068 248.573 L-222.2504 260.0236" clip-path="url(#clipPath2)"/>
      <path d="M-229.8484 262.5276 L-216.8864 263.5203 L-221.3007 259.7105 L-220.0165 254.0228 Z" stroke="none" clip-path="url(#clipPath2)"/>
      <path fill="none" d="M-94.4273 196.1649 L-95.3769 197.6338 L-175.7322 299.0509" clip-path="url(#clipPath2)"/>
      <path d="M-180.7003 305.3213 L-169.3291 299.0208 L-175.1111 298.2671 L-177.1671 292.8106 Z" stroke="none" clip-path="url(#clipPath2)"/>
      <path fill="none" d="M-89.3882 196.1649 L-90.5459 199.8932 L-118.6595 335.1711 L-119.1911 339.9955" clip-path="url(#clipPath2)"/>
      <path d="M-119.1911 339.9955 L-112.9069 328.6152 L-118.2054 331.0496 L-122.8468 327.5201 Z" stroke="none" clip-path="url(#clipPath2)"/>
      <path fill="none" d="M-85.4928 196.1649 L-85.5971 198.2168 L-82.4713 250.4049 L-70.5836 303.2578 L-49.8229 355.6177 L-48.712 357.7595" clip-path="url(#clipPath2)"/>
      <path d="M-48.712 357.7595 L-49.7988 344.805 L-52.8559 349.7702 L-58.6757 349.4094 Z" stroke="none" clip-path="url(#clipPath2)"/>
      <path fill="none" d="M66.7143 203.8662 L66.9027 206.9548 L63.4076 280.4206 L47.0831 354.386 L45.9651 357.7536" clip-path="url(#clipPath2)"/>
      <path d="M45.9651 357.7536 L54.4915 347.9404 L48.8009 349.2121 L45.0009 344.7894 Z" stroke="none" clip-path="url(#clipPath2)"/>
      <path fill="none" d="M70.8826 203.8662 L72.8205 209.5846 L114.2185 334.1428 L116.1087 339.9435" clip-path="url(#clipPath2)"/>
      <path d="M116.1087 339.9435 L117.1448 326.9848 L113.3203 331.3863 L107.6368 330.083 Z" stroke="none" clip-path="url(#clipPath2)"/>
      <path fill="none" d="M76.1076 203.8573 L123.6925 259.5312 L170.337 298.6907" clip-path="url(#clipPath2)"/>
      <path d="M176.4641 303.8345 L170.4884 292.2893 L169.5711 298.0477 L164.0586 299.9482 Z" stroke="none" clip-path="url(#clipPath2)"/>
    </g>
  </g>
</svg>
