<?xml version="1.0" encoding="UTF-8"?><svg xmlns="http://www.w3.org/2000/svg" xmlns:xlink="http://www.w3.org/1999/xlink" fill-opacity="1" color-rendering="auto" color-interpolation="auto" text-rendering="auto" stroke="black" stroke-linecap="square" width="815" stroke-miterlimit="10" shape-rendering="auto" stroke-opacity="1" fill="black" stroke-dasharray="none" font-weight="normal" stroke-width="1" height="157" font-family="'Dialog'" font-style="normal" stroke-linejoin="miter" font-size="12px" stroke-dashoffset="0" image-rendering="auto">
  <!--Generated by ySVG 2.6-->
  <defs id="genericDefs"/>
  <g>
    <defs id="defs1">
      <clipPath clipPathUnits="userSpaceOnUse" id="clipPath1">
        <path d="M0 0 L815 0 L815 157 L0 157 L0 0 Z"/>
      </clipPath>
      <clipPath clipPathUnits="userSpaceOnUse" id="clipPath2">
        <path d="M-286 -15 L529 -15 L529 142 L-286 142 L-286 -15 Z"/>
      </clipPath>
      <clipPath clipPathUnits="userSpaceOnUse" id="clipPath3">
        <path d="M-286 52.4375 L-286 142 L529 142 L529 52.4375 Z"/>
      </clipPath>
      <clipPath clipPathUnits="userSpaceOnUse" id="clipPath4">
        <path d="M-286 -15 L-286 52.4375 L529 52.4375 L529 -15 Z"/>
      </clipPath>
      <clipPath clipPathUnits="userSpaceOnUse" id="clipPath5">
        <path d="M0 0 L0 126 L103 126 L103 0 Z"/>
      </clipPath>
      <clipPath clipPathUnits="userSpaceOnUse" id="clipPath6">
        <path d="M-286 25.9688 L-286 142 L529 142 L529 25.9688 Z"/>
      </clipPath>
      <clipPath clipPathUnits="userSpaceOnUse" id="clipPath7">
        <path d="M-286 -15 L-286 25.9688 L529 25.9688 L529 -15 Z"/>
      </clipPath>
      <clipPath clipPathUnits="userSpaceOnUse" id="clipPath8">
        <path d="M0 0 L0 67 L129 67 L129 0 Z"/>
      </clipPath>
      <clipPath clipPathUnits="userSpaceOnUse" id="clipPath9">
        <path d="M-1 -1 L0 0 L44 0 L45 -1 Z"/>
      </clipPath>
      <clipPath clipPathUnits="userSpaceOnUse" id="clipPath10">
        <path d="M-1 -1 L0 0 L21 0 L22 -1 L-1 -1 Z"/>
      </clipPath>
      <clipPath clipPathUnits="userSpaceOnUse" id="clipPath11">
        <path d="M44 0 L45 -1 L-1 -1 L0 0 Z"/>
      </clipPath>
      <clipPath clipPathUnits="userSpaceOnUse" id="clipPath12">
        <path d="M22 -1 L-1 -1 L0 0 L21 0 L22 -1 Z"/>
      </clipPath>
      <clipPath clipPathUnits="userSpaceOnUse" id="clipPath13">
        <path d="M0 -1 L0 0 L46 0 L47 -1 Z"/>
      </clipPath>
      <clipPath clipPathUnits="userSpaceOnUse" id="clipPath14">
        <path d="M46 0 L46 -1 L-1 -1 L0 0 Z"/>
      </clipPath>
      <clipPath clipPathUnits="userSpaceOnUse" id="clipPath15">
        <path d="M0 -1 L0 0 L35 0 L36 -1 Z"/>
      </clipPath>
      <clipPath clipPathUnits="userSpaceOnUse" id="clipPath16">
        <path d="M35 0 L35 -1 L-1 -1 L0 0 Z"/>
      </clipPath>
      <clipPath clipPathUnits="userSpaceOnUse" id="clipPath17">
        <path d="M0 0 L21 0 L22 -1 L0 -1 Z"/>
      </clipPath>
      <clipPath clipPathUnits="userSpaceOnUse" id="clipPath18">
        <path d="M21 -1 L-1 -1 L0 0 L21 0 Z"/>
      </clipPath>
    </defs>
    <g fill="white" text-rendering="geometricPrecision" shape-rendering="geometricPrecision" transform="translate(286,15)" stroke="white">
      <rect x="-286" width="815" height="157" y="-15" clip-path="url(#clipPath2)" stroke="none"/>
    </g>
    <g fill="white" text-rendering="geometricPrecision" shape-rendering="geometricPrecision" transform="matrix(1,0,0,1,286,15)" stroke="white">
      <rect x="-270.3897" width="82.8945" height="30" y="48.4062" clip-path="url(#clipPath2)" stroke="none"/>
    </g>
    <g text-rendering="geometricPrecision" stroke-miterlimit="1.45" shape-rendering="geometricPrecision" font-family="sans-serif" transform="matrix(1,0,0,1,286,15)" stroke-linecap="butt">
      <text x="-268.3897" xml:space="preserve" y="61.5449" clip-path="url(#clipPath2)" stroke="none">ShapeNode</text>
      <rect fill="none" x="-270.3897" width="82.8945" height="30" y="48.4062" clip-path="url(#clipPath2)"/>
    </g>
    <g fill="rgb(232,238,247)" text-rendering="geometricPrecision" shape-rendering="geometricPrecision" transform="matrix(1,0,0,1,286,15)" stroke="rgb(232,238,247)">
      <rect x="-121.8535" y="26.4688" clip-path="url(#clipPath3)" width="91.8535" rx="4" ry="4" height="73.875" stroke="none"/>
      <rect x="-121.8535" y="26.4688" clip-path="url(#clipPath4)" fill="rgb(183,201,227)" width="91.8535" rx="4" ry="4" height="73.875" stroke="none"/>
    </g>
    <g text-rendering="geometricPrecision" stroke-miterlimit="1.45" shape-rendering="geometricPrecision" transform="matrix(1,0,0,1,286,15)" stroke-linecap="butt">
      <rect x="-121.8535" y="26.4688" clip-path="url(#clipPath2)" fill="none" width="91.8535" rx="4" ry="4" height="73.875"/>
      <line y2="52.4375" fill="none" x1="-121.8535" clip-path="url(#clipPath2)" x2="-30" y1="52.4375"/>
      <text x="-114.8535" xml:space="preserve" y="43.6074" clip-path="url(#clipPath2)" font-family="sans-serif" stroke="none">GenericNode</text>
      <text x="-117.8535" xml:space="preserve" y="69.5762" clip-path="url(#clipPath2)" font-family="sans-serif" stroke="none">line1</text>
      <text x="-117.8535" xml:space="preserve" y="83.5449" clip-path="url(#clipPath2)" font-family="sans-serif" stroke="none">line2</text>
      <text x="-117.8535" xml:space="preserve" y="97.5137" clip-path="url(#clipPath2)" font-family="sans-serif" stroke="none">line3</text>
    </g>
    <g fill="white" text-rendering="geometricPrecision" shape-rendering="geometricPrecision" transform="matrix(1,0,0,1,286,15)" stroke="white">
      <rect x="0" width="103.7363" height="126.8125" y="0" clip-path="url(#clipPath2)" stroke="none"/>
    </g>
    <g text-rendering="geometricPrecision" stroke-miterlimit="1.45" shape-rendering="geometricPrecision" transform="matrix(1,0,0,1,286,15)" stroke-linecap="butt">
      <rect fill="none" x="0" width="103.7363" height="126.8125" y="0" clip-path="url(#clipPath2)"/>
      <text x="7" xml:space="preserve" y="16.1387" clip-path="url(#clipPath5)" font-family="sans-serif" stroke="none">&lt;&lt;abstract&gt;&gt;</text>
      <text x="24.3057" xml:space="preserve" y="39.1074" clip-path="url(#clipPath5)" font-family="sans-serif" stroke="none">UmlNode</text>
      <line stroke-linecap="square" clip-path="url(#clipPath5)" fill="none" x1="1" x2="102" y1="46" y2="46" stroke-miterlimit="10"/>
      <text x="5" xml:space="preserve" y="63.0762" clip-path="url(#clipPath5)" font-family="sans-serif" stroke="none">foo</text>
      <text x="5" xml:space="preserve" y="77.0449" clip-path="url(#clipPath5)" font-family="sans-serif" stroke="none">bar</text>
      <line stroke-linecap="square" clip-path="url(#clipPath5)" fill="none" x1="1" x2="102" y1="84" y2="84" stroke-miterlimit="10"/>
      <text x="5" xml:space="preserve" y="101.0137" clip-path="url(#clipPath5)" font-family="sans-serif" stroke="none">foo()</text>
      <text x="5" xml:space="preserve" y="114.9824" clip-path="url(#clipPath5)" font-family="sans-serif" stroke="none">bar()</text>
    </g>
    <g fill="rgb(232,238,247)" text-rendering="geometricPrecision" shape-rendering="geometricPrecision" transform="matrix(1,0,0,1,286,15)" stroke="rgb(232,238,247)">
      <rect x="150" y="0" clip-path="url(#clipPath6)" width="143" rx="4" ry="4" height="98.9688" stroke="none"/>
      <rect x="150" y="0" clip-path="url(#clipPath7)" fill="rgb(183,201,227)" width="143" rx="4" ry="4" height="98.9688" stroke="none"/>
    </g>
    <g text-rendering="geometricPrecision" stroke-miterlimit="1.45" shape-rendering="geometricPrecision" transform="matrix(1,0,0,1,286,15)" stroke-linecap="butt">
      <rect x="150" y="0" clip-path="url(#clipPath2)" fill="none" width="143" rx="4" ry="4" height="98.9688"/>
      <line y2="25.9688" fill="none" x1="150" clip-path="url(#clipPath2)" x2="293" y1="25.9688"/>
      <text x="189.332" xml:space="preserve" y="17.1387" clip-path="url(#clipPath2)" font-family="sans-serif" stroke="none">TableNode</text>
    </g>
    <g text-rendering="geometricPrecision" stroke-miterlimit="1.45" shape-rendering="geometricPrecision" font-family="sans-serif" transform="matrix(1,0,0,1,286,15) translate(155,32)" stroke-linecap="butt">
      <polygon points=" 0 0 -1 -1 45 -1 44 0" stroke="none" clip-path="url(#clipPath9)"/>
      <polygon clip-path="url(#clipPath10)" transform="translate(44,0) rotate(90)" points=" 0 0 -1 -1 22 -1 21 0" stroke="none"/>
      <polygon clip-path="url(#clipPath11)" transform="translate(44,21) rotate(180)" points=" 0 0 -1 -1 45 -1 44 0" stroke="none"/>
      <polygon clip-path="url(#clipPath12)" transform="translate(0,21) rotate(270)" points=" 0 0 -1 -1 22 -1 21 0" stroke="none"/>
    </g>
    <g stroke-linecap="butt" transform="matrix(1,0,0,1,286,15) translate(154,31)" text-rendering="geometricPrecision" font-family="sans-serif" shape-rendering="geometricPrecision" font-weight="bold" stroke-miterlimit="1.45">
      <text x="4" xml:space="preserve" y="16" clip-path="url(#clipPath8)" stroke="none">Rows</text>
    </g>
    <g stroke-linecap="butt" transform="matrix(1,0,0,1,286,15) translate(200,32)" text-rendering="geometricPrecision" font-family="sans-serif" shape-rendering="geometricPrecision" font-weight="bold" stroke-miterlimit="1.45">
      <polygon points=" 0 0 0 -1 47 -1 46 0" stroke="none" clip-path="url(#clipPath13)"/>
      <polygon clip-path="url(#clipPath10)" transform="translate(46,0) rotate(90)" points=" 0 0 -1 -1 22 -1 21 0" stroke="none"/>
      <polygon clip-path="url(#clipPath14)" transform="translate(46,21) rotate(180)" points=" 0 0 -1 -1 46 -1 46 0" stroke="none"/>
    </g>
    <g stroke-linecap="butt" transform="matrix(1,0,0,1,286,15) translate(154,31)" text-rendering="geometricPrecision" font-family="sans-serif" shape-rendering="geometricPrecision" font-weight="bold" stroke-miterlimit="1.45">
      <text x="49" xml:space="preserve" y="16" clip-path="url(#clipPath8)" stroke="none">Name</text>
    </g>
    <g stroke-linecap="butt" transform="matrix(1,0,0,1,286,15) translate(247,32)" text-rendering="geometricPrecision" font-family="sans-serif" shape-rendering="geometricPrecision" font-weight="bold" stroke-miterlimit="1.45">
      <polygon points=" 0 0 0 -1 36 -1 35 0" stroke="none" clip-path="url(#clipPath15)"/>
      <polygon clip-path="url(#clipPath10)" transform="translate(35,0) rotate(90)" points=" 0 0 -1 -1 22 -1 21 0" stroke="none"/>
      <polygon clip-path="url(#clipPath16)" transform="translate(35,21) rotate(180)" points=" 0 0 -1 -1 35 -1 35 0" stroke="none"/>
    </g>
    <g stroke-linecap="butt" transform="matrix(1,0,0,1,286,15) translate(154,31)" text-rendering="geometricPrecision" font-family="sans-serif" shape-rendering="geometricPrecision" font-weight="bold" stroke-miterlimit="1.45">
      <text x="96" xml:space="preserve" y="16" clip-path="url(#clipPath8)" stroke="none">Unit</text>
    </g>
    <g stroke-linecap="butt" transform="matrix(1,0,0,1,286,15) translate(199,54) rotate(90)" text-rendering="geometricPrecision" font-family="sans-serif" shape-rendering="geometricPrecision" font-weight="bold" stroke-miterlimit="1.45">
      <polygon points=" 0 0 0 -1 22 -1 21 0" stroke="none" clip-path="url(#clipPath17)"/>
      <polygon clip-path="url(#clipPath11)" transform="rotate(-90) translate(0,21) rotate(180)" points=" 0 0 -1 -1 45 -1 44 0" stroke="none"/>
      <polygon clip-path="url(#clipPath18)" transform="rotate(-90) translate(-44,21) rotate(270)" points=" 0 0 -1 -1 21 -1 21 0" stroke="none"/>
    </g>
    <g text-rendering="geometricPrecision" stroke-miterlimit="1.45" shape-rendering="geometricPrecision" font-family="sans-serif" transform="matrix(1,0,0,1,286,15) translate(154,31)" stroke-linecap="butt">
      <text x="4" xml:space="preserve" y="38" clip-path="url(#clipPath8)" stroke="none">Row 0</text>
    </g>
    <g text-rendering="geometricPrecision" stroke-miterlimit="1.45" shape-rendering="geometricPrecision" font-family="sans-serif" transform="matrix(1,0,0,1,286,15) translate(246,54) rotate(90)" stroke-linecap="butt">
      <polygon points=" 0 0 0 -1 22 -1 21 0" stroke="none" clip-path="url(#clipPath17)"/>
      <polygon clip-path="url(#clipPath14)" transform="rotate(-90) translate(0,21) rotate(180)" points=" 0 0 -1 -1 46 -1 46 0" stroke="none"/>
    </g>
    <g text-rendering="geometricPrecision" stroke-miterlimit="1.45" shape-rendering="geometricPrecision" font-family="sans-serif" transform="matrix(1,0,0,1,286,15) translate(154,31)" stroke-linecap="butt">
      <text x="49" xml:space="preserve" y="38" clip-path="url(#clipPath8)" stroke="none">toto</text>
    </g>
    <g text-rendering="geometricPrecision" stroke-miterlimit="1.45" shape-rendering="geometricPrecision" font-family="sans-serif" transform="matrix(1,0,0,1,286,15) translate(282,54) rotate(90)" stroke-linecap="butt">
      <polygon points=" 0 0 0 -1 22 -1 21 0" stroke="none" clip-path="url(#clipPath17)"/>
      <polygon clip-path="url(#clipPath16)" transform="rotate(-90) translate(0,21) rotate(180)" points=" 0 0 -1 -1 35 -1 35 0" stroke="none"/>
    </g>
    <g text-rendering="geometricPrecision" stroke-miterlimit="1.45" shape-rendering="geometricPrecision" font-family="sans-serif" transform="matrix(1,0,0,1,286,15) translate(154,31)" stroke-linecap="butt">
      <text x="96" xml:space="preserve" y="38" clip-path="url(#clipPath8)" stroke="none">str</text>
    </g>
    <g text-rendering="geometricPrecision" stroke-miterlimit="1.45" shape-rendering="geometricPrecision" font-family="sans-serif" transform="matrix(1,0,0,1,286,15) translate(199,76) rotate(90)" stroke-linecap="butt">
      <polygon points=" 0 0 0 -1 22 -1 21 0" stroke="none" clip-path="url(#clipPath17)"/>
      <polygon clip-path="url(#clipPath11)" transform="rotate(-90) translate(0,21) rotate(180)" points=" 0 0 -1 -1 45 -1 44 0" stroke="none"/>
      <polygon clip-path="url(#clipPath18)" transform="rotate(-90) translate(-44,21) rotate(270)" points=" 0 0 -1 -1 21 -1 21 0" stroke="none"/>
    </g>
    <g text-rendering="geometricPrecision" stroke-miterlimit="1.45" shape-rendering="geometricPrecision" font-family="sans-serif" transform="matrix(1,0,0,1,286,15) translate(154,31)" stroke-linecap="butt">
      <text x="4" xml:space="preserve" y="60" clip-path="url(#clipPath8)" stroke="none">Row 1</text>
    </g>
    <g text-rendering="geometricPrecision" stroke-miterlimit="1.45" shape-rendering="geometricPrecision" font-family="sans-serif" transform="matrix(1,0,0,1,286,15) translate(246,76) rotate(90)" stroke-linecap="butt">
      <polygon points=" 0 0 0 -1 22 -1 21 0" stroke="none" clip-path="url(#clipPath17)"/>
      <polygon clip-path="url(#clipPath14)" transform="rotate(-90) translate(0,21) rotate(180)" points=" 0 0 -1 -1 46 -1 46 0" stroke="none"/>
    </g>
    <g text-rendering="geometricPrecision" stroke-miterlimit="1.45" shape-rendering="geometricPrecision" font-family="sans-serif" transform="matrix(1,0,0,1,286,15) translate(154,31)" stroke-linecap="butt">
      <text x="49" xml:space="preserve" y="60" clip-path="url(#clipPath8)" stroke="none">123</text>
    </g>
    <g text-rendering="geometricPrecision" stroke-miterlimit="1.45" shape-rendering="geometricPrecision" font-family="sans-serif" transform="matrix(1,0,0,1,286,15) translate(282,76) rotate(90)" stroke-linecap="butt">
      <polygon points=" 0 0 0 -1 22 -1 21 0" stroke="none" clip-path="url(#clipPath17)"/>
      <polygon clip-path="url(#clipPath16)" transform="rotate(-90) translate(0,21) rotate(180)" points=" 0 0 -1 -1 35 -1 35 0" stroke="none"/>
    </g>
    <g text-rendering="geometricPrecision" stroke-miterlimit="1.45" shape-rendering="geometricPrecision" font-family="sans-serif" transform="matrix(1,0,0,1,286,15) translate(154,31)" stroke-linecap="butt">
      <text x="96" xml:space="preserve" y="60" clip-path="url(#clipPath8)" stroke="none">int</text>
    </g>
    <g text-rendering="geometricPrecision" stroke-miterlimit="1.45" shape-rendering="geometricPrecision" transform="matrix(1,0,0,1,286,15)" stroke-linecap="butt">
      <path fill="none" d="M-187.4952 63.4062 L-129.8779 63.4062" clip-path="url(#clipPath2)"/>
      <path d="M-121.8779 63.4062 L-133.8779 58.4062 L-130.8779 63.4062 L-133.8779 68.4062 Z" clip-path="url(#clipPath2)" stroke="none"/>
      <rect x="-171.774" y="54.4219" clip-path="url(#clipPath2)" fill="white" width="34.1992" height="17.9688" stroke="none"/>
      <text x="-169.774" xml:space="preserve" y="67.5605" clip-path="url(#clipPath2)" font-family="sans-serif" stroke="none">Edge</text>
    </g>
    <g transform="matrix(1,0,0,1,286,15)" fill-opacity="0.502" fill="rgb(202,236,255)" text-rendering="geometricPrecision" shape-rendering="geometricPrecision" stroke="rgb(202,236,255)" stroke-opacity="0.502">
      <rect x="355" width="158.3071" height="77.9688" y="10.5" clip-path="url(#clipPath2)" stroke="none"/>
    </g>
    <g fill="rgb(153,204,255)" text-rendering="geometricPrecision" shape-rendering="geometricPrecision" transform="matrix(1,0,0,1,286,15)" stroke="rgb(153,204,255)">
      <rect x="355" width="158.3071" height="17.9688" y="10.5" clip-path="url(#clipPath2)" stroke="none"/>
    </g>
    <g text-rendering="geometricPrecision" stroke-miterlimit="1.45" shape-rendering="geometricPrecision" font-family="sans-serif" transform="matrix(1,0,0,1,286,15)" stroke-linecap="butt">
      <text x="415.7551" xml:space="preserve" y="23.6387" clip-path="url(#clipPath2)" stroke="none">Group</text>
      <rect fill="none" x="355" width="158.3071" height="77.9688" y="10.5" clip-path="url(#clipPath2)"/>
    </g>
    <g fill="white" text-rendering="geometricPrecision" shape-rendering="geometricPrecision" transform="matrix(1,0,0,1,286,15)" stroke="white">
      <rect x="370" width="32.9082" height="30" y="43.4688" clip-path="url(#clipPath2)" stroke="none"/>
    </g>
    <g text-rendering="geometricPrecision" stroke-miterlimit="1.45" shape-rendering="geometricPrecision" font-family="sans-serif" transform="matrix(1,0,0,1,286,15)" stroke-linecap="butt">
      <text x="372" xml:space="preserve" y="56.6074" clip-path="url(#clipPath2)" stroke="none">foo</text>
      <rect fill="none" x="370" width="32.9082" height="30" y="43.4688" clip-path="url(#clipPath2)"/>
    </g>
    <g fill="white" text-rendering="geometricPrecision" shape-rendering="geometricPrecision" transform="matrix(1,0,0,1,286,15)" stroke="white">
      <rect x="464.4028" width="33.9043" height="30" y="43.4688" clip-path="url(#clipPath2)" stroke="none"/>
    </g>
    <g text-rendering="geometricPrecision" stroke-miterlimit="1.45" shape-rendering="geometricPrecision" font-family="sans-serif" transform="matrix(1,0,0,1,286,15)" stroke-linecap="butt">
      <text x="466.4028" xml:space="preserve" y="56.6074" clip-path="url(#clipPath2)" stroke="none">bar</text>
      <rect fill="none" x="464.4028" width="33.9043" height="30" y="43.4688" clip-path="url(#clipPath2)"/>
      <path fill="none" d="M402.9082 58.4688 L456.4028 58.4688" clip-path="url(#clipPath2)"/>
      <path d="M464.4028 58.4688 L452.4028 53.4688 L455.4028 58.4688 L452.4028 63.4688 Z" clip-path="url(#clipPath2)" stroke="none"/>
    </g>
  </g>
</svg>
