<?xml version="1.0" encoding="UTF-8"?><svg xmlns="http://www.w3.org/2000/svg" xmlns:xlink="http://www.w3.org/1999/xlink" fill-opacity="1" color-rendering="auto" color-interpolation="auto" text-rendering="auto" stroke="black" stroke-linecap="square" width="174" stroke-miterlimit="10" shape-rendering="auto" stroke-opacity="1" fill="black" stroke-dasharray="none" font-weight="normal" stroke-width="1" height="132" font-family="'Dialog'" font-style="normal" stroke-linejoin="miter" font-size="12px" stroke-dashoffset="0" image-rendering="auto">
  <!--Generated by ySVG 2.6-->
  <defs id="genericDefs"/>
  <g>
    <defs id="defs1">
      <clipPath clipPathUnits="userSpaceOnUse" id="clipPath1">
        <path d="M0 0 L174 0 L174 132 L0 132 L0 0 Z"/>
      </clipPath>
      <clipPath clipPathUnits="userSpaceOnUse" id="clipPath2">
        <path d="M-87 -65 L87 -65 L87 67 L-87 67 L-87 -65 Z"/>
      </clipPath>
      <clipPath clipPathUnits="userSpaceOnUse" id="clipPath3">
        <path d="M-87 -23.5156 L-87 67 L87 67 L87 -23.5156 Z"/>
      </clipPath>
      <clipPath clipPathUnits="userSpaceOnUse" id="clipPath4">
        <path d="M-87 -65 L-87 -23.5156 L87 -23.5156 L87 -65 Z"/>
      </clipPath>
      <clipPath clipPathUnits="userSpaceOnUse" id="clipPath5">
        <path d="M0 0 L0 67 L129 67 L129 0 Z"/>
      </clipPath>
      <clipPath clipPathUnits="userSpaceOnUse" id="clipPath6">
        <path d="M-1 -1 L0 0 L44 0 L45 -1 Z"/>
      </clipPath>
      <clipPath clipPathUnits="userSpaceOnUse" id="clipPath7">
        <path d="M-1 -1 L0 0 L21 0 L22 -1 L-1 -1 Z"/>
      </clipPath>
      <clipPath clipPathUnits="userSpaceOnUse" id="clipPath8">
        <path d="M44 0 L45 -1 L-1 -1 L0 0 Z"/>
      </clipPath>
      <clipPath clipPathUnits="userSpaceOnUse" id="clipPath9">
        <path d="M22 -1 L-1 -1 L0 0 L21 0 L22 -1 Z"/>
      </clipPath>
      <clipPath clipPathUnits="userSpaceOnUse" id="clipPath10">
        <path d="M0 -1 L0 0 L46 0 L47 -1 Z"/>
      </clipPath>
      <clipPath clipPathUnits="userSpaceOnUse" id="clipPath11">
        <path d="M46 0 L46 -1 L-1 -1 L0 0 Z"/>
      </clipPath>
      <clipPath clipPathUnits="userSpaceOnUse" id="clipPath12">
        <path d="M0 -1 L0 0 L35 0 L36 -1 Z"/>
      </clipPath>
      <clipPath clipPathUnits="userSpaceOnUse" id="clipPath13">
        <path d="M35 0 L35 -1 L-1 -1 L0 0 Z"/>
      </clipPath>
      <clipPath clipPathUnits="userSpaceOnUse" id="clipPath14">
        <path d="M0 0 L21 0 L22 -1 L0 -1 Z"/>
      </clipPath>
      <clipPath clipPathUnits="userSpaceOnUse" id="clipPath15">
        <path d="M21 -1 L-1 -1 L0 0 L21 0 Z"/>
      </clipPath>
    </defs>
    <g fill="white" text-rendering="geometricPrecision" shape-rendering="geometricPrecision" transform="translate(87,65)" stroke="white">
      <rect x="-87" width="174" height="132" y="-65" clip-path="url(#clipPath2)" stroke="none"/>
    </g>
    <g fill="rgb(232,238,247)" text-rendering="geometricPrecision" shape-rendering="geometricPrecision" transform="matrix(1,0,0,1,87,65)" stroke="rgb(232,238,247)">
      <rect x="-71.5" y="-49.4844" clip-path="url(#clipPath3)" width="143" rx="4" ry="4" height="98.9688" stroke="none"/>
      <rect x="-71.5" y="-49.4844" clip-path="url(#clipPath4)" fill="rgb(183,201,227)" width="143" rx="4" ry="4" height="98.9688" stroke="none"/>
    </g>
    <g text-rendering="geometricPrecision" stroke-miterlimit="1.45" shape-rendering="geometricPrecision" transform="matrix(1,0,0,1,87,65)" stroke-linecap="butt">
      <rect x="-71.5" y="-49.4844" clip-path="url(#clipPath2)" fill="none" width="143" rx="4" ry="4" height="98.9688"/>
      <line y2="-23.5156" fill="none" x1="-71.5" clip-path="url(#clipPath2)" x2="71.5" y1="-23.5156"/>
      <text x="-32.168" xml:space="preserve" y="-32.3457" clip-path="url(#clipPath2)" font-family="sans-serif" stroke="none">TableNode</text>
    </g>
    <g text-rendering="geometricPrecision" stroke-miterlimit="1.45" shape-rendering="geometricPrecision" font-family="sans-serif" transform="matrix(1,0,0,1,87,65) translate(-66,-16)" stroke-linecap="butt">
      <polygon points=" 0 0 -1 -1 45 -1 44 0" stroke="none" clip-path="url(#clipPath6)"/>
      <polygon clip-path="url(#clipPath7)" transform="translate(44,0) rotate(90)" points=" 0 0 -1 -1 22 -1 21 0" stroke="none"/>
      <polygon clip-path="url(#clipPath8)" transform="translate(44,21) rotate(180)" points=" 0 0 -1 -1 45 -1 44 0" stroke="none"/>
      <polygon clip-path="url(#clipPath9)" transform="translate(0,21) rotate(270)" points=" 0 0 -1 -1 22 -1 21 0" stroke="none"/>
    </g>
    <g stroke-linecap="butt" transform="matrix(1,0,0,1,87,65) translate(-67,-17)" text-rendering="geometricPrecision" font-family="sans-serif" shape-rendering="geometricPrecision" font-weight="bold" stroke-miterlimit="1.45">
      <text x="4" xml:space="preserve" y="16" clip-path="url(#clipPath5)" stroke="none">Rows</text>
    </g>
    <g stroke-linecap="butt" transform="matrix(1,0,0,1,87,65) translate(-21,-16)" text-rendering="geometricPrecision" font-family="sans-serif" shape-rendering="geometricPrecision" font-weight="bold" stroke-miterlimit="1.45">
      <polygon points=" 0 0 0 -1 47 -1 46 0" stroke="none" clip-path="url(#clipPath10)"/>
      <polygon clip-path="url(#clipPath7)" transform="translate(46,0) rotate(90)" points=" 0 0 -1 -1 22 -1 21 0" stroke="none"/>
      <polygon clip-path="url(#clipPath11)" transform="translate(46,21) rotate(180)" points=" 0 0 -1 -1 46 -1 46 0" stroke="none"/>
    </g>
    <g stroke-linecap="butt" transform="matrix(1,0,0,1,87,65) translate(-67,-17)" text-rendering="geometricPrecision" font-family="sans-serif" shape-rendering="geometricPrecision" font-weight="bold" stroke-miterlimit="1.45">
      <text x="49" xml:space="preserve" y="16" clip-path="url(#clipPath5)" stroke="none">Name</text>
    </g>
    <g stroke-linecap="butt" transform="matrix(1,0,0,1,87,65) translate(26,-16)" text-rendering="geometricPrecision" font-family="sans-serif" shape-rendering="geometricPrecision" font-weight="bold" stroke-miterlimit="1.45">
      <polygon points=" 0 0 0 -1 36 -1 35 0" stroke="none" clip-path="url(#clipPath12)"/>
      <polygon clip-path="url(#clipPath7)" transform="translate(35,0) rotate(90)" points=" 0 0 -1 -1 22 -1 21 0" stroke="none"/>
      <polygon clip-path="url(#clipPath13)" transform="translate(35,21) rotate(180)" points=" 0 0 -1 -1 35 -1 35 0" stroke="none"/>
    </g>
    <g stroke-linecap="butt" transform="matrix(1,0,0,1,87,65) translate(-67,-17)" text-rendering="geometricPrecision" font-family="sans-serif" shape-rendering="geometricPrecision" font-weight="bold" stroke-miterlimit="1.45">
      <text x="96" xml:space="preserve" y="16" clip-path="url(#clipPath5)" stroke="none">Unit</text>
    </g>
    <g stroke-linecap="butt" transform="matrix(1,0,0,1,87,65) translate(-22,6) rotate(90)" text-rendering="geometricPrecision" font-family="sans-serif" shape-rendering="geometricPrecision" font-weight="bold" stroke-miterlimit="1.45">
      <polygon points=" 0 0 0 -1 22 -1 21 0" stroke="none" clip-path="url(#clipPath14)"/>
      <polygon clip-path="url(#clipPath8)" transform="rotate(-90) translate(0,21) rotate(180)" points=" 0 0 -1 -1 45 -1 44 0" stroke="none"/>
      <polygon clip-path="url(#clipPath15)" transform="rotate(-90) translate(-44,21) rotate(270)" points=" 0 0 -1 -1 21 -1 21 0" stroke="none"/>
    </g>
    <g text-rendering="geometricPrecision" stroke-miterlimit="1.45" shape-rendering="geometricPrecision" font-family="sans-serif" transform="matrix(1,0,0,1,87,65) translate(-67,-17)" stroke-linecap="butt">
      <text x="4" xml:space="preserve" y="38" clip-path="url(#clipPath5)" stroke="none">Row 0</text>
    </g>
    <g text-rendering="geometricPrecision" stroke-miterlimit="1.45" shape-rendering="geometricPrecision" font-family="sans-serif" transform="matrix(1,0,0,1,87,65) translate(25,6) rotate(90)" stroke-linecap="butt">
      <polygon points=" 0 0 0 -1 22 -1 21 0" stroke="none" clip-path="url(#clipPath14)"/>
      <polygon clip-path="url(#clipPath11)" transform="rotate(-90) translate(0,21) rotate(180)" points=" 0 0 -1 -1 46 -1 46 0" stroke="none"/>
    </g>
    <g text-rendering="geometricPrecision" stroke-miterlimit="1.45" shape-rendering="geometricPrecision" font-family="sans-serif" transform="matrix(1,0,0,1,87,65) translate(-67,-17)" stroke-linecap="butt">
      <text x="49" xml:space="preserve" y="38" clip-path="url(#clipPath5)" stroke="none">toto</text>
    </g>
    <g text-rendering="geometricPrecision" stroke-miterlimit="1.45" shape-rendering="geometricPrecision" font-family="sans-serif" transform="matrix(1,0,0,1,87,65) translate(61,6) rotate(90)" stroke-linecap="butt">
      <polygon points=" 0 0 0 -1 22 -1 21 0" stroke="none" clip-path="url(#clipPath14)"/>
      <polygon clip-path="url(#clipPath13)" transform="rotate(-90) translate(0,21) rotate(180)" points=" 0 0 -1 -1 35 -1 35 0" stroke="none"/>
    </g>
    <g text-rendering="geometricPrecision" stroke-miterlimit="1.45" shape-rendering="geometricPrecision" font-family="sans-serif" transform="matrix(1,0,0,1,87,65) translate(-67,-17)" stroke-linecap="butt">
      <text x="96" xml:space="preserve" y="38" clip-path="url(#clipPath5)" stroke="none">str</text>
    </g>
    <g text-rendering="geometricPrecision" stroke-miterlimit="1.45" shape-rendering="geometricPrecision" font-family="sans-serif" transform="matrix(1,0,0,1,87,65) translate(-22,28) rotate(90)" stroke-linecap="butt">
      <polygon points=" 0 0 0 -1 22 -1 21 0" stroke="none" clip-path="url(#clipPath14)"/>
      <polygon clip-path="url(#clipPath8)" transform="rotate(-90) translate(0,21) rotate(180)" points=" 0 0 -1 -1 45 -1 44 0" stroke="none"/>
      <polygon clip-path="url(#clipPath15)" transform="rotate(-90) translate(-44,21) rotate(270)" points=" 0 0 -1 -1 21 -1 21 0" stroke="none"/>
    </g>
    <g text-rendering="geometricPrecision" stroke-miterlimit="1.45" shape-rendering="geometricPrecision" font-family="sans-serif" transform="matrix(1,0,0,1,87,65) translate(-67,-17)" stroke-linecap="butt">
      <text x="4" xml:space="preserve" y="60" clip-path="url(#clipPath5)" stroke="none">Row 1</text>
    </g>
    <g text-rendering="geometricPrecision" stroke-miterlimit="1.45" shape-rendering="geometricPrecision" font-family="sans-serif" transform="matrix(1,0,0,1,87,65) translate(25,28) rotate(90)" stroke-linecap="butt">
      <polygon points=" 0 0 0 -1 22 -1 21 0" stroke="none" clip-path="url(#clipPath14)"/>
      <polygon clip-path="url(#clipPath11)" transform="rotate(-90) translate(0,21) rotate(180)" points=" 0 0 -1 -1 46 -1 46 0" stroke="none"/>
    </g>
    <g text-rendering="geometricPrecision" stroke-miterlimit="1.45" shape-rendering="geometricPrecision" font-family="sans-serif" transform="matrix(1,0,0,1,87,65) translate(-67,-17)" stroke-linecap="butt">
      <text x="49" xml:space="preserve" y="60" clip-path="url(#clipPath5)" stroke="none">123</text>
    </g>
    <g text-rendering="geometricPrecision" stroke-miterlimit="1.45" shape-rendering="geometricPrecision" font-family="sans-serif" transform="matrix(1,0,0,1,87,65) translate(61,28) rotate(90)" stroke-linecap="butt">
      <polygon points=" 0 0 0 -1 22 -1 21 0" stroke="none" clip-path="url(#clipPath14)"/>
      <polygon clip-path="url(#clipPath13)" transform="rotate(-90) translate(0,21) rotate(180)" points=" 0 0 -1 -1 35 -1 35 0" stroke="none"/>
    </g>
    <g text-rendering="geometricPrecision" stroke-miterlimit="1.45" shape-rendering="geometricPrecision" font-family="sans-serif" transform="matrix(1,0,0,1,87,65) translate(-67,-17)" stroke-linecap="butt">
      <text x="96" xml:space="preserve" y="60" clip-path="url(#clipPath5)" stroke="none">int</text>
    </g>
  </g>
</svg>
