<?xml version="1.0" encoding="UTF-8"?><svg xmlns="http://www.w3.org/2000/svg" xmlns:xlink="http://www.w3.org/1999/xlink" fill-opacity="1" color-rendering="auto" color-interpolation="auto" text-rendering="auto" stroke="black" stroke-linecap="square" width="134" stroke-miterlimit="10" shape-rendering="auto" stroke-opacity="1" fill="black" stroke-dasharray="none" font-weight="normal" stroke-width="1" height="158" font-family="'Dialog'" font-style="normal" stroke-linejoin="miter" font-size="12px" stroke-dashoffset="0" image-rendering="auto">
  <!--Generated by ySVG 2.6-->
  <defs id="genericDefs"/>
  <g>
    <defs id="defs1">
      <clipPath clipPathUnits="userSpaceOnUse" id="clipPath1">
        <path d="M0 0 L134 0 L134 158 L0 158 L0 0 Z"/>
      </clipPath>
      <clipPath clipPathUnits="userSpaceOnUse" id="clipPath2">
        <path d="M-67 -79 L67 -79 L67 79 L-67 79 L-67 -79 Z"/>
      </clipPath>
      <clipPath clipPathUnits="userSpaceOnUse" id="clipPath3">
        <path d="M-51 -63 L-51 63 L52 63 L52 -63 Z"/>
      </clipPath>
    </defs>
    <g fill="white" text-rendering="geometricPrecision" shape-rendering="geometricPrecision" transform="translate(67,79)" stroke="white">
      <rect x="-67" width="134" height="158" y="-79" clip-path="url(#clipPath2)" stroke="none"/>
    </g>
    <g fill="white" text-rendering="geometricPrecision" shape-rendering="geometricPrecision" transform="matrix(1,0,0,1,67,79)" stroke="white">
      <rect x="-51.8682" width="103.7363" height="126.8125" y="-63.4062" clip-path="url(#clipPath2)" stroke="none"/>
    </g>
    <g text-rendering="geometricPrecision" stroke-miterlimit="1.45" shape-rendering="geometricPrecision" transform="matrix(1,0,0,1,67,79)" stroke-linecap="butt">
      <rect fill="none" x="-51.8682" width="103.7363" height="126.8125" y="-63.4062" clip-path="url(#clipPath2)"/>
      <text x="-44.8682" xml:space="preserve" y="-47.2676" clip-path="url(#clipPath3)" font-family="sans-serif" stroke="none">&lt;&lt;abstract&gt;&gt;</text>
      <text x="-27.5625" xml:space="preserve" y="-24.2988" clip-path="url(#clipPath3)" font-family="sans-serif" stroke="none">UmlNode</text>
      <line stroke-linecap="square" clip-path="url(#clipPath3)" fill="none" x1="-50" x2="50" y1="-16" y2="-16" stroke-miterlimit="10"/>
      <text x="-46.8682" xml:space="preserve" y="-0.3301" clip-path="url(#clipPath3)" font-family="sans-serif" stroke="none">foo</text>
      <text x="-46.8682" xml:space="preserve" y="13.6387" clip-path="url(#clipPath3)" font-family="sans-serif" stroke="none">bar</text>
      <line stroke-linecap="square" clip-path="url(#clipPath3)" fill="none" x1="-50" x2="50" y1="21" y2="21" stroke-miterlimit="10"/>
      <text x="-46.8682" xml:space="preserve" y="37.6074" clip-path="url(#clipPath3)" font-family="sans-serif" stroke="none">foo()</text>
      <text x="-46.8682" xml:space="preserve" y="51.5762" clip-path="url(#clipPath3)" font-family="sans-serif" stroke="none">bar()</text>
    </g>
  </g>
</svg>
