<?xml version="1.0" encoding="UTF-8"?><svg xmlns="http://www.w3.org/2000/svg" xmlns:xlink="http://www.w3.org/1999/xlink" fill-opacity="1" color-rendering="auto" color-interpolation="auto" text-rendering="auto" stroke="black" stroke-linecap="square" width="169" stroke-miterlimit="10" shape-rendering="auto" stroke-opacity="1" fill="black" stroke-dasharray="none" font-weight="normal" stroke-width="1" height="188" font-family="'Dialog'" font-style="normal" stroke-linejoin="miter" font-size="12px" stroke-dashoffset="0" image-rendering="auto">
  <!--Generated by ySVG 2.6-->
  <defs id="genericDefs"/>
  <g>
    <defs id="defs1">
      <clipPath clipPathUnits="userSpaceOnUse" id="clipPath1">
        <path d="M0 0 L169 0 L169 188 L0 188 L0 0 Z"/>
      </clipPath>
      <clipPath clipPathUnits="userSpaceOnUse" id="clipPath2">
        <path d="M-15 -133 L154 -133 L154 55 L-15 55 L-15 -133 Z"/>
      </clipPath>
    </defs>
    <g fill="white" text-rendering="geometricPrecision" shape-rendering="geometricPrecision" transform="translate(15,133)" stroke="white">
      <rect x="-15" width="169" height="188" y="-133" clip-path="url(#clipPath2)" stroke="none"/>
    </g>
    <g fill="rgb(153,205,255)" text-rendering="geometricPrecision" shape-rendering="geometricPrecision" transform="matrix(1,0,0,1,15,133)" stroke="rgb(153,205,255)">
      <rect x="0" width="21.6348" height="30" y="-110" clip-path="url(#clipPath2)" stroke="none"/>
    </g>
    <g text-rendering="geometricPrecision" stroke-miterlimit="1.45" shape-rendering="geometricPrecision" font-family="sans-serif" transform="matrix(1,0,0,1,15,133)" stroke-linecap="butt">
      <text x="7" xml:space="preserve" y="-90.8457" clip-path="url(#clipPath2)" stroke="none">1</text>
      <rect fill="none" x="0" width="21.6348" height="30" y="-110" clip-path="url(#clipPath2)"/>
    </g>
    <g fill="rgb(153,205,255)" text-rendering="geometricPrecision" shape-rendering="geometricPrecision" transform="matrix(1,0,0,1,15,133)" stroke="rgb(153,205,255)">
      <rect x="52.7666" width="28.9883" height="30" y="-117.5" clip-path="url(#clipPath2)" stroke="none"/>
    </g>
    <g text-rendering="geometricPrecision" stroke-miterlimit="1.45" shape-rendering="geometricPrecision" font-family="sans-serif" transform="matrix(1,0,0,1,15,133)" stroke-linecap="butt">
      <text x="59.7666" xml:space="preserve" y="-98.3457" clip-path="url(#clipPath2)" stroke="none">1a</text>
      <rect fill="none" x="52.7666" width="28.9883" height="30" y="-117.5" clip-path="url(#clipPath2)"/>
    </g>
    <g fill="rgb(153,205,255)" text-rendering="geometricPrecision" shape-rendering="geometricPrecision" transform="matrix(1,0,0,1,15,133)" stroke="rgb(153,205,255)">
      <rect x="101.7549" width="36.3418" height="30" y="-117.5" clip-path="url(#clipPath2)" stroke="none"/>
    </g>
    <g text-rendering="geometricPrecision" stroke-miterlimit="1.45" shape-rendering="geometricPrecision" font-family="sans-serif" transform="matrix(1,0,0,1,15,133)" stroke-linecap="butt">
      <text x="108.7549" xml:space="preserve" y="-98.3457" clip-path="url(#clipPath2)" stroke="none">1aa</text>
      <rect fill="none" x="101.7549" width="36.3418" height="30" y="-117.5" clip-path="url(#clipPath2)"/>
    </g>
    <g fill="rgb(153,205,255)" text-rendering="geometricPrecision" shape-rendering="geometricPrecision" transform="matrix(1,0,0,1,15,133)" stroke="rgb(153,205,255)">
      <rect x="52.6348" width="29.252" height="30" y="-57.5" clip-path="url(#clipPath2)" stroke="none"/>
    </g>
    <g text-rendering="geometricPrecision" stroke-miterlimit="1.45" shape-rendering="geometricPrecision" font-family="sans-serif" transform="matrix(1,0,0,1,15,133)" stroke-linecap="butt">
      <text x="59.6348" xml:space="preserve" y="-38.3457" clip-path="url(#clipPath2)" stroke="none">1b</text>
      <rect fill="none" x="52.6348" width="29.252" height="30" y="-57.5" clip-path="url(#clipPath2)"/>
    </g>
    <g fill="rgb(153,205,255)" text-rendering="geometricPrecision" shape-rendering="geometricPrecision" transform="matrix(1,0,0,1,15,133)" stroke="rgb(153,205,255)">
      <rect x="0" width="21.6348" height="30" y="-50" clip-path="url(#clipPath2)" stroke="none"/>
    </g>
    <g text-rendering="geometricPrecision" stroke-miterlimit="1.45" shape-rendering="geometricPrecision" font-family="sans-serif" transform="matrix(1,0,0,1,15,133)" stroke-linecap="butt">
      <text x="7" xml:space="preserve" y="-30.8457" clip-path="url(#clipPath2)" stroke="none">2</text>
      <rect fill="none" x="0" width="21.6348" height="30" y="-50" clip-path="url(#clipPath2)"/>
    </g>
    <g fill="rgb(153,205,255)" text-rendering="geometricPrecision" shape-rendering="geometricPrecision" transform="matrix(1,0,0,1,15,133)" stroke="rgb(153,205,255)">
      <rect x="0" width="21.6348" height="30" y="10" clip-path="url(#clipPath2)" stroke="none"/>
    </g>
    <g text-rendering="geometricPrecision" stroke-miterlimit="1.45" shape-rendering="geometricPrecision" font-family="sans-serif" transform="matrix(1,0,0,1,15,133)" stroke-linecap="butt">
      <text x="7" xml:space="preserve" y="29.1543" clip-path="url(#clipPath2)" stroke="none">3</text>
      <rect fill="none" x="0" width="21.6348" height="30" y="10" clip-path="url(#clipPath2)"/>
    </g>
    <g fill="rgb(153,205,255)" text-rendering="geometricPrecision" shape-rendering="geometricPrecision" transform="matrix(1,0,0,1,15,133)" stroke="rgb(153,205,255)">
      <rect x="52.7666" width="28.9883" height="30" y="10" clip-path="url(#clipPath2)" stroke="none"/>
    </g>
    <g text-rendering="geometricPrecision" stroke-miterlimit="1.45" shape-rendering="geometricPrecision" font-family="sans-serif" transform="matrix(1,0,0,1,15,133)" stroke-linecap="butt">
      <text x="59.7666" xml:space="preserve" y="29.1543" clip-path="url(#clipPath2)" stroke="none">3a</text>
      <rect fill="none" x="52.7666" width="28.9883" height="30" y="10" clip-path="url(#clipPath2)"/>
      <path fill="none" d="M21.6348 -102.5 L44.7362 -102.5" clip-path="url(#clipPath2)" stroke="rgb(1,1,207)"/>
      <path fill="rgb(1,1,207)" d="M52.7362 -102.5 L40.7362 -107.5 L43.7362 -102.5 L40.7362 -97.5 Z" clip-path="url(#clipPath2)" stroke="none"/>
      <path fill="none" d="M81.7549 -102.5 L93.7158 -102.5" clip-path="url(#clipPath2)" stroke="rgb(1,1,207)"/>
      <path fill="rgb(1,1,207)" d="M101.7158 -102.5 L89.7158 -107.5 L92.7158 -102.5 L89.7158 -97.5 Z" clip-path="url(#clipPath2)" stroke="none"/>
      <path fill="none" d="M21.6348 -87.5 L37.1348 -87.5 L37.1348 -42.5 L44.6045 -42.5" clip-path="url(#clipPath2)" stroke="rgb(1,1,207)"/>
      <path fill="rgb(1,1,207)" d="M52.6045 -42.5 L40.6045 -47.5 L43.6045 -42.5 L40.6045 -37.5 Z" clip-path="url(#clipPath2)" stroke="none"/>
      <path fill="none" d="M21.6348 25 L44.7362 25" clip-path="url(#clipPath2)" stroke="rgb(1,1,207)"/>
      <path fill="rgb(1,1,207)" d="M52.7362 25 L40.7362 20 L43.7362 25 L40.7362 30 Z" clip-path="url(#clipPath2)" stroke="none"/>
    </g>
  </g>
</svg>
