<?xml version="1.0" encoding="UTF-8"?><svg xmlns="http://www.w3.org/2000/svg" xmlns:xlink="http://www.w3.org/1999/xlink" fill-opacity="1" color-rendering="auto" color-interpolation="auto" text-rendering="auto" stroke="black" stroke-linecap="square" width="371" stroke-miterlimit="10" shape-rendering="auto" stroke-opacity="1" fill="black" stroke-dasharray="none" font-weight="normal" stroke-width="1" height="137" font-family="'Dialog'" font-style="normal" stroke-linejoin="miter" font-size="12px" stroke-dashoffset="0" image-rendering="auto">
  <!--Generated by ySVG 2.6-->
  <defs id="genericDefs"/>
  <g>
    <defs id="defs1">
      <clipPath clipPathUnits="userSpaceOnUse" id="clipPath1">
        <path d="M0 0 L371 0 L371 137 L0 137 L0 0 Z"/>
      </clipPath>
      <clipPath clipPathUnits="userSpaceOnUse" id="clipPath2">
        <path d="M5 -15 L376 -15 L376 122 L5 122 L5 -15 Z"/>
      </clipPath>
    </defs>
    <g fill="white" text-rendering="geometricPrecision" shape-rendering="geometricPrecision" transform="translate(-5,15)" stroke="white">
      <rect x="5" width="371" height="137" y="-15" clip-path="url(#clipPath2)" stroke="none"/>
    </g>
    <g fill="white" text-rendering="geometricPrecision" shape-rendering="geometricPrecision" transform="matrix(1,0,0,1,-5,15)" stroke="white">
      <rect x="157.1654" width="68.4629" height="30" y="0" clip-path="url(#clipPath2)" stroke="none"/>
    </g>
    <g text-rendering="geometricPrecision" stroke-miterlimit="1.45" shape-rendering="geometricPrecision" font-family="sans-serif" transform="matrix(1,0,0,1,-5,15)" stroke-linecap="butt">
      <text x="159.1654" xml:space="preserve" y="13.1387" clip-path="url(#clipPath2)" stroke="none">line_type</text>
      <rect fill="none" x="157.1654" width="68.4629" height="30" y="0" clip-path="url(#clipPath2)"/>
    </g>
    <g fill="white" text-rendering="geometricPrecision" shape-rendering="geometricPrecision" transform="matrix(1,0,0,1,-5,15)" stroke="white">
      <rect x="20" width="35.6562" height="30" y="77" clip-path="url(#clipPath2)" stroke="none"/>
    </g>
    <g text-rendering="geometricPrecision" stroke-miterlimit="1.45" shape-rendering="geometricPrecision" font-family="sans-serif" transform="matrix(1,0,0,1,-5,15)" stroke-linecap="butt">
      <text x="22" xml:space="preserve" y="90.1387" clip-path="url(#clipPath2)" stroke="none">line</text>
      <rect fill="none" x="20" width="35.6562" height="30" y="77" clip-path="url(#clipPath2)"/>
    </g>
    <g fill="white" text-rendering="geometricPrecision" shape-rendering="geometricPrecision" transform="matrix(1,0,0,1,-5,15)" stroke="white">
      <rect x="302.2232" width="57.8281" height="30" y="77" clip-path="url(#clipPath2)" stroke="none"/>
    </g>
    <g text-rendering="geometricPrecision" stroke-miterlimit="1.45" shape-rendering="geometricPrecision" font-family="sans-serif" transform="matrix(1,0,0,1,-5,15)" stroke-linecap="butt">
      <text x="304.2232" xml:space="preserve" y="90.1387" clip-path="url(#clipPath2)" stroke="none">dashed</text>
      <rect fill="none" x="302.2232" width="57.8281" height="30" y="77" clip-path="url(#clipPath2)"/>
    </g>
    <g fill="white" text-rendering="geometricPrecision" shape-rendering="geometricPrecision" transform="matrix(1,0,0,1,-5,15)" stroke="white">
      <rect x="218.8539" width="53.3691" height="30" y="77" clip-path="url(#clipPath2)" stroke="none"/>
    </g>
    <g text-rendering="geometricPrecision" stroke-miterlimit="1.45" shape-rendering="geometricPrecision" font-family="sans-serif" transform="matrix(1,0,0,1,-5,15)" stroke-linecap="butt">
      <text x="220.8539" xml:space="preserve" y="90.1387" clip-path="url(#clipPath2)" stroke="none">dotted</text>
      <rect fill="none" x="218.8539" width="53.3691" height="30" y="77" clip-path="url(#clipPath2)"/>
    </g>
    <g fill="white" text-rendering="geometricPrecision" shape-rendering="geometricPrecision" transform="matrix(1,0,0,1,-5,15)" stroke="white">
      <rect x="85.6565" width="103.1973" height="30" y="77" clip-path="url(#clipPath2)" stroke="none"/>
    </g>
    <g text-rendering="geometricPrecision" stroke-miterlimit="1.45" shape-rendering="geometricPrecision" font-family="sans-serif" transform="matrix(1,0,0,1,-5,15)" stroke-linecap="butt">
      <text x="87.6565" xml:space="preserve" y="90.1387" clip-path="url(#clipPath2)" stroke="none">dashed_dotted</text>
      <rect fill="none" x="85.6565" width="103.1973" height="30" y="77" clip-path="url(#clipPath2)"/>
      <path fill="none" d="M165.7232 30 L165.7232 45.5 L37.8282 45.5 L37.8282 68.9692" clip-path="url(#clipPath2)"/>
      <path d="M37.8282 76.9692 L42.8282 64.9692 L37.8282 67.9692 L32.8282 64.9692 Z" clip-path="url(#clipPath2)" stroke="none"/>
      <path fill="none" stroke-dasharray="6,2" d="M217.0704 30 L217.0704 45.5 L331.1373 45.5 L331.1373 68.9692" clip-path="url(#clipPath2)"/>
      <path stroke-dasharray="6,2" d="M331.1373 76.9692 L336.1373 64.9692 L331.1373 67.9692 L326.1373 64.9692 Z" clip-path="url(#clipPath2)" stroke="none"/>
    </g>
    <g stroke-linecap="round" transform="matrix(1,0,0,1,-5,15)" stroke-dashoffset="2" text-rendering="geometricPrecision" shape-rendering="geometricPrecision" stroke-dasharray="0,4" stroke-miterlimit="1.45">
      <path fill="none" d="M199.9547 30 L199.9547 61.5 L245.5385 61.5 L245.5385 68.9697" clip-path="url(#clipPath2)"/>
      <path d="M245.5385 76.9697 L250.5385 64.9697 L245.5385 67.9697 L240.5385 64.9697 Z" clip-path="url(#clipPath2)" stroke="none"/>
      <path fill="none" stroke-dasharray="4,3,0,3" d="M182.839 30 L182.839 61.5 L137.2552 61.5 L137.2552 68.9697" stroke-dashoffset="0" clip-path="url(#clipPath2)"/>
      <path stroke-dasharray="4,3,0,3" d="M137.2552 76.9697 L142.2552 64.9697 L137.2552 67.9697 L132.2552 64.9697 Z" stroke-dashoffset="0" clip-path="url(#clipPath2)" stroke="none"/>
    </g>
  </g>
</svg>
