<?xml version="1.0" encoding="UTF-8"?><svg xmlns="http://www.w3.org/2000/svg" xmlns:xlink="http://www.w3.org/1999/xlink" fill-opacity="1" color-rendering="auto" color-interpolation="auto" text-rendering="auto" stroke="black" stroke-linecap="square" width="135" stroke-miterlimit="10" shape-rendering="auto" stroke-opacity="1" fill="black" stroke-dasharray="none" font-weight="normal" stroke-width="1" height="138" font-family="'Dialog'" font-style="normal" stroke-linejoin="miter" font-size="12px" stroke-dashoffset="0" image-rendering="auto">
  <!--Generated by ySVG 2.6-->
  <defs id="genericDefs"/>
  <g>
    <defs id="defs1">
      <clipPath clipPathUnits="userSpaceOnUse" id="clipPath1">
        <path d="M0 0 L135 0 L135 138 L0 138 L0 0 Z"/>
      </clipPath>
      <clipPath clipPathUnits="userSpaceOnUse" id="clipPath2">
        <path d="M-15 -15 L120 -15 L120 123 L-15 123 L-15 -15 Z"/>
      </clipPath>
    </defs>
    <g fill="white" text-rendering="geometricPrecision" shape-rendering="geometricPrecision" transform="translate(15,15)" stroke="white">
      <rect x="-15" width="135" height="138" y="-15" clip-path="url(#clipPath2)" stroke="none"/>
    </g>
    <g fill="white" text-rendering="geometricPrecision" shape-rendering="geometricPrecision" transform="matrix(1,0,0,1,15,15)" stroke="white">
      <rect x="0" width="104.873" height="30" y="0" clip-path="url(#clipPath2)" stroke="none"/>
    </g>
    <g text-rendering="geometricPrecision" stroke-miterlimit="1.45" shape-rendering="geometricPrecision" font-family="sans-serif" transform="matrix(1,0,0,1,15,15)" stroke-linecap="butt">
      <text x="2" xml:space="preserve" y="13.1387" clip-path="url(#clipPath2)" stroke="none">node1 (source)</text>
      <rect fill="none" x="0" width="104.873" height="30" y="0" clip-path="url(#clipPath2)"/>
    </g>
    <g fill="white" text-rendering="geometricPrecision" shape-rendering="geometricPrecision" transform="matrix(1,0,0,1,15,15)" stroke="white">
      <rect x="1.708" width="101.457" height="30" y="77.4688" clip-path="url(#clipPath2)" stroke="none"/>
    </g>
    <g text-rendering="geometricPrecision" stroke-miterlimit="1.45" shape-rendering="geometricPrecision" font-family="sans-serif" transform="matrix(1,0,0,1,15,15)" stroke-linecap="butt">
      <text x="3.708" xml:space="preserve" y="90.6074" clip-path="url(#clipPath2)" stroke="none">node2 (target)</text>
      <rect fill="none" x="1.708" width="101.457" height="30" y="77.4688" clip-path="url(#clipPath2)"/>
      <path fill="none" d="M52.4365 30 L52.4365 69.4688" clip-path="url(#clipPath2)"/>
      <path d="M52.4365 77.4688 L57.4365 65.4688 L52.4365 68.4688 L47.4365 65.4688 Z" clip-path="url(#clipPath2)" stroke="none"/>
      <rect x="35.3369" y="44.75" clip-path="url(#clipPath2)" fill="white" width="34.1992" height="17.9688" stroke="none"/>
      <text x="37.3369" xml:space="preserve" y="57.8887" clip-path="url(#clipPath2)" stroke="none">Edge</text>
    </g>
  </g>
</svg>
