<?xml version="1.0" encoding="UTF-8"?><svg xmlns="http://www.w3.org/2000/svg" xmlns:xlink="http://www.w3.org/1999/xlink" fill-opacity="1" color-rendering="auto" color-interpolation="auto" text-rendering="auto" stroke="black" stroke-linecap="square" width="836" stroke-miterlimit="10" shape-rendering="auto" stroke-opacity="1" fill="black" stroke-dasharray="none" font-weight="normal" stroke-width="1" height="759" font-family="'Dialog'" font-style="normal" stroke-linejoin="miter" font-size="12px" stroke-dashoffset="0" image-rendering="auto">
  <!--Generated by ySVG 2.6-->
  <defs id="genericDefs"/>
  <g>
    <defs id="defs1">
      <clipPath clipPathUnits="userSpaceOnUse" id="clipPath1">
        <path d="M0 0 L836 0 L836 759 L0 759 L0 0 Z"/>
      </clipPath>
      <clipPath clipPathUnits="userSpaceOnUse" id="clipPath2">
        <path d="M-448 -380 L388 -380 L388 379 L-448 379 L-448 -380 Z"/>
      </clipPath>
      <clipPath clipPathUnits="userSpaceOnUse" id="clipPath3">
        <path d="M-665.9415 -471.9626 L148.1332 -281.7567 L-24.5538 457.3375 L-838.6285 267.1315 L-665.9415 -471.9626 Z"/>
      </clipPath>
      <clipPath clipPathUnits="userSpaceOnUse" id="clipPath4">
        <path d="M-552.5183 -538.688 L197.6929 -169.799 L-137.2195 511.3139 L-887.4307 142.4249 L-552.5183 -538.688 Z"/>
      </clipPath>
      <clipPath clipPathUnits="userSpaceOnUse" id="clipPath5">
        <path d="M232.5458 -162.513 L-230.5175 533.5247 L-862.4464 113.112 L-399.3831 -582.9257 L232.5458 -162.513 Z"/>
      </clipPath>
      <clipPath clipPathUnits="userSpaceOnUse" id="clipPath6">
        <path d="M250.4643 166.5926 L-514.2599 504.3691 L-820.9254 -189.92 L-56.2012 -527.6965 L250.4643 166.5926 Z"/>
      </clipPath>
      <clipPath clipPathUnits="userSpaceOnUse" id="clipPath7">
        <path d="M0 10 L0 -10 L-12 -10 L-12 10 L0 10 Z"/>
      </clipPath>
      <clipPath clipPathUnits="userSpaceOnUse" id="clipPath8">
        <path d="M126.2289 440.3337 L-701.1254 320.4131 L-592.2502 -430.7374 L235.1041 -310.8169 L126.2289 440.3337 Z"/>
      </clipPath>
      <clipPath clipPathUnits="userSpaceOnUse" id="clipPath9">
        <path d="M-12 10 L0 10 L-0 -10 L-12 -10 L-12 10 Z"/>
      </clipPath>
      <clipPath clipPathUnits="userSpaceOnUse" id="clipPath10">
        <path d="M-160.7452 564.6204 L-856.5236 101.1677 L-435.7574 -530.5259 L260.0211 -67.0732 L-160.7452 564.6204 Z"/>
      </clipPath>
      <clipPath clipPathUnits="userSpaceOnUse" id="clipPath11">
        <path d="M-611.7795 517.983 L-787.8489 -299.2657 L-45.8731 -459.1182 L130.1963 358.1306 L-611.7795 517.983 Z"/>
      </clipPath>
    </defs>
    <g fill="white" text-rendering="geometricPrecision" shape-rendering="geometricPrecision" transform="translate(448,380)" stroke="white">
      <rect x="-448" width="836" height="759" y="-380" clip-path="url(#clipPath2)" stroke="none"/>
    </g>
    <g fill="white" text-rendering="geometricPrecision" shape-rendering="geometricPrecision" transform="matrix(1,0,0,1,448,380)" stroke="white">
      <rect x="-39.168" width="78.3359" height="30" y="-15" clip-path="url(#clipPath2)" stroke="none"/>
    </g>
    <g text-rendering="geometricPrecision" stroke-miterlimit="1.45" shape-rendering="geometricPrecision" font-family="sans-serif" transform="matrix(1,0,0,1,448,380)" stroke-linecap="butt">
      <text x="-37.168" xml:space="preserve" y="-1.8613" clip-path="url(#clipPath2)" stroke="none">arrowhead</text>
      <rect fill="none" x="-39.168" width="78.3359" height="30" y="-15" clip-path="url(#clipPath2)"/>
    </g>
    <g fill="white" text-rendering="geometricPrecision" shape-rendering="geometricPrecision" transform="matrix(1,0,0,1,448,380)" stroke="white">
      <rect x="10.5936" width="43.9355" height="30" y="333.4821" clip-path="url(#clipPath2)" stroke="none"/>
    </g>
    <g text-rendering="geometricPrecision" stroke-miterlimit="1.45" shape-rendering="geometricPrecision" font-family="sans-serif" transform="matrix(1,0,0,1,448,380)" stroke-linecap="butt">
      <text x="12.5936" xml:space="preserve" y="346.6208" clip-path="url(#clipPath2)" stroke="none">none</text>
      <rect fill="none" x="10.5936" width="43.9355" height="30" y="333.4821" clip-path="url(#clipPath2)"/>
    </g>
    <g fill="white" text-rendering="geometricPrecision" shape-rendering="geometricPrecision" transform="matrix(1,0,0,1,448,380)" stroke="white">
      <rect x="72.6993" width="67.4375" height="30" y="318.4295" clip-path="url(#clipPath2)" stroke="none"/>
    </g>
    <g text-rendering="geometricPrecision" stroke-miterlimit="1.45" shape-rendering="geometricPrecision" font-family="sans-serif" transform="matrix(1,0,0,1,448,380)" stroke-linecap="butt">
      <text x="74.6993" xml:space="preserve" y="331.5681" clip-path="url(#clipPath2)" stroke="none">standard</text>
      <rect fill="none" x="72.6993" width="67.4375" height="30" y="318.4295" clip-path="url(#clipPath2)"/>
    </g>
    <g fill="white" text-rendering="geometricPrecision" shape-rendering="geometricPrecision" transform="matrix(1,0,0,1,448,380)" stroke="white">
      <rect x="148.7575" width="83.2344" height="30" y="278.6963" clip-path="url(#clipPath2)" stroke="none"/>
    </g>
    <g text-rendering="geometricPrecision" stroke-miterlimit="1.45" shape-rendering="geometricPrecision" font-family="sans-serif" transform="matrix(1,0,0,1,448,380)" stroke-linecap="butt">
      <text x="150.7575" xml:space="preserve" y="291.8349" clip-path="url(#clipPath2)" stroke="none">white_delta</text>
      <rect fill="none" x="148.7575" width="83.2344" height="30" y="278.6963" clip-path="url(#clipPath2)"/>
    </g>
    <g fill="white" text-rendering="geometricPrecision" shape-rendering="geometricPrecision" transform="matrix(1,0,0,1,448,380)" stroke="white">
      <rect x="227.3768" width="66.5586" height="30" y="218.5774" clip-path="url(#clipPath2)" stroke="none"/>
    </g>
    <g text-rendering="geometricPrecision" stroke-miterlimit="1.45" shape-rendering="geometricPrecision" font-family="sans-serif" transform="matrix(1,0,0,1,448,380)" stroke-linecap="butt">
      <text x="229.3768" xml:space="preserve" y="231.7161" clip-path="url(#clipPath2)" stroke="none">diamond</text>
      <rect fill="none" x="227.3768" width="66.5586" height="30" y="218.5774" clip-path="url(#clipPath2)"/>
    </g>
    <g fill="white" text-rendering="geometricPrecision" shape-rendering="geometricPrecision" transform="matrix(1,0,0,1,448,380)" stroke="white">
      <rect x="264.633" width="105.4004" height="30" y="132.647" clip-path="url(#clipPath2)" stroke="none"/>
    </g>
    <g text-rendering="geometricPrecision" stroke-miterlimit="1.45" shape-rendering="geometricPrecision" font-family="sans-serif" transform="matrix(1,0,0,1,448,380)" stroke-linecap="butt">
      <text x="266.633" xml:space="preserve" y="145.7857" clip-path="url(#clipPath2)" stroke="none">white_diamond</text>
      <rect fill="none" x="264.633" width="105.4004" height="30" y="132.647" clip-path="url(#clipPath2)"/>
    </g>
    <g fill="white" text-rendering="geometricPrecision" shape-rendering="geometricPrecision" transform="matrix(1,0,0,1,448,380)" stroke="white">
      <rect x="322.681" width="44.8379" height="30" y="43.3614" clip-path="url(#clipPath2)" stroke="none"/>
    </g>
    <g text-rendering="geometricPrecision" stroke-miterlimit="1.45" shape-rendering="geometricPrecision" font-family="sans-serif" transform="matrix(1,0,0,1,448,380)" stroke-linecap="butt">
      <text x="324.681" xml:space="preserve" y="56.5001" clip-path="url(#clipPath2)" stroke="none">short</text>
      <rect fill="none" x="322.681" width="44.8379" height="30" y="43.3614" clip-path="url(#clipPath2)"/>
    </g>
    <g fill="white" text-rendering="geometricPrecision" shape-rendering="geometricPrecision" transform="matrix(1,0,0,1,448,380)" stroke="white">
      <rect x="328.3144" width="43.2441" height="30" y="-21.6704" clip-path="url(#clipPath2)" stroke="none"/>
    </g>
    <g text-rendering="geometricPrecision" stroke-miterlimit="1.45" shape-rendering="geometricPrecision" font-family="sans-serif" transform="matrix(1,0,0,1,448,380)" stroke-linecap="butt">
      <text x="330.3144" xml:space="preserve" y="-8.5318" clip-path="url(#clipPath2)" stroke="none">plain</text>
      <rect fill="none" x="328.3144" width="43.2441" height="30" y="-21.6704" clip-path="url(#clipPath2)"/>
    </g>
    <g fill="white" text-rendering="geometricPrecision" shape-rendering="geometricPrecision" transform="matrix(1,0,0,1,448,380)" stroke="white">
      <rect x="308.8306" width="63.9805" height="30" y="-94.6316" clip-path="url(#clipPath2)" stroke="none"/>
    </g>
    <g text-rendering="geometricPrecision" stroke-miterlimit="1.45" shape-rendering="geometricPrecision" font-family="sans-serif" transform="matrix(1,0,0,1,448,380)" stroke-linecap="butt">
      <text x="310.8306" xml:space="preserve" y="-81.4929" clip-path="url(#clipPath2)" stroke="none">concave</text>
      <rect fill="none" x="308.8306" width="63.9805" height="30" y="-94.6316" clip-path="url(#clipPath2)"/>
    </g>
    <g fill="white" text-rendering="geometricPrecision" shape-rendering="geometricPrecision" transform="matrix(1,0,0,1,448,380)" stroke="white">
      <rect x="285.5186" width="57.1309" height="30" y="-169.4385" clip-path="url(#clipPath2)" stroke="none"/>
    </g>
    <g text-rendering="geometricPrecision" stroke-miterlimit="1.45" shape-rendering="geometricPrecision" font-family="sans-serif" transform="matrix(1,0,0,1,448,380)" stroke-linecap="butt">
      <text x="287.5186" xml:space="preserve" y="-156.2998" clip-path="url(#clipPath2)" stroke="none">convex</text>
      <rect fill="none" x="285.5186" width="57.1309" height="30" y="-169.4385" clip-path="url(#clipPath2)"/>
    </g>
    <g fill="white" text-rendering="geometricPrecision" shape-rendering="geometricPrecision" transform="matrix(1,0,0,1,448,380)" stroke="white">
      <rect x="252.9391" width="46.1797" height="30" y="-230.193" clip-path="url(#clipPath2)" stroke="none"/>
    </g>
    <g text-rendering="geometricPrecision" stroke-miterlimit="1.45" shape-rendering="geometricPrecision" font-family="sans-serif" transform="matrix(1,0,0,1,448,380)" stroke-linecap="butt">
      <text x="254.9391" xml:space="preserve" y="-217.0544" clip-path="url(#clipPath2)" stroke="none">circle</text>
      <rect fill="none" x="252.9391" width="46.1797" height="30" y="-230.193" clip-path="url(#clipPath2)"/>
    </g>
    <g fill="white" text-rendering="geometricPrecision" shape-rendering="geometricPrecision" transform="matrix(1,0,0,1,448,380)" stroke="white">
      <rect x="140.6984" width="122.627" height="30" y="-300.8167" clip-path="url(#clipPath2)" stroke="none"/>
    </g>
    <g text-rendering="geometricPrecision" stroke-miterlimit="1.45" shape-rendering="geometricPrecision" font-family="sans-serif" transform="matrix(1,0,0,1,448,380)" stroke-linecap="butt">
      <text x="142.6984" xml:space="preserve" y="-287.678" clip-path="url(#clipPath2)" stroke="none">transparent_circle</text>
      <rect fill="none" x="140.6984" width="122.627" height="30" y="-300.8167" clip-path="url(#clipPath2)"/>
    </g>
    <g fill="white" text-rendering="geometricPrecision" shape-rendering="geometricPrecision" transform="matrix(1,0,0,1,448,380)" stroke="white">
      <rect x="90.6384" width="42.8281" height="30" y="-346.5784" clip-path="url(#clipPath2)" stroke="none"/>
    </g>
    <g text-rendering="geometricPrecision" stroke-miterlimit="1.45" shape-rendering="geometricPrecision" font-family="sans-serif" transform="matrix(1,0,0,1,448,380)" stroke-linecap="butt">
      <text x="92.6384" xml:space="preserve" y="-333.4398" clip-path="url(#clipPath2)" stroke="none">dash</text>
      <rect fill="none" x="90.6384" width="42.8281" height="30" y="-346.5784" clip-path="url(#clipPath2)"/>
    </g>
    <g fill="white" text-rendering="geometricPrecision" shape-rendering="geometricPrecision" transform="matrix(1,0,0,1,448,380)" stroke="white">
      <rect x="-20.6826" width="94.2266" height="30" y="-364.0006" clip-path="url(#clipPath2)" stroke="none"/>
    </g>
    <g text-rendering="geometricPrecision" stroke-miterlimit="1.45" shape-rendering="geometricPrecision" font-family="sans-serif" transform="matrix(1,0,0,1,448,380)" stroke-linecap="butt">
      <text x="-18.6826" xml:space="preserve" y="-350.8619" clip-path="url(#clipPath2)" stroke="none">skewed_dash</text>
      <rect fill="none" x="-20.6826" width="94.2266" height="30" y="-364.0006" clip-path="url(#clipPath2)"/>
    </g>
    <g fill="white" text-rendering="geometricPrecision" shape-rendering="geometricPrecision" transform="matrix(1,0,0,1,448,380)" stroke="white">
      <rect x="-98.968" width="60.916" height="30" y="-358.2293" clip-path="url(#clipPath2)" stroke="none"/>
    </g>
    <g text-rendering="geometricPrecision" stroke-miterlimit="1.45" shape-rendering="geometricPrecision" font-family="sans-serif" transform="matrix(1,0,0,1,448,380)" stroke-linecap="butt">
      <text x="-96.968" xml:space="preserve" y="-345.0907" clip-path="url(#clipPath2)" stroke="none">t_shape</text>
      <rect fill="none" x="-98.968" width="60.916" height="30" y="-358.2293" clip-path="url(#clipPath2)"/>
    </g>
    <g fill="white" text-rendering="geometricPrecision" shape-rendering="geometricPrecision" transform="matrix(1,0,0,1,448,380)" stroke="white">
      <rect x="-283.1582" width="178.584" height="30" y="-306.4033" clip-path="url(#clipPath2)" stroke="none"/>
    </g>
    <g text-rendering="geometricPrecision" stroke-miterlimit="1.45" shape-rendering="geometricPrecision" font-family="sans-serif" transform="matrix(1,0,0,1,448,380)" stroke-linecap="butt">
      <text x="-281.1582" xml:space="preserve" y="-293.2646" clip-path="url(#clipPath2)" stroke="none">crows_foot_one_mandatory</text>
      <rect fill="none" x="-283.1582" width="178.584" height="30" y="-306.4033" clip-path="url(#clipPath2)"/>
    </g>
    <g fill="white" text-rendering="geometricPrecision" shape-rendering="geometricPrecision" transform="matrix(1,0,0,1,448,380)" stroke="white">
      <rect x="-415.1616" width="190.0039" height="30" y="-156.4135" clip-path="url(#clipPath2)" stroke="none"/>
    </g>
    <g text-rendering="geometricPrecision" stroke-miterlimit="1.45" shape-rendering="geometricPrecision" font-family="sans-serif" transform="matrix(1,0,0,1,448,380)" stroke-linecap="butt">
      <text x="-413.1617" xml:space="preserve" y="-143.2748" clip-path="url(#clipPath2)" stroke="none">crows_foot_many_mandatory</text>
      <rect fill="none" x="-415.1616" width="190.0039" height="30" y="-156.4135" clip-path="url(#clipPath2)"/>
    </g>
    <g fill="white" text-rendering="geometricPrecision" shape-rendering="geometricPrecision" transform="matrix(1,0,0,1,448,380)" stroke="white">
      <rect x="-432.8482" width="172.9355" height="30" y="35.2059" clip-path="url(#clipPath2)" stroke="none"/>
    </g>
    <g text-rendering="geometricPrecision" stroke-miterlimit="1.45" shape-rendering="geometricPrecision" font-family="sans-serif" transform="matrix(1,0,0,1,448,380)" stroke-linecap="butt">
      <text x="-430.8481" xml:space="preserve" y="48.3445" clip-path="url(#clipPath2)" stroke="none">crows_foot_many_optional</text>
      <rect fill="none" x="-432.8482" width="172.9355" height="30" y="35.2059" clip-path="url(#clipPath2)"/>
    </g>
    <g fill="white" text-rendering="geometricPrecision" shape-rendering="geometricPrecision" transform="matrix(1,0,0,1,448,380)" stroke="white">
      <rect x="-344.7362" width="106.8828" height="30" y="179.0292" clip-path="url(#clipPath2)" stroke="none"/>
    </g>
    <g text-rendering="geometricPrecision" stroke-miterlimit="1.45" shape-rendering="geometricPrecision" font-family="sans-serif" transform="matrix(1,0,0,1,448,380)" stroke-linecap="butt">
      <text x="-342.7362" xml:space="preserve" y="192.1679" clip-path="url(#clipPath2)" stroke="none">crows_foot_one</text>
      <rect fill="none" x="-344.7362" width="106.8828" height="30" y="179.0292" clip-path="url(#clipPath2)"/>
    </g>
    <g fill="white" text-rendering="geometricPrecision" shape-rendering="geometricPrecision" transform="matrix(1,0,0,1,448,380)" stroke="white">
      <rect x="-261.3485" width="118.3027" height="30" y="270.6857" clip-path="url(#clipPath2)" stroke="none"/>
    </g>
    <g text-rendering="geometricPrecision" stroke-miterlimit="1.45" shape-rendering="geometricPrecision" font-family="sans-serif" transform="matrix(1,0,0,1,448,380)" stroke-linecap="butt">
      <text x="-259.3485" xml:space="preserve" y="283.8243" clip-path="url(#clipPath2)" stroke="none">crows_foot_many</text>
      <rect fill="none" x="-261.3485" width="118.3027" height="30" y="270.6857" clip-path="url(#clipPath2)"/>
    </g>
    <g fill="white" text-rendering="geometricPrecision" shape-rendering="geometricPrecision" transform="matrix(1,0,0,1,448,380)" stroke="white">
      <rect x="-140.306" width="133.1855" height="30" y="327.1496" clip-path="url(#clipPath2)" stroke="none"/>
    </g>
    <g text-rendering="geometricPrecision" stroke-miterlimit="1.45" shape-rendering="geometricPrecision" font-family="sans-serif" transform="matrix(1,0,0,1,448,380)" stroke-linecap="butt">
      <text x="-138.306" xml:space="preserve" y="340.2883" clip-path="url(#clipPath2)" stroke="none">crows_foot_optional</text>
      <rect fill="none" x="-140.306" width="133.1855" height="30" y="327.1496" clip-path="url(#clipPath2)"/>
      <path fill="none" d="M1.4016 15 L31.1598 333.4821" clip-path="url(#clipPath2)"/>
      <path fill="none" d="M4.7874 15 L99.1982 310.8082" clip-path="url(#clipPath2)"/>
      <path d="M101.6306 318.4295 L102.7452 305.4774 L98.8941 309.8556 L93.2187 308.5179 Z" clip-path="url(#clipPath2)" stroke="none"/>
      <path fill="none" d="M9.723 15 L172.4927 266.1093" clip-path="url(#clipPath2)"/>
      <path fill="white" d="M180.6516 278.6963 L176.9836 262.0066 L166.914 268.5337 Z" clip-path="url(#clipPath2)" stroke="none"/>
      <path fill="none" d="M180.6516 278.6963 L176.9836 262.0066 L166.914 268.5337 Z" clip-path="url(#clipPath2)"/>
      <path fill="none" d="M16.739 15 L238.704 213.9059" clip-path="url(#clipPath2)"/>
      <path d="M243.9171 218.5774 L235.3672 217.6295 L233.4909 209.2343 L242.0408 210.1822 Z" clip-path="url(#clipPath2)" stroke="none"/>
      <path fill="none" d="M32.239 15 L278.7475 129.6941" clip-path="url(#clipPath2)"/>
      <path fill="white" d="M285.0942 132.647 L276.6383 134.2274 L272.4008 126.7411 L280.8568 125.1607 Z" clip-path="url(#clipPath2)" stroke="none"/>
      <path fill="none" d="M285.0942 132.647 L276.6383 134.2274 L272.4008 126.7411 L280.8568 125.1607 Z" clip-path="url(#clipPath2)"/>
      <path fill="none" d="M39.168 6.6239 L318.737 53.903" clip-path="url(#clipPath2)"/>
      <path d="M322.681 54.57 L315.7935 47.3201 L317.751 53.7363 L313.7925 59.1521 Z" clip-path="url(#clipPath2)" stroke="none"/>
      <path fill="none" d="M39.168 -0.7466 L323.3153 -6.163" clip-path="url(#clipPath2)"/>
      <path d="M327.3145 -6.2392 L315.2024 -12.0094 L327.3145 -6.2392 L315.4311 -0.0116 Z" clip-path="url(#clipPath2)" stroke="none"/>
      <path fill="none" stroke-miterlimit="10" d="M327.3145 -6.2392 L315.2024 -12.0094 L327.3145 -6.2392 L315.4311 -0.0116 Z" clip-path="url(#clipPath2)" stroke-linecap="square"/>
      <path fill="none" d="M39.168 -9.1515 L302.501 -70.6783" clip-path="url(#clipPath2)"/>
      <path fill="none" d="M0 0 Q-6 0 -10 -6" clip-path="url(#clipPath3)" transform="matrix(0.9738,-0.2275,0.2275,0.9738,307.8568,-71.9296)"/>
      <path fill="none" d="M0 0 Q-6 0 -10 6" clip-path="url(#clipPath3)" transform="matrix(0.9738,-0.2275,0.2275,0.9738,307.8568,-71.9296)"/>
    </g>
    <g text-rendering="geometricPrecision" stroke-miterlimit="1.45" shape-rendering="geometricPrecision" transform="matrix(1,0,0,1,448,380)" stroke-linecap="butt">
      <path fill="none" d="M30.5057 -15 L282.8264 -139.0688" clip-path="url(#clipPath2)"/>
      <path fill="none" d="M-11 -5 Q-4 -5 -1 0.25" clip-path="url(#clipPath4)" transform="matrix(0.8974,-0.4413,0.4413,0.8974,285.5186,-140.3925)"/>
      <path fill="none" d="M-11 5 Q-4 5 -1 -0.25" clip-path="url(#clipPath4)" transform="matrix(0.8974,-0.4413,0.4413,0.8974,285.5186,-140.3925)"/>
    </g>
    <g text-rendering="geometricPrecision" stroke-miterlimit="1.45" shape-rendering="geometricPrecision" transform="matrix(1,0,0,1,448,380)" stroke-linecap="butt">
      <path fill="none" d="M19.2406 -15 L253.6337 -197.7337" clip-path="url(#clipPath2)"/>
      <path d="M259.9429 -202.6524 C261.3012 -200.9102 260.9899 -198.3967 259.2477 -197.0384 C257.5054 -195.6802 254.992 -195.9915 253.6337 -197.7337 C252.2755 -199.4759 252.5867 -201.9894 254.329 -203.3477 C256.0712 -204.7059 258.5847 -204.3947 259.9429 -202.6524 Z" clip-path="url(#clipPath2)" stroke="none"/>
      <path fill="none" d="M10.6018 -15 L189.1014 -267.5502" clip-path="url(#clipPath2)"/>
    </g>
    <g stroke-linecap="butt" transform="matrix(1,0,0,1,448,380)" fill-opacity="0" fill="rgb(0,0,0)" text-rendering="geometricPrecision" shape-rendering="geometricPrecision" stroke="rgb(0,0,0)" stroke-opacity="0" stroke-miterlimit="1.45">
      <path d="M193.7188 -274.0832 C195.5228 -272.8081 195.9516 -270.312 194.6766 -268.508 C193.4015 -266.704 190.9054 -266.2752 189.1014 -267.5502 C187.2974 -268.8253 186.8686 -271.3214 188.1436 -273.1254 C189.4187 -274.9294 191.9148 -275.3582 193.7188 -274.0832 Z" stroke="none" clip-path="url(#clipPath2)"/>
    </g>
    <g text-rendering="geometricPrecision" stroke-miterlimit="1.45" shape-rendering="geometricPrecision" transform="matrix(1,0,0,1,448,380)" stroke-linecap="butt">
      <path fill="none" d="M193.7188 -274.0832 C195.5228 -272.8081 195.9516 -270.312 194.6766 -268.508 C193.4015 -266.704 190.9054 -266.2752 189.1014 -267.5502 C187.2974 -268.8253 186.8686 -271.3214 188.1436 -273.1254 C189.4187 -274.9294 191.9148 -275.3582 193.7188 -274.0832 Z" clip-path="url(#clipPath2)"/>
      <path fill="none" d="M5.069 -15 L106.9834 -316.5784" clip-path="url(#clipPath2)"/>
      <path d="M100.6327 -310.2801 L108.2117 -307.7189 Z" clip-path="url(#clipPath2)" stroke="none"/>
      <path fill="none" stroke-miterlimit="10" d="M100.6327 -310.2801 L108.2117 -307.7189 Z" clip-path="url(#clipPath2)" stroke-linecap="square"/>
      <path fill="none" d="M1.136 -15 L25.2947 -334.0006" clip-path="url(#clipPath2)"/>
      <path d="M20.3999 -322.3369 L28.9812 -329.71 Z" clip-path="url(#clipPath2)" stroke="none"/>
      <path fill="none" stroke-miterlimit="10" d="M20.3999 -322.3369 L28.9812 -329.71 Z" clip-path="url(#clipPath2)" stroke-linecap="square"/>
      <path fill="none" d="M-2.9941 -15 L-65.1244 -326.268" clip-path="url(#clipPath2)"/>
      <path d="M-70.0277 -325.2893 L-60.2211 -327.2467 Z" clip-path="url(#clipPath2)" stroke="none"/>
      <path fill="none" stroke-miterlimit="10" d="M-70.0277 -325.2893 L-60.2211 -327.2467 Z" clip-path="url(#clipPath2)" stroke-linecap="square"/>
      <path fill="none" d="M-9.9793 -15 L-183.8869 -276.4033" clip-path="url(#clipPath2)"/>
      <line transform="matrix(-0.5539,-0.8326,0.8326,-0.5539,-183.8869,-276.4033)" clip-path="url(#clipPath5)" fill="none" x1="-15" x2="-15" y1="-8" y2="8"/>
      <line transform="matrix(-0.5539,-0.8326,0.8326,-0.5539,-183.8869,-276.4033)" clip-path="url(#clipPath5)" fill="none" x1="-6" x2="-6" y1="-8" y2="8"/>
    </g>
    <g text-rendering="geometricPrecision" stroke-miterlimit="1.45" shape-rendering="geometricPrecision" transform="matrix(1,0,0,1,448,380)" stroke-linecap="butt">
      <path fill="none" d="M-33.96 -15 L-277.9671 -122.7771" clip-path="url(#clipPath2)"/>
      <line transform="matrix(-0.9147,-0.404,0.404,-0.9147,-286.1997,-126.4135)" clip-path="url(#clipPath6)" fill="none" x1="-15" x2="-15" y1="-8" y2="8"/>
      <line transform="matrix(-0.9147,-0.404,0.404,-0.9147,-286.1997,-126.4135)" clip-path="url(#clipPath7)" fill="none" x1="-10" x2="2" y1="0" y2="8"/>
      <line transform="matrix(-0.9147,-0.404,0.404,-0.9147,-286.1997,-126.4135)" clip-path="url(#clipPath7)" fill="none" x1="-10" x2="2" y1="0" y2="0"/>
      <line transform="matrix(-0.9147,-0.404,0.404,-0.9147,-286.1997,-126.4135)" clip-path="url(#clipPath7)" fill="none" x1="-10" x2="2" y1="0" y2="-8"/>
    </g>
    <g text-rendering="geometricPrecision" stroke-miterlimit="1.45" shape-rendering="geometricPrecision" transform="matrix(1,0,0,1,448,380)" stroke-linecap="butt">
      <path fill="none" d="M-39.168 5.6772 L-251.0057 36.3819" clip-path="url(#clipPath2)"/>
      <circle transform="matrix(-0.9897,0.1434,-0.1434,-0.9897,-259.9126,37.6729)" clip-path="url(#clipPath8)" fill="white" r="5" cx="-15" cy="0" stroke="none"/>
      <circle fill="none" r="5" clip-path="url(#clipPath8)" cx="-15" transform="matrix(-0.9897,0.1434,-0.1434,-0.9897,-259.9126,37.6729)" cy="0"/>
      <line transform="matrix(-0.9897,0.1434,-0.1434,-0.9897,-259.9126,37.6729)" clip-path="url(#clipPath9)" fill="none" x1="-10" x2="2" y1="0" y2="8"/>
      <line transform="matrix(-0.9897,0.1434,-0.1434,-0.9897,-259.9126,37.6729)" clip-path="url(#clipPath9)" fill="none" x1="-10" x2="2" y1="0" y2="0"/>
      <line transform="matrix(-0.9897,0.1434,-0.1434,-0.9897,-259.9126,37.6729)" clip-path="url(#clipPath9)" fill="none" x1="-10" x2="2" y1="0" y2="-8"/>
    </g>
    <g text-rendering="geometricPrecision" stroke-miterlimit="1.45" shape-rendering="geometricPrecision" transform="matrix(1,0,0,1,448,380)" stroke-linecap="butt">
      <path fill="none" d="M-22.5194 15 L-268.7754 179.0292" clip-path="url(#clipPath2)"/>
      <line transform="matrix(-0.8323,0.5544,-0.5544,-0.8323,-268.7754,179.0292)" clip-path="url(#clipPath10)" fill="none" x1="-10" x2="-10" y1="-8" y2="8"/>
    </g>
    <g text-rendering="geometricPrecision" stroke-miterlimit="1.45" shape-rendering="geometricPrecision" transform="matrix(1,0,0,1,448,380)" stroke-linecap="butt">
      <path fill="none" d="M-10.6164 15 L-186.3814 263.3395" clip-path="url(#clipPath2)"/>
      <line transform="matrix(-0.5777,0.8162,-0.8162,-0.5777,-191.5808,270.6857)" clip-path="url(#clipPath9)" fill="none" x1="-10" x2="2" y1="0" y2="8"/>
      <line transform="matrix(-0.5777,0.8162,-0.8162,-0.5777,-191.5808,270.6857)" clip-path="url(#clipPath9)" fill="none" x1="-10" x2="2" y1="0" y2="0"/>
      <line transform="matrix(-0.5777,0.8162,-0.8162,-0.5777,-191.5808,270.6857)" clip-path="url(#clipPath9)" fill="none" x1="-10" x2="2" y1="0" y2="-8"/>
    </g>
    <g text-rendering="geometricPrecision" stroke-miterlimit="1.45" shape-rendering="geometricPrecision" transform="matrix(1,0,0,1,448,380)" stroke-linecap="butt">
      <path fill="none" d="M-3.2316 15 L-70.4816 327.1496" clip-path="url(#clipPath2)"/>
      <circle transform="matrix(-0.2106,0.9776,-0.9776,-0.2106,-70.4816,327.1496)" clip-path="url(#clipPath11)" fill="white" r="5" cx="-15" cy="0" stroke="none"/>
      <circle fill="none" r="5" clip-path="url(#clipPath11)" cx="-15" transform="matrix(-0.2106,0.9776,-0.9776,-0.2106,-70.4816,327.1496)" cy="0"/>
    </g>
  </g>
</svg>
