<?xml version="1.0" encoding="UTF-8"?><svg xmlns="http://www.w3.org/2000/svg" xmlns:xlink="http://www.w3.org/1999/xlink" fill-opacity="1" color-rendering="auto" color-interpolation="auto" text-rendering="auto" stroke="black" stroke-linecap="square" width="122" stroke-miterlimit="10" shape-rendering="auto" stroke-opacity="1" fill="black" stroke-dasharray="none" font-weight="normal" stroke-width="1" height="106" font-family="'Dialog'" font-style="normal" stroke-linejoin="miter" font-size="12px" stroke-dashoffset="0" image-rendering="auto">
  <!--Generated by ySVG 2.6-->
  <defs id="genericDefs"/>
  <g>
    <defs id="defs1">
      <clipPath clipPathUnits="userSpaceOnUse" id="clipPath1">
        <path d="M0 0 L122 0 L122 106 L0 106 L0 0 Z"/>
      </clipPath>
      <clipPath clipPathUnits="userSpaceOnUse" id="clipPath2">
        <path d="M-61 -52 L61 -52 L61 54 L-61 54 L-61 -52 Z"/>
      </clipPath>
      <clipPath clipPathUnits="userSpaceOnUse" id="clipPath3">
        <path d="M-61 -10.9688 L-61 54 L61 54 L61 -10.9688 Z"/>
      </clipPath>
      <clipPath clipPathUnits="userSpaceOnUse" id="clipPath4">
        <path d="M-61 -52 L-61 -10.9688 L61 -10.9688 L61 -52 Z"/>
      </clipPath>
    </defs>
    <g fill="white" text-rendering="geometricPrecision" shape-rendering="geometricPrecision" transform="translate(61,52)" stroke="white">
      <rect x="-61" width="122" height="106" y="-52" clip-path="url(#clipPath2)" stroke="none"/>
    </g>
    <g fill="rgb(232,238,247)" text-rendering="geometricPrecision" shape-rendering="geometricPrecision" transform="matrix(1,0,0,1,61,52)" stroke="rgb(232,238,247)">
      <rect x="-45.9268" y="-36.9375" clip-path="url(#clipPath3)" width="91.8535" rx="4" ry="4" height="73.875" stroke="none"/>
      <rect x="-45.9268" y="-36.9375" clip-path="url(#clipPath4)" fill="rgb(183,201,227)" width="91.8535" rx="4" ry="4" height="73.875" stroke="none"/>
    </g>
    <g text-rendering="geometricPrecision" stroke-miterlimit="1.45" shape-rendering="geometricPrecision" transform="matrix(1,0,0,1,61,52)" stroke-linecap="butt">
      <rect x="-45.9268" y="-36.9375" clip-path="url(#clipPath2)" fill="none" width="91.8535" rx="4" ry="4" height="73.875"/>
      <line y2="-10.9688" fill="none" x1="-45.9268" clip-path="url(#clipPath2)" x2="45.9268" y1="-10.9688"/>
      <text x="-38.9268" xml:space="preserve" y="-19.7988" clip-path="url(#clipPath2)" font-family="sans-serif" stroke="none">GenericNode</text>
      <text x="-41.9268" xml:space="preserve" y="6.1699" clip-path="url(#clipPath2)" font-family="sans-serif" stroke="none">line1</text>
      <text x="-41.9268" xml:space="preserve" y="20.1387" clip-path="url(#clipPath2)" font-family="sans-serif" stroke="none">line2</text>
      <text x="-41.9268" xml:space="preserve" y="34.1074" clip-path="url(#clipPath2)" font-family="sans-serif" stroke="none">line3</text>
    </g>
  </g>
</svg>
