<?xml version="1.0" encoding="UTF-8"?><svg xmlns="http://www.w3.org/2000/svg" xmlns:xlink="http://www.w3.org/1999/xlink" fill-opacity="1" color-rendering="auto" color-interpolation="auto" text-rendering="auto" stroke="black" stroke-linecap="square" width="94" stroke-miterlimit="10" shape-rendering="auto" stroke-opacity="1" fill="black" stroke-dasharray="none" font-weight="normal" stroke-width="1" height="168" font-family="'Dialog'" font-style="normal" stroke-linejoin="miter" font-size="12px" stroke-dashoffset="0" image-rendering="auto">
  <!--Generated by ySVG 2.6-->
  <defs id="genericDefs"/>
  <g>
    <defs id="defs1">
      <clipPath clipPathUnits="userSpaceOnUse" id="clipPath1">
        <path d="M0 0 L94 0 L94 168 L0 168 L0 0 Z"/>
      </clipPath>
      <clipPath clipPathUnits="userSpaceOnUse" id="clipPath2">
        <path d="M-15 -48 L79 -48 L79 120 L-15 120 L-15 -48 Z"/>
      </clipPath>
    </defs>
    <g fill="white" text-rendering="geometricPrecision" shape-rendering="geometricPrecision" transform="translate(15,48)" stroke="white">
      <rect x="-15" width="94" height="168" y="-48" clip-path="url(#clipPath2)" stroke="none"/>
    </g>
    <g transform="matrix(1,0,0,1,15,48)" fill-opacity="0.502" fill="rgb(202,236,255)" text-rendering="geometricPrecision" shape-rendering="geometricPrecision" stroke="rgb(202,236,255)" stroke-opacity="0.502">
      <rect x="0" width="63.9043" height="137.9688" y="-32.9688" clip-path="url(#clipPath2)" stroke="none"/>
    </g>
    <g fill="rgb(153,204,255)" text-rendering="geometricPrecision" shape-rendering="geometricPrecision" transform="matrix(1,0,0,1,15,48)" stroke="rgb(153,204,255)">
      <rect x="0" width="63.9043" height="17.9688" y="-32.9688" clip-path="url(#clipPath2)" stroke="none"/>
    </g>
    <g text-rendering="geometricPrecision" stroke-miterlimit="1.45" shape-rendering="geometricPrecision" font-family="sans-serif" transform="matrix(1,0,0,1,15,48)" stroke-linecap="butt">
      <text x="13.5537" xml:space="preserve" y="-19.8301" clip-path="url(#clipPath2)" stroke="none">Group</text>
      <rect fill="none" x="0" width="63.9043" height="137.9688" y="-32.9688" clip-path="url(#clipPath2)"/>
    </g>
    <g fill="white" text-rendering="geometricPrecision" shape-rendering="geometricPrecision" transform="matrix(1,0,0,1,15,48)" stroke="white">
      <rect x="15.498" width="32.9082" height="30" y="0" clip-path="url(#clipPath2)" stroke="none"/>
    </g>
    <g text-rendering="geometricPrecision" stroke-miterlimit="1.45" shape-rendering="geometricPrecision" font-family="sans-serif" transform="matrix(1,0,0,1,15,48)" stroke-linecap="butt">
      <text x="17.498" xml:space="preserve" y="13.1387" clip-path="url(#clipPath2)" stroke="none">foo</text>
      <rect fill="none" x="15.498" width="32.9082" height="30" y="0" clip-path="url(#clipPath2)"/>
    </g>
    <g fill="white" text-rendering="geometricPrecision" shape-rendering="geometricPrecision" transform="matrix(1,0,0,1,15,48)" stroke="white">
      <rect x="15" width="33.9043" height="30" y="60" clip-path="url(#clipPath2)" stroke="none"/>
    </g>
    <g text-rendering="geometricPrecision" stroke-miterlimit="1.45" shape-rendering="geometricPrecision" font-family="sans-serif" transform="matrix(1,0,0,1,15,48)" stroke-linecap="butt">
      <text x="17" xml:space="preserve" y="73.1387" clip-path="url(#clipPath2)" stroke="none">bar</text>
      <rect fill="none" x="15" width="33.9043" height="30" y="60" clip-path="url(#clipPath2)"/>
      <path fill="none" d="M31.9521 30 L31.9521 51.9707" clip-path="url(#clipPath2)"/>
      <path d="M31.9521 59.9707 L36.9521 47.9707 L31.9521 50.9707 L26.9521 47.9707 Z" clip-path="url(#clipPath2)" stroke="none"/>
    </g>
  </g>
</svg>
