<?xml version="1.0" encoding="UTF-8"?><svg xmlns="http://www.w3.org/2000/svg" xmlns:xlink="http://www.w3.org/1999/xlink" fill-opacity="1" color-rendering="auto" color-interpolation="auto" text-rendering="auto" stroke="black" stroke-linecap="square" width="520" stroke-miterlimit="10" shape-rendering="auto" stroke-opacity="1" fill="black" stroke-dasharray="none" font-weight="normal" stroke-width="1" height="150" font-family="'Dialog'" font-style="normal" stroke-linejoin="miter" font-size="12px" stroke-dashoffset="0" image-rendering="auto">
  <!--Generated by ySVG 2.6-->
  <defs id="genericDefs"/>
  <g>
    <defs id="defs1">
      <clipPath clipPathUnits="userSpaceOnUse" id="clipPath1">
        <path d="M0 0 L520 0 L520 150 L0 150 L0 0 Z"/>
      </clipPath>
      <clipPath clipPathUnits="userSpaceOnUse" id="clipPath2">
        <path d="M-15 -15 L505 -15 L505 135 L-15 135 L-15 -15 Z"/>
      </clipPath>
    </defs>
    <g fill="white" text-rendering="geometricPrecision" shape-rendering="geometricPrecision" transform="translate(15,15)" stroke="white">
      <rect x="-15" width="520" height="150" y="-15" clip-path="url(#clipPath2)" stroke="none"/>
    </g>
    <g fill="white" text-rendering="geometricPrecision" shape-rendering="geometricPrecision" transform="matrix(1,0,0,1,15,15)" stroke="white">
      <rect x="195" width="100" height="30" y="0" clip-path="url(#clipPath2)" stroke="none"/>
    </g>
    <g text-rendering="geometricPrecision" stroke-miterlimit="1.45" shape-rendering="geometricPrecision" font-family="sans-serif" transform="matrix(1,0,0,1,15,15)" stroke-linecap="butt">
      <text x="197" xml:space="preserve" y="13.1387" clip-path="url(#clipPath2)" stroke="none">autoSizePolicy</text>
      <rect fill="none" x="195" width="100" height="30" y="0" clip-path="url(#clipPath2)"/>
    </g>
    <g fill="white" text-rendering="geometricPrecision" shape-rendering="geometricPrecision" transform="matrix(1,0,0,1,15,15)" stroke="white">
      <rect x="0" width="100" height="60" y="60" clip-path="url(#clipPath2)" stroke="none"/>
      <rect x="0" y="60" clip-path="url(#clipPath2)" fill="none" width="100" height="17.9688" stroke="red" stroke-miterlimit="1.6"/>
    </g>
    <g text-rendering="geometricPrecision" stroke-miterlimit="1.45" shape-rendering="geometricPrecision" font-family="sans-serif" transform="matrix(1,0,0,1,15,15)" stroke-linecap="butt">
      <text x="15.4883" xml:space="preserve" y="73.1387" clip-path="url(#clipPath2)" stroke="none">node_width</text>
      <rect fill="none" x="0" width="100" height="60" y="60" clip-path="url(#clipPath2)"/>
    </g>
    <g fill="white" text-rendering="geometricPrecision" shape-rendering="geometricPrecision" transform="matrix(1,0,0,1,15,15)" stroke="white">
      <rect x="130" width="100" height="60" y="60" clip-path="url(#clipPath2)" stroke="none"/>
      <rect x="130" y="60" clip-path="url(#clipPath2)" fill="none" width="100" height="60" stroke="red" stroke-miterlimit="1.6"/>
    </g>
    <g text-rendering="geometricPrecision" stroke-miterlimit="1.45" shape-rendering="geometricPrecision" font-family="sans-serif" transform="matrix(1,0,0,1,15,15)" stroke-linecap="butt">
      <text x="150.3926" xml:space="preserve" y="73.1387" clip-path="url(#clipPath2)" stroke="none">node_size</text>
      <rect fill="none" x="130" width="100" height="60" y="60" clip-path="url(#clipPath2)"/>
    </g>
    <g fill="white" text-rendering="geometricPrecision" shape-rendering="geometricPrecision" transform="matrix(1,0,0,1,15,15)" stroke="white">
      <rect x="260" width="100" height="60" y="60" clip-path="url(#clipPath2)" stroke="none"/>
      <rect x="260" y="60" clip-path="url(#clipPath2)" fill="none" width="78.1973" height="60" stroke="red" stroke-miterlimit="1.6"/>
    </g>
    <g text-rendering="geometricPrecision" stroke-miterlimit="1.45" shape-rendering="geometricPrecision" font-family="sans-serif" transform="matrix(1,0,0,1,15,15)" stroke-linecap="butt">
      <text x="262" xml:space="preserve" y="73.1387" clip-path="url(#clipPath2)" stroke="none">node_height</text>
      <rect fill="none" x="260" width="100" height="60" y="60" clip-path="url(#clipPath2)"/>
    </g>
    <g fill="white" text-rendering="geometricPrecision" shape-rendering="geometricPrecision" transform="matrix(1,0,0,1,15,15)" stroke="white">
      <rect x="390" width="100" height="60" y="60" clip-path="url(#clipPath2)" stroke="none"/>
      <rect x="390" y="60" clip-path="url(#clipPath2)" fill="none" width="49.9434" height="17.9688" stroke="red" stroke-miterlimit="1.6"/>
    </g>
    <g text-rendering="geometricPrecision" stroke-miterlimit="1.45" shape-rendering="geometricPrecision" font-family="sans-serif" transform="matrix(1,0,0,1,15,15)" stroke-linecap="butt">
      <text x="392" xml:space="preserve" y="73.1387" clip-path="url(#clipPath2)" stroke="none">content</text>
      <rect fill="none" x="390" width="100" height="60" y="60" clip-path="url(#clipPath2)"/>
      <path fill="none" d="M245 30 L245 45 L50 45 L50 52" clip-path="url(#clipPath2)"/>
      <path d="M50 60 L55 48 L50 51 L45 48 Z" clip-path="url(#clipPath2)" stroke="none"/>
      <path fill="none" d="M245 30 L245 45 L180 45 L180 52" clip-path="url(#clipPath2)"/>
      <path d="M180 60 L185 48 L180 51 L175 48 Z" clip-path="url(#clipPath2)" stroke="none"/>
      <path fill="none" d="M245 30 L245 45 L310 45 L310 52" clip-path="url(#clipPath2)"/>
      <path d="M310 60 L315 48 L310 51 L305 48 Z" clip-path="url(#clipPath2)" stroke="none"/>
      <path fill="none" d="M245 30 L245 45 L440 45 L440 52" clip-path="url(#clipPath2)"/>
      <path d="M440 60 L445 48 L440 51 L435 48 Z" clip-path="url(#clipPath2)" stroke="none"/>
    </g>
  </g>
</svg>
