<?xml version="1.0" encoding="UTF-8"?><svg xmlns="http://www.w3.org/2000/svg" xmlns:xlink="http://www.w3.org/1999/xlink" fill-opacity="1" color-rendering="auto" color-interpolation="auto" text-rendering="auto" stroke="black" stroke-linecap="square" width="1317" stroke-miterlimit="10" shape-rendering="auto" stroke-opacity="1" fill="black" stroke-dasharray="none" font-weight="normal" stroke-width="1" height="1292" font-family="'Dialog'" font-style="normal" stroke-linejoin="miter" font-size="12px" stroke-dashoffset="0" image-rendering="auto">
  <!--Generated by ySVG 2.6-->
  <defs id="genericDefs"/>
  <g>
    <defs id="defs1">
      <clipPath clipPathUnits="userSpaceOnUse" id="clipPath1">
        <path d="M0 0 L1317 0 L1317 1292 L0 1292 L0 0 Z"/>
      </clipPath>
      <clipPath clipPathUnits="userSpaceOnUse" id="clipPath2">
        <path d="M-662 -667 L655 -667 L655 625 L-662 625 L-662 -667 Z"/>
      </clipPath>
    </defs>
    <g fill="white" text-rendering="geometricPrecision" shape-rendering="geometricPrecision" transform="translate(662,667)" stroke="white">
      <rect x="-662" width="1317" height="1292" y="-667" clip-path="url(#clipPath2)" stroke="none"/>
    </g>
    <g fill="white" text-rendering="geometricPrecision" shape-rendering="geometricPrecision" transform="matrix(1,0,0,1,662,667)" stroke="white">
      <rect x="117.089" width="60" height="30" y="14.4081" clip-path="url(#clipPath2)" stroke="none"/>
    </g>
    <g text-rendering="geometricPrecision" stroke-miterlimit="1.45" shape-rendering="geometricPrecision" font-family="sans-serif" transform="matrix(1,0,0,1,662,667)" stroke-linecap="butt">
      <text x="119.089" xml:space="preserve" y="27.5468" clip-path="url(#clipPath2)" stroke="none">internal</text>
      <rect fill="none" x="117.089" width="60" height="30" y="14.4081" clip-path="url(#clipPath2)"/>
    </g>
    <g fill="white" text-rendering="geometricPrecision" shape-rendering="geometricPrecision" transform="matrix(1,0,0,1,662,667)" stroke="white">
      <rect x="309.2012" width="80" height="60" y="457.9124" clip-path="url(#clipPath2)" stroke="none"/>
      <rect x="344.8487" y="461.9124" clip-path="url(#clipPath2)" fill="none" width="8.7051" height="17.9688" stroke="red" stroke-miterlimit="1.6"/>
    </g>
    <g text-rendering="geometricPrecision" stroke-miterlimit="1.45" shape-rendering="geometricPrecision" font-family="sans-serif" transform="matrix(1,0,0,1,662,667)" stroke-linecap="butt">
      <text x="346.8487" xml:space="preserve" y="475.0511" clip-path="url(#clipPath2)" stroke="none">t</text>
      <rect fill="none" x="309.2012" width="80" height="60" y="457.9124" clip-path="url(#clipPath2)"/>
    </g>
    <g fill="white" text-rendering="geometricPrecision" shape-rendering="geometricPrecision" transform="matrix(1,0,0,1,662,667)" stroke="white">
      <rect x="394.265" width="80" height="60" y="384.0216" clip-path="url(#clipPath2)" stroke="none"/>
      <rect x="428.4564" y="422.0529" clip-path="url(#clipPath2)" fill="none" width="11.6172" height="17.9688" stroke="red" stroke-miterlimit="1.6"/>
    </g>
    <g text-rendering="geometricPrecision" stroke-miterlimit="1.45" shape-rendering="geometricPrecision" font-family="sans-serif" transform="matrix(1,0,0,1,662,667)" stroke-linecap="butt">
      <text x="430.4564" xml:space="preserve" y="435.1916" clip-path="url(#clipPath2)" stroke="none">b</text>
      <rect fill="none" x="394.265" width="80" height="60" y="384.0216" clip-path="url(#clipPath2)"/>
    </g>
    <g fill="white" text-rendering="geometricPrecision" shape-rendering="geometricPrecision" transform="matrix(1,0,0,1,662,667)" stroke="white">
      <rect x="464.014" width="80" height="60" y="295.5301" clip-path="url(#clipPath2)" stroke="none"/>
      <rect x="498.7152" y="316.5457" clip-path="url(#clipPath2)" fill="none" width="10.5977" height="17.9688" stroke="red" stroke-miterlimit="1.6"/>
    </g>
    <g text-rendering="geometricPrecision" stroke-miterlimit="1.45" shape-rendering="geometricPrecision" font-family="sans-serif" transform="matrix(1,0,0,1,662,667)" stroke-linecap="butt">
      <text x="500.7152" xml:space="preserve" y="329.6844" clip-path="url(#clipPath2)" stroke="none">c</text>
      <rect fill="none" x="464.014" width="80" height="60" y="295.5301" clip-path="url(#clipPath2)"/>
    </g>
    <g fill="white" text-rendering="geometricPrecision" shape-rendering="geometricPrecision" transform="matrix(1,0,0,1,662,667)" stroke="white">
      <rect x="515.9886" width="80" height="60" y="195.5585" clip-path="url(#clipPath2)" stroke="none"/>
      <rect x="519.9886" y="216.5741" clip-path="url(#clipPath2)" fill="none" width="7.334" height="17.9688" stroke="red" stroke-miterlimit="1.6"/>
    </g>
    <g text-rendering="geometricPrecision" stroke-miterlimit="1.45" shape-rendering="geometricPrecision" font-family="sans-serif" transform="matrix(1,0,0,1,662,667)" stroke-linecap="butt">
      <text x="521.9886" xml:space="preserve" y="229.7128" clip-path="url(#clipPath2)" stroke="none">l</text>
      <rect fill="none" x="515.9886" width="80" height="60" y="195.5585" clip-path="url(#clipPath2)"/>
    </g>
    <g fill="white" text-rendering="geometricPrecision" shape-rendering="geometricPrecision" transform="matrix(1,0,0,1,662,667)" stroke="white">
      <rect x="548.3559" width="80" height="60" y="87.6323" clip-path="url(#clipPath2)" stroke="none"/>
      <rect x="615.4223" y="108.648" clip-path="url(#clipPath2)" fill="none" width="8.9336" height="17.9688" stroke="red" stroke-miterlimit="1.6"/>
    </g>
    <g text-rendering="geometricPrecision" stroke-miterlimit="1.45" shape-rendering="geometricPrecision" font-family="sans-serif" transform="matrix(1,0,0,1,662,667)" stroke-linecap="butt">
      <text x="617.4223" xml:space="preserve" y="121.7866" clip-path="url(#clipPath2)" stroke="none">r</text>
      <rect fill="none" x="548.3559" width="80" height="60" y="87.6323" clip-path="url(#clipPath2)"/>
    </g>
    <g fill="white" text-rendering="geometricPrecision" shape-rendering="geometricPrecision" transform="matrix(1,0,0,1,662,667)" stroke="white">
      <rect x="559.9743" width="80" height="60" y="-24.4422" clip-path="url(#clipPath2)" stroke="none"/>
      <rect x="563.9743" y="-20.4422" clip-path="url(#clipPath2)" fill="none" width="12.0391" height="17.9688" stroke="red" stroke-miterlimit="1.6"/>
    </g>
    <g text-rendering="geometricPrecision" stroke-miterlimit="1.45" shape-rendering="geometricPrecision" font-family="sans-serif" transform="matrix(1,0,0,1,662,667)" stroke-linecap="butt">
      <text x="565.9742" xml:space="preserve" y="-7.3035" clip-path="url(#clipPath2)" stroke="none">tl</text>
      <rect fill="none" x="559.9743" width="80" height="60" y="-24.4422" clip-path="url(#clipPath2)"/>
    </g>
    <g fill="white" text-rendering="geometricPrecision" shape-rendering="geometricPrecision" transform="matrix(1,0,0,1,662,667)" stroke="white">
      <rect x="550.4341" width="80" height="60" y="-136.7127" clip-path="url(#clipPath2)" stroke="none"/>
      <rect x="612.7954" y="-132.7127" clip-path="url(#clipPath2)" fill="none" width="13.6387" height="17.9688" stroke="red" stroke-miterlimit="1.6"/>
    </g>
    <g text-rendering="geometricPrecision" stroke-miterlimit="1.45" shape-rendering="geometricPrecision" font-family="sans-serif" transform="matrix(1,0,0,1,662,667)" stroke-linecap="butt">
      <text x="614.7954" xml:space="preserve" y="-119.574" clip-path="url(#clipPath2)" stroke="none">tr</text>
      <rect fill="none" x="550.4341" width="80" height="60" y="-136.7127" clip-path="url(#clipPath2)"/>
    </g>
    <g fill="white" text-rendering="geometricPrecision" shape-rendering="geometricPrecision" transform="matrix(1,0,0,1,662,667)" stroke="white">
      <rect x="520.0718" width="80" height="60" y="-245.2199" clip-path="url(#clipPath2)" stroke="none"/>
      <rect x="524.0718" y="-207.1887" clip-path="url(#clipPath2)" fill="none" width="14.9512" height="17.9688" stroke="red" stroke-miterlimit="1.6"/>
    </g>
    <g text-rendering="geometricPrecision" stroke-miterlimit="1.45" shape-rendering="geometricPrecision" font-family="sans-serif" transform="matrix(1,0,0,1,662,667)" stroke-linecap="butt">
      <text x="526.0718" xml:space="preserve" y="-194.05" clip-path="url(#clipPath2)" stroke="none">bl</text>
      <rect fill="none" x="520.0718" width="80" height="60" y="-245.2199" clip-path="url(#clipPath2)"/>
    </g>
    <g fill="white" text-rendering="geometricPrecision" shape-rendering="geometricPrecision" transform="matrix(1,0,0,1,662,667)" stroke="white">
      <rect x="469.9581" width="80" height="60" y="-346.1372" clip-path="url(#clipPath2)" stroke="none"/>
      <rect x="529.4073" y="-308.106" clip-path="url(#clipPath2)" fill="none" width="16.5508" height="17.9688" stroke="red" stroke-miterlimit="1.6"/>
    </g>
    <g text-rendering="geometricPrecision" stroke-miterlimit="1.45" shape-rendering="geometricPrecision" font-family="sans-serif" transform="matrix(1,0,0,1,662,667)" stroke-linecap="butt">
      <text x="531.4073" xml:space="preserve" y="-294.9673" clip-path="url(#clipPath2)" stroke="none">br</text>
      <rect fill="none" x="469.9581" width="80" height="60" y="-346.1372" clip-path="url(#clipPath2)"/>
    </g>
    <g fill="white" text-rendering="geometricPrecision" shape-rendering="geometricPrecision" transform="matrix(1,0,0,1,662,667)" stroke="white">
      <rect x="47.85" width="60" height="30" y="-143.2162" clip-path="url(#clipPath2)" stroke="none"/>
    </g>
    <g text-rendering="geometricPrecision" stroke-miterlimit="1.45" shape-rendering="geometricPrecision" font-family="sans-serif" transform="matrix(1,0,0,1,662,667)" stroke-linecap="butt">
      <text x="49.85" xml:space="preserve" y="-130.0775" clip-path="url(#clipPath2)" stroke="none">corners</text>
      <rect fill="none" x="47.85" width="60" height="30" y="-143.2162" clip-path="url(#clipPath2)"/>
    </g>
    <g fill="white" text-rendering="geometricPrecision" shape-rendering="geometricPrecision" transform="matrix(1,0,0,1,662,667)" stroke="white">
      <rect x="401.8603" width="80" height="60" y="-435.9057" clip-path="url(#clipPath2)" stroke="none"/>
      <rect x="376.4404" y="-453.8745" clip-path="url(#clipPath2)" fill="none" width="21.4199" height="17.9688" stroke="red" stroke-miterlimit="1.6"/>
    </g>
    <g text-rendering="geometricPrecision" stroke-miterlimit="1.45" shape-rendering="geometricPrecision" font-family="sans-serif" transform="matrix(1,0,0,1,662,667)" stroke-linecap="butt">
      <text x="378.4404" xml:space="preserve" y="-440.7358" clip-path="url(#clipPath2)" stroke="none">nw</text>
      <rect fill="none" x="401.8603" width="80" height="60" y="-435.9057" clip-path="url(#clipPath2)"/>
    </g>
    <g fill="white" text-rendering="geometricPrecision" shape-rendering="geometricPrecision" transform="matrix(1,0,0,1,662,667)" stroke="white">
      <rect x="318.18" width="80" height="60" y="-511.3596" clip-path="url(#clipPath2)" stroke="none"/>
      <rect x="402.18" y="-529.3283" clip-path="url(#clipPath2)" fill="none" width="18.9883" height="17.9688" stroke="red" stroke-miterlimit="1.6"/>
    </g>
    <g text-rendering="geometricPrecision" stroke-miterlimit="1.45" shape-rendering="geometricPrecision" font-family="sans-serif" transform="matrix(1,0,0,1,662,667)" stroke-linecap="butt">
      <text x="404.18" xml:space="preserve" y="-516.1897" clip-path="url(#clipPath2)" stroke="none">ne</text>
      <rect fill="none" x="318.18" width="80" height="60" y="-511.3596" clip-path="url(#clipPath2)"/>
    </g>
    <g fill="white" text-rendering="geometricPrecision" shape-rendering="geometricPrecision" transform="matrix(1,0,0,1,662,667)" stroke="white">
      <rect x="221.8682" width="80" height="60" y="-569.838" clip-path="url(#clipPath2)" stroke="none"/>
      <rect x="197.8018" y="-509.838" clip-path="url(#clipPath2)" fill="none" width="20.0664" height="17.9688" stroke="red" stroke-miterlimit="1.6"/>
    </g>
    <g text-rendering="geometricPrecision" stroke-miterlimit="1.45" shape-rendering="geometricPrecision" font-family="sans-serif" transform="matrix(1,0,0,1,662,667)" stroke-linecap="butt">
      <text x="199.8018" xml:space="preserve" y="-496.6993" clip-path="url(#clipPath2)" stroke="none">sw</text>
      <rect fill="none" x="221.8682" width="80" height="60" y="-569.838" clip-path="url(#clipPath2)"/>
    </g>
    <g fill="white" text-rendering="geometricPrecision" shape-rendering="geometricPrecision" transform="matrix(1,0,0,1,662,667)" stroke="white">
      <rect x="116.3214" width="80" height="60" y="-609.2785" clip-path="url(#clipPath2)" stroke="none"/>
      <rect x="200.3214" y="-549.2785" clip-path="url(#clipPath2)" fill="none" width="17.6348" height="17.9688" stroke="red" stroke-miterlimit="1.6"/>
    </g>
    <g text-rendering="geometricPrecision" stroke-miterlimit="1.45" shape-rendering="geometricPrecision" font-family="sans-serif" transform="matrix(1,0,0,1,662,667)" stroke-linecap="butt">
      <text x="202.3214" xml:space="preserve" y="-536.1398" clip-path="url(#clipPath2)" stroke="none">se</text>
      <rect fill="none" x="116.3214" width="80" height="60" y="-609.2785" clip-path="url(#clipPath2)"/>
    </g>
    <g fill="white" text-rendering="geometricPrecision" shape-rendering="geometricPrecision" transform="matrix(1,0,0,1,662,667)" stroke="white">
      <rect x="-44.0844" width="60" height="30" y="-164.3373" clip-path="url(#clipPath2)" stroke="none"/>
    </g>
    <g text-rendering="geometricPrecision" stroke-miterlimit="1.45" shape-rendering="geometricPrecision" font-family="sans-serif" transform="matrix(1,0,0,1,662,667)" stroke-linecap="butt">
      <text x="-42.0844" xml:space="preserve" y="-151.1986" clip-path="url(#clipPath2)" stroke="none">sandwich</text>
      <rect fill="none" x="-44.0844" width="60" height="30" y="-164.3373" clip-path="url(#clipPath2)"/>
    </g>
    <g fill="white" text-rendering="geometricPrecision" shape-rendering="geometricPrecision" transform="matrix(1,0,0,1,662,667)" stroke="white">
      <rect x="-17.353" width="80" height="60" y="-629.5724" clip-path="url(#clipPath2)" stroke="none"/>
      <rect x="16.8443" y="-651.5412" clip-path="url(#clipPath2)" fill="none" width="11.6055" height="17.9688" stroke="red" stroke-miterlimit="1.6"/>
    </g>
    <g text-rendering="geometricPrecision" stroke-miterlimit="1.45" shape-rendering="geometricPrecision" font-family="sans-serif" transform="matrix(1,0,0,1,662,667)" stroke-linecap="butt">
      <text x="18.8443" xml:space="preserve" y="-638.4025" clip-path="url(#clipPath2)" stroke="none">n</text>
      <rect fill="none" x="-17.353" width="80" height="60" y="-629.5724" clip-path="url(#clipPath2)"/>
    </g>
    <g fill="white" text-rendering="geometricPrecision" shape-rendering="geometricPrecision" transform="matrix(1,0,0,1,662,667)" stroke="white">
      <rect x="-174.3451" width="80" height="60" y="-614.7661" clip-path="url(#clipPath2)" stroke="none"/>
      <rect x="-139.4711" y="-550.7661" clip-path="url(#clipPath2)" fill="none" width="10.252" height="17.9688" stroke="red" stroke-miterlimit="1.6"/>
    </g>
    <g text-rendering="geometricPrecision" stroke-miterlimit="1.45" shape-rendering="geometricPrecision" font-family="sans-serif" transform="matrix(1,0,0,1,662,667)" stroke-linecap="butt">
      <text x="-137.4711" xml:space="preserve" y="-537.6274" clip-path="url(#clipPath2)" stroke="none">s</text>
      <rect fill="none" x="-174.3451" width="80" height="60" y="-614.7661" clip-path="url(#clipPath2)"/>
    </g>
    <g fill="white" text-rendering="geometricPrecision" shape-rendering="geometricPrecision" transform="matrix(1,0,0,1,662,667)" stroke="white">
      <rect x="-130.4488" width="60" height="30" y="-126.4003" clip-path="url(#clipPath2)" stroke="none"/>
    </g>
    <g text-rendering="geometricPrecision" stroke-miterlimit="1.45" shape-rendering="geometricPrecision" font-family="sans-serif" transform="matrix(1,0,0,1,662,667)" stroke-linecap="butt">
      <text x="-128.4488" xml:space="preserve" y="-113.2617" clip-path="url(#clipPath2)" stroke="none">sides</text>
      <rect fill="none" x="-130.4488" width="60" height="30" y="-126.4003" clip-path="url(#clipPath2)"/>
    </g>
    <g fill="white" text-rendering="geometricPrecision" shape-rendering="geometricPrecision" transform="matrix(1,0,0,1,662,667)" stroke="white">
      <rect x="-301.8682" width="80" height="60" y="-569.838" clip-path="url(#clipPath2)" stroke="none"/>
      <rect x="-267.671" y="-591.8067" clip-path="url(#clipPath2)" fill="none" width="11.6055" height="17.9688" stroke="red" stroke-miterlimit="1.6"/>
    </g>
    <g text-rendering="geometricPrecision" stroke-miterlimit="1.45" shape-rendering="geometricPrecision" font-family="sans-serif" transform="matrix(1,0,0,1,662,667)" stroke-linecap="butt">
      <text x="-265.671" xml:space="preserve" y="-578.668" clip-path="url(#clipPath2)" stroke="none">n</text>
      <rect fill="none" x="-301.8682" width="80" height="60" y="-569.838" clip-path="url(#clipPath2)"/>
    </g>
    <g fill="white" text-rendering="geometricPrecision" shape-rendering="geometricPrecision" transform="matrix(1,0,0,1,662,667)" stroke="white">
      <rect x="-398.18" width="80" height="60" y="-511.3596" clip-path="url(#clipPath2)" stroke="none"/>
      <rect x="-314.18" y="-490.344" clip-path="url(#clipPath2)" fill="none" width="11.3828" height="17.9688" stroke="red" stroke-miterlimit="1.6"/>
    </g>
    <g text-rendering="geometricPrecision" stroke-miterlimit="1.45" shape-rendering="geometricPrecision" font-family="sans-serif" transform="matrix(1,0,0,1,662,667)" stroke-linecap="butt">
      <text x="-312.18" xml:space="preserve" y="-477.2053" clip-path="url(#clipPath2)" stroke="none">e</text>
      <rect fill="none" x="-398.18" width="80" height="60" y="-511.3596" clip-path="url(#clipPath2)"/>
    </g>
    <g fill="white" text-rendering="geometricPrecision" shape-rendering="geometricPrecision" transform="matrix(1,0,0,1,662,667)" stroke="white">
      <rect x="-481.8603" width="80" height="60" y="-435.9057" clip-path="url(#clipPath2)" stroke="none"/>
      <rect x="-446.9863" y="-371.9057" clip-path="url(#clipPath2)" fill="none" width="10.252" height="17.9688" stroke="red" stroke-miterlimit="1.6"/>
    </g>
    <g text-rendering="geometricPrecision" stroke-miterlimit="1.45" shape-rendering="geometricPrecision" font-family="sans-serif" transform="matrix(1,0,0,1,662,667)" stroke-linecap="butt">
      <text x="-444.9863" xml:space="preserve" y="-358.767" clip-path="url(#clipPath2)" stroke="none">s</text>
      <rect fill="none" x="-481.8603" width="80" height="60" y="-435.9057" clip-path="url(#clipPath2)"/>
    </g>
    <g fill="white" text-rendering="geometricPrecision" shape-rendering="geometricPrecision" transform="matrix(1,0,0,1,662,667)" stroke="white">
      <rect x="-549.9581" width="80" height="60" y="-346.1372" clip-path="url(#clipPath2)" stroke="none"/>
      <rect x="-567.7725" y="-325.1216" clip-path="url(#clipPath2)" fill="none" width="13.8145" height="17.9688" stroke="red" stroke-miterlimit="1.6"/>
    </g>
    <g text-rendering="geometricPrecision" stroke-miterlimit="1.45" shape-rendering="geometricPrecision" font-family="sans-serif" transform="matrix(1,0,0,1,662,667)" stroke-linecap="butt">
      <text x="-565.7725" xml:space="preserve" y="-311.9829" clip-path="url(#clipPath2)" stroke="none">w</text>
      <rect fill="none" x="-549.9581" width="80" height="60" y="-346.1372" clip-path="url(#clipPath2)"/>
    </g>
    <g fill="white" text-rendering="geometricPrecision" shape-rendering="geometricPrecision" transform="matrix(1,0,0,1,662,667)" stroke="white">
      <rect x="-173.6778" width="60" height="30" y="28.0892" clip-path="url(#clipPath2)" stroke="none"/>
    </g>
    <g text-rendering="geometricPrecision" stroke-miterlimit="1.45" shape-rendering="geometricPrecision" font-family="sans-serif" transform="matrix(1,0,0,1,662,667)" stroke-linecap="butt">
      <text x="-171.6778" xml:space="preserve" y="41.2279" clip-path="url(#clipPath2)" stroke="none">eight_pos</text>
      <rect fill="none" x="-173.6778" width="60" height="30" y="28.0892" clip-path="url(#clipPath2)"/>
    </g>
    <g fill="white" text-rendering="geometricPrecision" shape-rendering="geometricPrecision" transform="matrix(1,0,0,1,662,667)" stroke="white">
      <rect x="-600.0718" width="80" height="60" y="-245.2199" clip-path="url(#clipPath2)" stroke="none"/>
      <rect x="-565.8745" y="-267.1887" clip-path="url(#clipPath2)" fill="none" width="11.6055" height="17.9688" stroke="red" stroke-miterlimit="1.6"/>
    </g>
    <g text-rendering="geometricPrecision" stroke-miterlimit="1.45" shape-rendering="geometricPrecision" font-family="sans-serif" transform="matrix(1,0,0,1,662,667)" stroke-linecap="butt">
      <text x="-563.8745" xml:space="preserve" y="-254.05" clip-path="url(#clipPath2)" stroke="none">n</text>
      <rect fill="none" x="-600.0718" width="80" height="60" y="-245.2199" clip-path="url(#clipPath2)"/>
    </g>
    <g fill="white" text-rendering="geometricPrecision" shape-rendering="geometricPrecision" transform="matrix(1,0,0,1,662,667)" stroke="white">
      <rect x="-630.4341" width="80" height="60" y="-136.7127" clip-path="url(#clipPath2)" stroke="none"/>
      <rect x="-546.4341" y="-115.6971" clip-path="url(#clipPath2)" fill="none" width="11.3828" height="17.9688" stroke="red" stroke-miterlimit="1.6"/>
    </g>
    <g text-rendering="geometricPrecision" stroke-miterlimit="1.45" shape-rendering="geometricPrecision" font-family="sans-serif" transform="matrix(1,0,0,1,662,667)" stroke-linecap="butt">
      <text x="-544.4341" xml:space="preserve" y="-102.5584" clip-path="url(#clipPath2)" stroke="none">e</text>
      <rect fill="none" x="-630.4341" width="80" height="60" y="-136.7127" clip-path="url(#clipPath2)"/>
    </g>
    <g fill="white" text-rendering="geometricPrecision" shape-rendering="geometricPrecision" transform="matrix(1,0,0,1,662,667)" stroke="white">
      <rect x="-639.9743" width="80" height="60" y="-24.4422" clip-path="url(#clipPath2)" stroke="none"/>
      <rect x="-605.1002" y="39.5578" clip-path="url(#clipPath2)" fill="none" width="10.252" height="17.9688" stroke="red" stroke-miterlimit="1.6"/>
    </g>
    <g text-rendering="geometricPrecision" stroke-miterlimit="1.45" shape-rendering="geometricPrecision" font-family="sans-serif" transform="matrix(1,0,0,1,662,667)" stroke-linecap="butt">
      <text x="-603.1002" xml:space="preserve" y="52.6965" clip-path="url(#clipPath2)" stroke="none">s</text>
      <rect fill="none" x="-639.9743" width="80" height="60" y="-24.4422" clip-path="url(#clipPath2)"/>
    </g>
    <g fill="white" text-rendering="geometricPrecision" shape-rendering="geometricPrecision" transform="matrix(1,0,0,1,662,667)" stroke="white">
      <rect x="-628.3559" width="80" height="60" y="87.6323" clip-path="url(#clipPath2)" stroke="none"/>
      <rect x="-646.1703" y="108.648" clip-path="url(#clipPath2)" fill="none" width="13.8145" height="17.9688" stroke="red" stroke-miterlimit="1.6"/>
    </g>
    <g text-rendering="geometricPrecision" stroke-miterlimit="1.45" shape-rendering="geometricPrecision" font-family="sans-serif" transform="matrix(1,0,0,1,662,667)" stroke-linecap="butt">
      <text x="-644.1703" xml:space="preserve" y="121.7866" clip-path="url(#clipPath2)" stroke="none">w</text>
      <rect fill="none" x="-628.3559" width="80" height="60" y="87.6323" clip-path="url(#clipPath2)"/>
    </g>
    <g fill="white" text-rendering="geometricPrecision" shape-rendering="geometricPrecision" transform="matrix(1,0,0,1,662,667)" stroke="white">
      <rect x="-595.9886" width="80" height="60" y="195.5585" clip-path="url(#clipPath2)" stroke="none"/>
      <rect x="-621.4086" y="177.5897" clip-path="url(#clipPath2)" fill="none" width="21.4199" height="17.9688" stroke="red" stroke-miterlimit="1.6"/>
    </g>
    <g text-rendering="geometricPrecision" stroke-miterlimit="1.45" shape-rendering="geometricPrecision" font-family="sans-serif" transform="matrix(1,0,0,1,662,667)" stroke-linecap="butt">
      <text x="-619.4086" xml:space="preserve" y="190.7284" clip-path="url(#clipPath2)" stroke="none">nw</text>
      <rect fill="none" x="-595.9886" width="80" height="60" y="195.5585" clip-path="url(#clipPath2)"/>
    </g>
    <g fill="white" text-rendering="geometricPrecision" shape-rendering="geometricPrecision" transform="matrix(1,0,0,1,662,667)" stroke="white">
      <rect x="-544.014" width="80" height="60" y="295.5301" clip-path="url(#clipPath2)" stroke="none"/>
      <rect x="-460.014" y="277.5613" clip-path="url(#clipPath2)" fill="none" width="18.9883" height="17.9688" stroke="red" stroke-miterlimit="1.6"/>
    </g>
    <g text-rendering="geometricPrecision" stroke-miterlimit="1.45" shape-rendering="geometricPrecision" font-family="sans-serif" transform="matrix(1,0,0,1,662,667)" stroke-linecap="butt">
      <text x="-458.014" xml:space="preserve" y="290.7" clip-path="url(#clipPath2)" stroke="none">ne</text>
      <rect fill="none" x="-544.014" width="80" height="60" y="295.5301" clip-path="url(#clipPath2)"/>
    </g>
    <g fill="white" text-rendering="geometricPrecision" shape-rendering="geometricPrecision" transform="matrix(1,0,0,1,662,667)" stroke="white">
      <rect x="-474.265" width="80" height="60" y="384.0216" clip-path="url(#clipPath2)" stroke="none"/>
      <rect x="-498.3314" y="444.0216" clip-path="url(#clipPath2)" fill="none" width="20.0664" height="17.9688" stroke="red" stroke-miterlimit="1.6"/>
    </g>
    <g text-rendering="geometricPrecision" stroke-miterlimit="1.45" shape-rendering="geometricPrecision" font-family="sans-serif" transform="matrix(1,0,0,1,662,667)" stroke-linecap="butt">
      <text x="-496.3314" xml:space="preserve" y="457.1603" clip-path="url(#clipPath2)" stroke="none">sw</text>
      <rect fill="none" x="-474.265" width="80" height="60" y="384.0216" clip-path="url(#clipPath2)"/>
    </g>
    <g fill="white" text-rendering="geometricPrecision" shape-rendering="geometricPrecision" transform="matrix(1,0,0,1,662,667)" stroke="white">
      <rect x="-389.2012" width="80" height="60" y="457.9124" clip-path="url(#clipPath2)" stroke="none"/>
      <rect x="-305.2012" y="517.9124" clip-path="url(#clipPath2)" fill="none" width="17.6348" height="17.9688" stroke="red" stroke-miterlimit="1.6"/>
    </g>
    <g text-rendering="geometricPrecision" stroke-miterlimit="1.45" shape-rendering="geometricPrecision" font-family="sans-serif" transform="matrix(1,0,0,1,662,667)" stroke-linecap="butt">
      <text x="-303.2012" xml:space="preserve" y="531.0511" clip-path="url(#clipPath2)" stroke="none">se</text>
      <rect fill="none" x="-389.2012" width="80" height="60" y="457.9124" clip-path="url(#clipPath2)"/>
    </g>
    <g fill="white" text-rendering="geometricPrecision" shape-rendering="geometricPrecision" transform="matrix(1,0,0,1,662,667)" stroke="white">
      <rect x="-69.0804" width="60" height="30" y="129.8196" clip-path="url(#clipPath2)" stroke="none"/>
    </g>
    <g text-rendering="geometricPrecision" stroke-miterlimit="1.45" shape-rendering="geometricPrecision" font-family="sans-serif" transform="matrix(1,0,0,1,662,667)" stroke-linecap="butt">
      <text x="-67.0804" xml:space="preserve" y="142.9583" clip-path="url(#clipPath2)" stroke="none">custom</text>
      <rect fill="none" x="-69.0804" width="60" height="30" y="129.8196" clip-path="url(#clipPath2)"/>
    </g>
    <g fill="white" text-rendering="geometricPrecision" shape-rendering="geometricPrecision" transform="matrix(1,0,0,1,662,667)" stroke="white">
      <rect x="-196.3214" width="80" height="60" y="549.2785" clip-path="url(#clipPath2)" stroke="none"/>
      <rect x="-173.9747" y="570.2942" clip-path="url(#clipPath2)" fill="none" width="35.3066" height="17.9688" stroke="red" stroke-miterlimit="1.6"/>
    </g>
    <g text-rendering="geometricPrecision" stroke-miterlimit="1.45" shape-rendering="geometricPrecision" font-family="sans-serif" transform="matrix(1,0,0,1,662,667)" stroke-linecap="butt">
      <text x="-171.9747" xml:space="preserve" y="583.4328" clip-path="url(#clipPath2)" stroke="none">None</text>
      <rect fill="none" x="-196.3214" width="80" height="60" y="549.2785" clip-path="url(#clipPath2)"/>
    </g>
    <g fill="white" text-rendering="geometricPrecision" shape-rendering="geometricPrecision" transform="matrix(1,0,0,1,662,667)" stroke="white">
      <rect x="9.0804" width="60" height="30" y="129.8196" clip-path="url(#clipPath2)" stroke="none"/>
    </g>
    <g text-rendering="geometricPrecision" stroke-miterlimit="1.45" shape-rendering="geometricPrecision" font-family="sans-serif" transform="matrix(1,0,0,1,662,667)" stroke-linecap="butt">
      <text x="11.0804" xml:space="preserve" y="142.9583" clip-path="url(#clipPath2)" stroke="none">free</text>
      <rect fill="none" x="9.0804" width="60" height="30" y="129.8196" clip-path="url(#clipPath2)"/>
    </g>
    <g fill="white" text-rendering="geometricPrecision" shape-rendering="geometricPrecision" transform="matrix(1,0,0,1,662,667)" stroke="white">
      <rect x="116.3214" width="80" height="60" y="549.2785" clip-path="url(#clipPath2)" stroke="none"/>
      <rect x="116.3214" y="549.2785" clip-path="url(#clipPath2)" fill="none" width="63.1797" height="17.9688" stroke="red" stroke-miterlimit="1.6"/>
    </g>
    <g text-rendering="geometricPrecision" stroke-miterlimit="1.45" shape-rendering="geometricPrecision" font-family="sans-serif" transform="matrix(1,0,0,1,662,667)" stroke-linecap="butt">
      <text x="118.3214" xml:space="preserve" y="562.4172" clip-path="url(#clipPath2)" stroke="none">anywhere</text>
      <rect fill="none" x="116.3214" width="80" height="60" y="549.2785" clip-path="url(#clipPath2)"/>
      <path fill="none" d="M173.5776 44.3901 L200.7668 61.5847 L237.4785 92.8922 L270.3828 129.9736 L298.8271 172.4162 L328.7664 236.5115 L348.3835 307.9837 L356.5398 385.3626 L353.1824 449.9076" clip-path="url(#clipPath2)"/>
      <path d="M352.7668 457.8968 L358.3835 446.1727 L353.2344 448.9089 L348.397 445.6532 Z" clip-path="url(#clipPath2)" stroke="none"/>
      <path fill="none" d="M177.1159 44.0612 L222.7863 69.3592 L277.9943 112.7792 L327.0764 165.7271 L368.8432 227.4477 L402.1917 297.0553 L425.4604 376.3641" clip-path="url(#clipPath2)"/>
      <path d="M427.7126 384.0405 L429.132 371.1182 L425.1788 375.4045 L419.5365 373.9335 Z" clip-path="url(#clipPath2)" stroke="none"/>
      <path fill="none" d="M177.0581 41.2413 L251.4362 75.4061 L332.1766 128.7354 L405.5742 194.9605 L481.8455 290.2261 L485.2665 295.506" clip-path="url(#clipPath2)"/>
      <path d="M485.2665 295.506 L482.9373 282.7163 L480.3725 287.9529 L474.545 288.1541 Z" clip-path="url(#clipPath2)" stroke="none"/>
      <path fill="none" d="M177.0603 38.5815 L349.397 103.0817 L509.0356 193.9574" clip-path="url(#clipPath2)"/>
      <path d="M515.9881 197.9151 L508.033 187.6333 L508.1666 193.4627 L503.0858 196.3238 Z" clip-path="url(#clipPath2)" stroke="none"/>
      <path fill="none" d="M177.089 35.4061 L540.5111 108.0666" clip-path="url(#clipPath2)"/>
      <path d="M548.3558 109.635 L537.569 102.3794 L539.5305 107.8705 L535.6085 112.1853 Z" clip-path="url(#clipPath2)" stroke="none"/>
      <path fill="none" d="M177.0534 32.4189 L362.1721 39.1851 L556.9371 15.1382 L560.0081 14.4827" clip-path="url(#clipPath2)"/>
      <path d="M560.0081 14.4827 L547.2286 12.0981 L551.2064 16.3616 L549.3163 21.8777 Z" clip-path="url(#clipPath2)" stroke="none"/>
      <path fill="none" d="M177.0746 30.0877 L261.1008 27.0674 L356.1393 8.8824 L449.3579 -24.0305 L543.3943 -75.5268" clip-path="url(#clipPath2)"/>
      <path d="M550.4111 -79.3694 L537.4844 -77.991 L542.5173 -75.0465 L542.2876 -69.2201 Z" clip-path="url(#clipPath2)" stroke="none"/>
      <path fill="none" d="M177.1092 27.7988 L232.3283 21.6337 L299.9871 2.7789 L365.6544 -27.2267 L427.9419 -68.1433 L485.4907 -119.5774 L533.5717 -179.029" clip-path="url(#clipPath2)"/>
      <path d="M538.6024 -185.2493 L527.1687 -179.063 L532.9429 -178.2514 L534.9441 -172.7746 Z" clip-path="url(#clipPath2)" stroke="none"/>
      <path fill="none" d="M177.1204 25.7936 L209.0123 20.3441 L254.9394 5.5588 L299.5719 -16.0203 L342.1487 -44.2633 L394.4309 -91.9197 L440.0209 -150.3548 L477.3023 -218.6492 L498.6984 -278.6206" clip-path="url(#clipPath2)"/>
      <path d="M501.3866 -286.1555 L492.6451 -276.5334 L498.3624 -277.6788 L502.0636 -273.1731 Z" clip-path="url(#clipPath2)" stroke="none"/>
      <path fill="none" d="M89.2921 -143.2162 L89.7754 -143.8497 L183.9872 -245.1618 L295.6301 -330.5689 L394.7968 -383.1413" clip-path="url(#clipPath2)"/>
      <path d="M401.865 -386.8885 L388.9208 -385.6854 L393.9133 -382.6729 L393.6047 -376.8502 Z" clip-path="url(#clipPath2)" stroke="none"/>
      <path fill="none" d="M87.7143 -143.2162 L90.2197 -147.026 L326.8417 -445.1153" clip-path="url(#clipPath2)"/>
      <path d="M331.8155 -451.3811 L320.4386 -445.091 L326.22 -444.332 L328.271 -438.8737 Z" clip-path="url(#clipPath2)" stroke="none"/>
      <path fill="none" d="M86.2334 -143.2162 L88.8332 -147.8679 L247.4014 -502.5511" clip-path="url(#clipPath2)"/>
      <path d="M250.6665 -509.8545 L241.2042 -500.9402 L246.9932 -501.6382 L250.3334 -496.8588 Z" clip-path="url(#clipPath2)" stroke="none"/>
      <path fill="none" d="M84.9064 -143.2162 L86.22 -146.0085 L132.6518 -276.3315 L156.9313 -414.7837 L157.9474 -541.265" clip-path="url(#clipPath2)"/>
      <path d="M158.0117 -549.2647 L152.9155 -537.3052 L157.9394 -540.265 L162.9151 -537.2249 Z" clip-path="url(#clipPath2)" stroke="none"/>
      <path fill="none" d="M-14.7381 -164.3373 L-15.0651 -171.8409 L-0.8289 -464.9993 L15.3891 -561.6859" clip-path="url(#clipPath2)"/>
      <path d="M16.7125 -569.5757 L9.7963 -558.5682 L15.2237 -560.6997 L19.6585 -556.9139 Z" clip-path="url(#clipPath2)" stroke="none"/>
      <path fill="none" d="M-16.2674 -164.3373 L-17.3283 -171.6274 L-86.123 -456.955 L-119.515 -547.237" clip-path="url(#clipPath2)"/>
      <path d="M-122.2902 -554.7402 L-122.8169 -541.7509 L-119.1681 -546.2991 L-113.4379 -545.2198 Z" clip-path="url(#clipPath2)" stroke="none"/>
      <path fill="none" d="M-111.3347 -126.4003 L-111.9978 -127.314 L-181.9763 -246.658 L-231.713 -378.1297 L-256.3174 -501.9842" clip-path="url(#clipPath2)"/>
      <path d="M-257.8762 -509.8309 L-260.4422 -497.0866 L-256.1226 -501.0034 L-250.6339 -499.0351 Z" clip-path="url(#clipPath2)" stroke="none"/>
      <path fill="none" d="M-113.0247 -126.4003 L-114.9125 -128.6521 L-335.1845 -444.8332" clip-path="url(#clipPath2)"/>
      <path d="M-339.7574 -451.3974 L-337.0005 -438.6931 L-334.6129 -444.0127 L-328.7954 -444.4093 Z" clip-path="url(#clipPath2)" stroke="none"/>
      <path fill="none" d="M-114.9875 -126.4003 L-116.1172 -127.5658 L-397.9206 -370.6579" clip-path="url(#clipPath2)"/>
      <path d="M-403.9781 -375.8834 L-398.1577 -364.2592 L-397.1634 -370.0047 L-391.6258 -371.8311 Z" clip-path="url(#clipPath2)" stroke="none"/>
      <path fill="none" d="M-117.6183 -126.3884 L-226.5789 -206.4402 L-352.2212 -269.4684 L-462.2845 -303.4426" clip-path="url(#clipPath2)"/>
      <path d="M-469.9286 -305.8022 L-459.9371 -297.4853 L-461.3289 -303.1477 L-456.9877 -307.0404 Z" clip-path="url(#clipPath2)" stroke="none"/>
      <path fill="none" d="M-173.6687 43.4282 L-210.1271 42.0116 L-260.3923 33.1975 L-326.6103 10.7074 L-390.3378 -23.9431 L-449.8772 -70.4318 L-503.5742 -128.2251 L-537.6547 -178.5773" clip-path="url(#clipPath2)"/>
      <path d="M-542.1389 -185.2024 L-539.5533 -172.4621 L-537.0942 -177.7492 L-531.272 -178.0674 Z" clip-path="url(#clipPath2)" stroke="none"/>
      <path fill="none" d="M-173.6957 45.5221 L-231.7787 47.2129 L-321.1054 35.6374 L-409.5325 8.2382 L-494.9282 -34.8531 L-546.0247 -72.0326" clip-path="url(#clipPath2)"/>
      <path d="M-552.4935 -76.7395 L-545.7321 -65.6362 L-545.2161 -71.4443 L-539.8485 -73.7222 Z" clip-path="url(#clipPath2)" stroke="none"/>
      <path fill="none" d="M-173.6693 47.6543 L-300.8163 58.8654 L-440.9237 47.5319 L-552.2272 19.552" clip-path="url(#clipPath2)"/>
      <path d="M-559.9858 17.6017 L-549.5669 25.3764 L-551.2574 19.7958 L-547.129 15.6781 Z" clip-path="url(#clipPath2)" stroke="none"/>
      <path fill="none" d="M-173.7187 50.1596 L-540.4924 111.6474" clip-path="url(#clipPath2)"/>
      <path d="M-548.3823 112.9701 L-535.7207 115.9173 L-539.5061 111.4821 L-537.3741 106.0549 Z" clip-path="url(#clipPath2)" stroke="none"/>
      <path fill="none" d="M-173.6484 54.1585 L-508.704 202.4339" clip-path="url(#clipPath2)"/>
      <path d="M-516.0197 205.6713 L-503.0228 205.3875 L-507.7895 202.0292 L-507.0696 196.2429 Z" clip-path="url(#clipPath2)" stroke="none"/>
      <path fill="none" d="M-173.6692 57.0973 L-283.5642 116.3913 L-394.3116 202.9565 L-473.7446 289.6393" clip-path="url(#clipPath2)"/>
      <path d="M-479.1494 295.5374 L-467.3559 290.0683 L-473.069 288.9021 L-474.7285 283.3123 Z" clip-path="url(#clipPath2)" stroke="none"/>
      <path fill="none" d="M-170.9027 58.0852 L-219.508 88.1288 L-287.7222 146.951 L-346.4775 218.4905 L-394.0661 301.464 L-422.2294 376.5067" clip-path="url(#clipPath2)"/>
      <path d="M-425.0403 383.9966 L-416.1427 374.5185 L-421.878 375.5704 L-425.5051 371.0049 Z" clip-path="url(#clipPath2)" stroke="none"/>
      <path fill="none" d="M-167.2379 58.1158 L-198.5674 80.5566 L-235.6865 115.5774 L-278.5994 170.7959 L-312.741 234.7976 L-336.8711 306.3789 L-349.9019 384.1841 L-350.709 449.8979" clip-path="url(#clipPath2)"/>
      <path d="M-350.8072 457.8972 L-345.6602 445.9596 L-350.6967 448.8979 L-355.6595 445.8368 Z" clip-path="url(#clipPath2)" stroke="none"/>
      <path fill="none" d="M-43.1282 159.8196 L-146.1415 541.5548" clip-path="url(#clipPath2)"/>
      <path d="M-148.2258 549.2785 L-140.272 538.9956 L-145.8809 540.5893 L-149.9267 536.3903 Z" clip-path="url(#clipPath2)" stroke="none"/>
      <path fill="none" d="M43.1282 159.8196 L146.1415 541.5548" clip-path="url(#clipPath2)"/>
      <path d="M148.2258 549.2785 L149.9267 536.3903 L145.8809 540.5893 L140.272 538.9956 Z" clip-path="url(#clipPath2)" stroke="none"/>
    </g>
  </g>
</svg>
