<?xml version="1.0" encoding="UTF-8"?><svg xmlns="http://www.w3.org/2000/svg" xmlns:xlink="http://www.w3.org/1999/xlink" fill-opacity="1" color-rendering="auto" color-interpolation="auto" text-rendering="auto" stroke="black" stroke-linecap="square" width="640" stroke-miterlimit="10" shape-rendering="auto" stroke-opacity="1" fill="black" stroke-dasharray="none" font-weight="normal" stroke-width="1" height="608" font-family="'Dialog'" font-style="normal" stroke-linejoin="miter" font-size="12px" stroke-dashoffset="0" image-rendering="auto">
  <!--Generated by ySVG 2.6-->
  <defs id="genericDefs"/>
  <g>
    <defs id="defs1">
      <clipPath clipPathUnits="userSpaceOnUse" id="clipPath1">
        <path d="M0 0 L640 0 L640 608 L0 608 L0 0 Z"/>
      </clipPath>
      <clipPath clipPathUnits="userSpaceOnUse" id="clipPath2">
        <path d="M-323 -305 L317 -305 L317 303 L-323 303 L-323 -305 Z"/>
      </clipPath>
    </defs>
    <g fill="white" text-rendering="geometricPrecision" shape-rendering="geometricPrecision" transform="translate(323,305)" stroke="white">
      <rect x="-323" width="640" height="608" y="-305" clip-path="url(#clipPath2)" stroke="none"/>
    </g>
    <g fill="white" text-rendering="geometricPrecision" shape-rendering="geometricPrecision" transform="matrix(1,0,0,1,323,305)" stroke="white">
      <rect x="-25.1055" width="50.2109" height="30" y="-15" clip-path="url(#clipPath2)" stroke="none"/>
    </g>
    <g text-rendering="geometricPrecision" stroke-miterlimit="1.45" shape-rendering="geometricPrecision" font-family="sans-serif" transform="matrix(1,0,0,1,323,305)" stroke-linecap="butt">
      <text x="-18.1055" xml:space="preserve" y="4.1543" clip-path="url(#clipPath2)" stroke="none">shape</text>
      <rect fill="none" x="-25.1055" width="50.2109" height="30" y="-15" clip-path="url(#clipPath2)"/>
    </g>
    <g fill="white" text-rendering="geometricPrecision" shape-rendering="geometricPrecision" transform="matrix(1,0,0,1,323,305)" stroke="white">
      <rect x="8.3086" width="70.9121" height="30" y="256.4952" clip-path="url(#clipPath2)" stroke="none"/>
    </g>
    <g text-rendering="geometricPrecision" stroke-miterlimit="1.45" shape-rendering="geometricPrecision" font-family="sans-serif" transform="matrix(1,0,0,1,323,305)" stroke-linecap="butt">
      <text x="15.3086" xml:space="preserve" y="275.6495" clip-path="url(#clipPath2)" stroke="none">rectangle</text>
      <rect fill="none" x="8.3086" width="70.9121" height="30" y="256.4952" clip-path="url(#clipPath2)"/>
    </g>
    <g fill="white" text-rendering="geometricPrecision" shape-rendering="geometricPrecision" transform="matrix(1,0,0,1,323,305)" stroke="white">
      <rect x="90.0523" width="86.1641" height="30" y="225.6247" clip-path="url(#clipPath2)" stroke="none"/>
    </g>
    <g text-rendering="geometricPrecision" stroke-miterlimit="1.45" shape-rendering="geometricPrecision" font-family="sans-serif" transform="matrix(1,0,0,1,323,305)" stroke-linecap="butt">
      <text x="97.0523" xml:space="preserve" y="244.779" clip-path="url(#clipPath2)" stroke="none">rectangle3d</text>
    </g>
    <g fill="white" text-rendering="geometricPrecision" shape-rendering="geometricPrecision" transform="matrix(1,0,0,1,323,305)" stroke="white">
      <rect x="90.0523" width="1" height="30" y="225.6247" clip-path="url(#clipPath2)" stroke="none"/>
      <rect x="91.0523" width="84.1641" height="1" y="225.6247" clip-path="url(#clipPath2)" stroke="none"/>
      <rect x="91.0523" y="254.6247" clip-path="url(#clipPath2)" fill="rgb(178,178,178)" width="85.1641" height="1" stroke="none"/>
      <rect x="175.2164" y="225.6247" clip-path="url(#clipPath2)" fill="rgb(178,178,178)" width="1" height="29" stroke="none"/>
      <rect x="164.3135" y="153.5124" clip-path="url(#clipPath2)" width="106.0156" rx="4" ry="4" height="30" stroke="none"/>
    </g>
    <g text-rendering="geometricPrecision" stroke-miterlimit="1.45" shape-rendering="geometricPrecision" font-family="sans-serif" transform="matrix(1,0,0,1,323,305)" stroke-linecap="butt">
      <text x="171.3135" xml:space="preserve" y="172.6667" clip-path="url(#clipPath2)" stroke="none">roundrectangle</text>
      <rect x="164.3135" y="153.5124" clip-path="url(#clipPath2)" fill="none" width="106.0156" rx="4" ry="4" height="30"/>
    </g>
    <g fill="white" text-rendering="geometricPrecision" shape-rendering="geometricPrecision" transform="matrix(1,0,0,1,323,305)" stroke="white">
      <path d="M230.4849 77.8039 L263.7642 62.8039 L297.0435 77.8039 L263.7642 92.8039 Z" fill-rule="evenodd" clip-path="url(#clipPath2)" stroke="none"/>
    </g>
    <g text-rendering="geometricPrecision" stroke-miterlimit="1.45" shape-rendering="geometricPrecision" font-family="sans-serif" transform="matrix(1,0,0,1,323,305)" stroke-linecap="butt">
      <text x="237.4849" xml:space="preserve" y="81.9582" clip-path="url(#clipPath2)" stroke="none">diamond</text>
      <path fill="none" d="M230.4849 77.8039 L263.7642 62.8039 L297.0435 77.8039 L263.7642 92.8039 Z" clip-path="url(#clipPath2)" fill-rule="evenodd"/>
    </g>
    <g fill="white" text-rendering="geometricPrecision" shape-rendering="geometricPrecision" transform="matrix(1,0,0,1,323,305)" stroke="white">
      <ellipse rx="26.3184" ry="15" clip-path="url(#clipPath2)" cx="274.9975" cy="1.1786" stroke="none"/>
    </g>
    <g text-rendering="geometricPrecision" stroke-miterlimit="1.45" shape-rendering="geometricPrecision" font-family="sans-serif" transform="matrix(1,0,0,1,323,305)" stroke-linecap="butt">
      <text x="255.6791" xml:space="preserve" y="5.3329" clip-path="url(#clipPath2)" stroke="none">ellipse</text>
      <ellipse rx="26.3184" fill="none" ry="15" clip-path="url(#clipPath2)" cx="274.9975" cy="1.1786"/>
    </g>
    <g fill="white" text-rendering="geometricPrecision" shape-rendering="geometricPrecision" transform="matrix(1,0,0,1,323,305)" stroke="white">
      <path d="M232.3271 -89.7098 L290.5213 -89.7098 L296.9873 -74.7098 L290.5213 -59.7098 L232.3271 -59.7098 L238.7932 -74.7098 Z" fill-rule="evenodd" clip-path="url(#clipPath2)" stroke="none"/>
    </g>
    <g text-rendering="geometricPrecision" stroke-miterlimit="1.45" shape-rendering="geometricPrecision" font-family="sans-serif" transform="matrix(1,0,0,1,323,305)" stroke-linecap="butt">
      <text x="239.3271" xml:space="preserve" y="-70.5555" clip-path="url(#clipPath2)" stroke="none">fatarrow</text>
      <path fill="none" d="M232.3271 -89.7098 L290.5213 -89.7098 L296.9873 -74.7098 L290.5213 -59.7098 L232.3271 -59.7098 L238.7932 -74.7098 Z" clip-path="url(#clipPath2)" fill-rule="evenodd"/>
    </g>
    <g fill="white" text-rendering="geometricPrecision" shape-rendering="geometricPrecision" transform="matrix(1,0,0,1,323,305)" stroke="white">
      <path d="M200.0939 -167.2451 L265.1593 -167.2451 L257.9298 -152.2451 L265.1593 -137.2451 L200.0939 -137.2451 L192.8644 -152.2451 Z" fill-rule="evenodd" clip-path="url(#clipPath2)" stroke="none"/>
    </g>
    <g text-rendering="geometricPrecision" stroke-miterlimit="1.45" shape-rendering="geometricPrecision" font-family="sans-serif" transform="matrix(1,0,0,1,323,305)" stroke-linecap="butt">
      <text x="199.8644" xml:space="preserve" y="-148.0908" clip-path="url(#clipPath2)" stroke="none">fatarrow2</text>
      <path fill="none" d="M200.0939 -167.2451 L265.1593 -167.2451 L257.9298 -152.2451 L265.1593 -137.2451 L200.0939 -137.2451 L192.8644 -152.2451 Z" clip-path="url(#clipPath2)" fill-rule="evenodd"/>
    </g>
    <g fill="white" text-rendering="geometricPrecision" shape-rendering="geometricPrecision" transform="matrix(1,0,0,1,323,305)" stroke="white">
      <path d="M137.8304 -215.5009 L144.4312 -230.5009 L197.2375 -230.5009 L203.8383 -215.5009 L197.2375 -200.5009 L144.4312 -200.5009 Z" fill-rule="evenodd" clip-path="url(#clipPath2)" stroke="none"/>
    </g>
    <g text-rendering="geometricPrecision" stroke-miterlimit="1.45" shape-rendering="geometricPrecision" font-family="sans-serif" transform="matrix(1,0,0,1,323,305)" stroke-linecap="butt">
      <text x="144.8304" xml:space="preserve" y="-211.3466" clip-path="url(#clipPath2)" stroke="none">hexagon</text>
      <path fill="none" d="M137.8304 -215.5009 L144.4312 -230.5009 L197.2375 -230.5009 L203.8383 -215.5009 L197.2375 -200.5009 L144.4312 -200.5009 Z" clip-path="url(#clipPath2)" fill-rule="evenodd"/>
    </g>
    <g fill="white" text-rendering="geometricPrecision" shape-rendering="geometricPrecision" transform="matrix(1,0,0,1,323,305)" stroke="white">
      <path d="M68.8433 -262.3383 L87.1674 -271.1251 L113.0816 -271.1251 L131.4058 -262.3383 L131.4058 -249.9119 L113.0816 -241.1251 L87.1674 -241.1251 L68.8433 -249.9119 Z" fill-rule="evenodd" clip-path="url(#clipPath2)" stroke="none"/>
    </g>
    <g text-rendering="geometricPrecision" stroke-miterlimit="1.45" shape-rendering="geometricPrecision" font-family="sans-serif" transform="matrix(1,0,0,1,323,305)" stroke-linecap="butt">
      <text x="75.8433" xml:space="preserve" y="-251.9708" clip-path="url(#clipPath2)" stroke="none">octagon</text>
      <path fill="none" d="M68.8433 -262.3383 L87.1674 -271.1251 L113.0816 -271.1251 L131.4058 -262.3383 L131.4058 -249.9119 L113.0816 -241.1251 L87.1674 -241.1251 L68.8433 -249.9119 Z" clip-path="url(#clipPath2)" fill-rule="evenodd"/>
    </g>
    <g fill="white" text-rendering="geometricPrecision" shape-rendering="geometricPrecision" transform="matrix(1,0,0,1,323,305)" stroke="white">
      <path d="M-33.1924 -289.938 L54.6279 -289.938 L44.8701 -259.938 L-42.9502 -259.938 Z" fill-rule="evenodd" clip-path="url(#clipPath2)" stroke="none"/>
    </g>
    <g text-rendering="geometricPrecision" stroke-miterlimit="1.45" shape-rendering="geometricPrecision" font-family="sans-serif" transform="matrix(1,0,0,1,323,305)" stroke-linecap="butt">
      <text x="-35.9502" xml:space="preserve" y="-270.7837" clip-path="url(#clipPath2)" stroke="none">parallelogram</text>
      <path fill="none" d="M-33.1924 -289.938 L54.6279 -289.938 L44.8701 -259.938 L-42.9502 -259.938 Z" clip-path="url(#clipPath2)" fill-rule="evenodd"/>
    </g>
    <g fill="white" text-rendering="geometricPrecision" shape-rendering="geometricPrecision" transform="matrix(1,0,0,1,323,305)" stroke="white">
      <path d="M-160.4447 -267.9741 L-65.7531 -267.9741 L-55.2318 -237.9741 L-149.9234 -237.9741 Z" fill-rule="evenodd" clip-path="url(#clipPath2)" stroke="none"/>
    </g>
    <g text-rendering="geometricPrecision" stroke-miterlimit="1.45" shape-rendering="geometricPrecision" font-family="sans-serif" transform="matrix(1,0,0,1,323,305)" stroke-linecap="butt">
      <text x="-153.4447" xml:space="preserve" y="-248.8198" clip-path="url(#clipPath2)" stroke="none">parallelogram2</text>
      <path fill="none" d="M-160.4447 -267.9741 L-65.7531 -267.9741 L-55.2318 -237.9741 L-149.9234 -237.9741 Z" clip-path="url(#clipPath2)" fill-rule="evenodd"/>
    </g>
    <g fill="white" text-rendering="geometricPrecision" shape-rendering="geometricPrecision" transform="matrix(1,0,0,1,323,305)" stroke="white">
      <path d="M-185.3652 -188.1372 L-177.4515 -195.856 L-164.0241 -198.5019 L-172.5605 -205.9184 L-172.1757 -215.2724 L-185.3652 -212.1372 L-198.5548 -215.2724 L-198.17 -205.9184 L-206.7065 -198.5019 L-193.279 -195.856 Z" fill-rule="evenodd" clip-path="url(#clipPath2)" stroke="none"/>
    </g>
    <g text-rendering="geometricPrecision" stroke-miterlimit="1.45" shape-rendering="geometricPrecision" font-family="sans-serif" transform="matrix(1,0,0,1,323,305)" stroke-linecap="butt">
      <text x="-200.8047" xml:space="preserve" y="-198.9829" clip-path="url(#clipPath2)" stroke="none">star5</text>
      <path fill="none" d="M-185.3652 -188.1372 L-177.4515 -195.856 L-164.0241 -198.5019 L-172.5605 -205.9184 L-172.1757 -215.2724 L-185.3652 -212.1372 L-198.5548 -215.2724 L-198.17 -205.9184 L-206.7065 -198.5019 L-193.279 -195.856 Z" clip-path="url(#clipPath2)" fill-rule="evenodd"/>
    </g>
    <g fill="white" text-rendering="geometricPrecision" shape-rendering="geometricPrecision" transform="matrix(1,0,0,1,323,305)" stroke="white">
      <path d="M-227.7174 -139.1745 L-220.9856 -146.3803 L-208.2843 -146.6745 L-214.2537 -154.1745 L-208.2843 -161.6745 L-220.9856 -161.9688 L-227.7174 -169.1745 L-234.4492 -161.9688 L-247.1505 -161.6745 L-241.1811 -154.1745 L-247.1505 -146.6745 L-234.4492 -146.3803 Z" fill-rule="evenodd" clip-path="url(#clipPath2)" stroke="none"/>
    </g>
    <g text-rendering="geometricPrecision" stroke-miterlimit="1.45" shape-rendering="geometricPrecision" font-family="sans-serif" transform="matrix(1,0,0,1,323,305)" stroke-linecap="butt">
      <text x="-243.1568" xml:space="preserve" y="-150.0202" clip-path="url(#clipPath2)" stroke="none">star6</text>
      <path fill="none" d="M-227.7174 -139.1745 L-220.9856 -146.3803 L-208.2843 -146.6745 L-214.2537 -154.1745 L-208.2843 -161.6745 L-220.9856 -161.9688 L-227.7174 -169.1745 L-234.4492 -161.9688 L-247.1505 -161.6745 L-241.1811 -154.1745 L-247.1505 -146.6745 L-234.4492 -146.3803 Z" clip-path="url(#clipPath2)" fill-rule="evenodd"/>
    </g>
    <g fill="white" text-rendering="geometricPrecision" shape-rendering="geometricPrecision" transform="matrix(1,0,0,1,323,305)" stroke="white">
      <path d="M-257.4497 -81.6677 L-250.7178 -88.8735 L-238.0166 -89.1677 L-243.986 -96.6677 L-238.0166 -104.1677 L-250.7178 -104.462 L-257.4497 -111.6677 L-264.1815 -104.462 L-276.8828 -104.1677 L-270.9134 -96.6677 L-276.8828 -89.1677 L-264.1815 -88.8735 Z" fill-rule="evenodd" clip-path="url(#clipPath2)" stroke="none"/>
    </g>
    <g text-rendering="geometricPrecision" stroke-miterlimit="1.45" shape-rendering="geometricPrecision" font-family="sans-serif" transform="matrix(1,0,0,1,323,305)" stroke-linecap="butt">
      <text x="-272.8892" xml:space="preserve" y="-92.5134" clip-path="url(#clipPath2)" stroke="none">star6</text>
      <path fill="none" d="M-257.4497 -81.6677 L-250.7178 -88.8735 L-238.0166 -89.1677 L-243.986 -96.6677 L-238.0166 -104.1677 L-250.7178 -104.462 L-257.4497 -111.6677 L-264.1815 -104.462 L-276.8828 -104.1677 L-270.9134 -96.6677 L-276.8828 -89.1677 L-264.1815 -88.8735 Z" clip-path="url(#clipPath2)" fill-rule="evenodd"/>
    </g>
    <g fill="white" text-rendering="geometricPrecision" shape-rendering="geometricPrecision" transform="matrix(1,0,0,1,323,305)" stroke="white">
      <path d="M-272.9145 -18.8037 L-267.7622 -25.4888 L-257.0474 -23.1971 L-260.4757 -30.3596 L-250.475 -33.8037 L-260.4757 -37.2479 L-257.0474 -44.4103 L-267.7622 -42.1186 L-272.9145 -48.8037 L-278.0668 -42.1186 L-288.7816 -44.4103 L-285.3533 -37.2479 L-295.3539 -33.8037 L-285.3533 -30.3596 L-288.7816 -23.1971 L-278.0668 -25.4888 Z" fill-rule="evenodd" clip-path="url(#clipPath2)" stroke="none"/>
    </g>
    <g text-rendering="geometricPrecision" stroke-miterlimit="1.45" shape-rendering="geometricPrecision" font-family="sans-serif" transform="matrix(1,0,0,1,323,305)" stroke-linecap="butt">
      <text x="-288.3539" xml:space="preserve" y="-29.6494" clip-path="url(#clipPath2)" stroke="none">star8</text>
      <path fill="none" d="M-272.9145 -18.8037 L-267.7622 -25.4888 L-257.0474 -23.1971 L-260.4757 -30.3596 L-250.475 -33.8037 L-260.4757 -37.2479 L-257.0474 -44.4103 L-267.7622 -42.1186 L-272.9145 -48.8037 L-278.0668 -42.1186 L-288.7816 -44.4103 L-285.3533 -37.2479 L-295.3539 -33.8037 L-285.3533 -30.3596 L-288.7816 -23.1971 L-278.0668 -25.4888 Z" clip-path="url(#clipPath2)" fill-rule="evenodd"/>
    </g>
    <g fill="white" text-rendering="geometricPrecision" shape-rendering="geometricPrecision" transform="matrix(1,0,0,1,323,305)" stroke="white">
      <path d="M-307.0367 57.1882 L-289.3907 27.1882 L-254.0987 27.1882 L-236.4527 57.1882 Z" fill-rule="evenodd" clip-path="url(#clipPath2)" stroke="none"/>
    </g>
    <g text-rendering="geometricPrecision" stroke-miterlimit="1.45" shape-rendering="geometricPrecision" font-family="sans-serif" transform="matrix(1,0,0,1,323,305)" stroke-linecap="butt">
      <text x="-300.0367" xml:space="preserve" y="46.3424" clip-path="url(#clipPath2)" stroke="none">trapezoid</text>
      <path fill="none" d="M-307.0367 57.1882 L-289.3907 27.1882 L-254.0987 27.1882 L-236.4527 57.1882 Z" clip-path="url(#clipPath2)" fill-rule="evenodd"/>
    </g>
    <g fill="white" text-rendering="geometricPrecision" shape-rendering="geometricPrecision" transform="matrix(1,0,0,1,323,305)" stroke="white">
      <path d="M-282.3384 113.3145 L-204.1197 113.3145 L-223.6743 143.3145 L-262.7837 143.3145 Z" fill-rule="evenodd" clip-path="url(#clipPath2)" stroke="none"/>
    </g>
    <g text-rendering="geometricPrecision" stroke-miterlimit="1.45" shape-rendering="geometricPrecision" font-family="sans-serif" transform="matrix(1,0,0,1,323,305)" stroke-linecap="butt">
      <text x="-275.3384" xml:space="preserve" y="132.4688" clip-path="url(#clipPath2)" stroke="none">trapezoid2</text>
      <path fill="none" d="M-282.3384 113.3145 L-204.1197 113.3145 L-223.6743 143.3145 L-262.7837 143.3145 Z" clip-path="url(#clipPath2)" fill-rule="evenodd"/>
    </g>
    <g fill="white" text-rendering="geometricPrecision" shape-rendering="geometricPrecision" transform="matrix(1,0,0,1,323,305)" stroke="white">
      <path d="M-191.6305 182.2378 L-161.4977 212.2378 L-221.7634 212.2378 Z" fill-rule="evenodd" clip-path="url(#clipPath2)" stroke="none"/>
    </g>
    <g text-rendering="geometricPrecision" stroke-miterlimit="1.45" shape-rendering="geometricPrecision" font-family="sans-serif" transform="matrix(1,0,0,1,323,305)" stroke-linecap="butt">
      <text x="-214.7634" xml:space="preserve" y="201.392" clip-path="url(#clipPath2)" stroke="none">triangle</text>
      <path fill="none" d="M-191.6305 182.2378 L-161.4977 212.2378 L-221.7634 212.2378 Z" clip-path="url(#clipPath2)" fill-rule="evenodd"/>
    </g>
    <g fill="white" text-rendering="geometricPrecision" shape-rendering="geometricPrecision" transform="matrix(1,0,0,1,323,305)" stroke="white">
      <path d="M-160.3577 231.8276 L-82.1389 231.8276 L-101.6936 261.8276 L-140.803 261.8276 Z" fill-rule="evenodd" clip-path="url(#clipPath2)" stroke="none"/>
    </g>
    <g text-rendering="geometricPrecision" stroke-miterlimit="1.45" shape-rendering="geometricPrecision" font-family="sans-serif" transform="matrix(1,0,0,1,323,305)" stroke-linecap="butt">
      <text x="-153.3577" xml:space="preserve" y="250.9819" clip-path="url(#clipPath2)" stroke="none">trapezoid2</text>
      <path fill="none" d="M-160.3577 231.8276 L-82.1389 231.8276 L-101.6936 261.8276 L-140.803 261.8276 Z" clip-path="url(#clipPath2)" fill-rule="evenodd"/>
    </g>
    <g fill="white" text-rendering="geometricPrecision" shape-rendering="geometricPrecision" transform="matrix(1,0,0,1,323,305)" stroke="white">
      <path d="M-38.9812 257.2232 L-8.8484 287.2232 L-69.114 287.2232 Z" fill-rule="evenodd" clip-path="url(#clipPath2)" stroke="none"/>
    </g>
    <g text-rendering="geometricPrecision" stroke-miterlimit="1.45" shape-rendering="geometricPrecision" font-family="sans-serif" transform="matrix(1,0,0,1,323,305)" stroke-linecap="butt">
      <text x="-62.114" xml:space="preserve" y="276.3775" clip-path="url(#clipPath2)" stroke="none">triangle</text>
      <path fill="none" d="M-38.9812 257.2232 L-8.8484 287.2232 L-69.114 287.2232 Z" clip-path="url(#clipPath2)" fill-rule="evenodd"/>
      <path fill="none" d="M2.418 15 L40.0735 248.5972" clip-path="url(#clipPath2)"/>
      <path d="M41.3467 256.4952 L44.3732 243.8524 L39.9144 247.6099 L34.5007 245.4439 Z" clip-path="url(#clipPath2)" stroke="none"/>
      <path fill="none" d="M8.2993 15 L120.9563 218.6143" clip-path="url(#clipPath2)"/>
      <path d="M124.8293 225.6143 L123.3948 212.6936 L120.4722 217.7393 L114.6448 217.5349 Z" clip-path="url(#clipPath2)" stroke="none"/>
      <path fill="none" d="M19.3447 15 L191.6414 148.6001" clip-path="url(#clipPath2)"/>
      <path d="M197.9635 153.5022 L191.5443 142.1977 L190.8512 147.9873 L185.4165 150.1003 Z" clip-path="url(#clipPath2)" stroke="none"/>
      <path fill="none" d="M25.1055 7.4055 L235.9601 69.6023" clip-path="url(#clipPath2)"/>
      <path d="M243.6332 71.8657 L233.5381 63.6749 L235.0009 69.3194 L230.7089 73.2664 Z" clip-path="url(#clipPath2)" stroke="none"/>
      <path fill="none" d="M25.1055 0.1076 L240.6799 1.0315" clip-path="url(#clipPath2)"/>
      <path d="M248.6799 1.0658 L236.7014 -3.9856 L239.6799 1.0272 L236.6585 6.0143 Z" clip-path="url(#clipPath2)" stroke="none"/>
      <path fill="none" d="M25.1055 -7.087 L227.5112 -64.2239" clip-path="url(#clipPath2)"/>
      <path d="M235.2104 -66.3973 L222.3033 -67.9492 L226.5488 -63.9522 L225.02 -58.3253 Z" clip-path="url(#clipPath2)" stroke="none"/>
      <path fill="none" d="M22.5635 -15 L199.7946 -132.8217" clip-path="url(#clipPath2)"/>
      <path d="M206.4567 -137.2507 L193.6954 -134.7711 L198.9618 -132.2681 L199.2316 -126.4434 Z" clip-path="url(#clipPath2)" stroke="none"/>
      <path fill="none" d="M11.891 -15 L153.971 -194.2285" clip-path="url(#clipPath2)"/>
      <path d="M158.9407 -200.4976 L147.5679 -194.2 L153.3498 -193.4448 L155.4043 -187.9878 Z" clip-path="url(#clipPath2)" stroke="none"/>
      <path fill="none" d="M5.8638 -15 L91.355 -233.6922" clip-path="url(#clipPath2)"/>
      <path d="M94.2677 -241.1431 L85.2419 -231.7872 L90.9909 -232.7608 L94.5555 -228.1463 Z" clip-path="url(#clipPath2)" stroke="none"/>
      <path fill="none" d="M0.3186 -15 L5.3503 -251.9312" clip-path="url(#clipPath2)"/>
      <path d="M5.5201 -259.9294 L0.2665 -248.0383 L5.329 -250.9314 L10.2642 -247.8259 Z" clip-path="url(#clipPath2)" stroke="none"/>
      <path fill="none" d="M-6.3942 -15 L-98.299 -230.5962" clip-path="url(#clipPath2)"/>
      <path d="M-101.4361 -237.9555 L-101.33 -224.9559 L-97.9069 -229.6763 L-92.1309 -228.8773 Z" clip-path="url(#clipPath2)" stroke="none"/>
      <path fill="none" d="M-13.6877 -15 L-172.7428 -189.3045" clip-path="url(#clipPath2)"/>
      <path d="M-178.1352 -195.2139 L-173.7399 -182.9795 L-172.0687 -188.5658 L-166.3531 -189.72 Z" clip-path="url(#clipPath2)" stroke="none"/>
      <path fill="none" d="M-22.1552 -15 L-209.7257 -141.9934" clip-path="url(#clipPath2)"/>
      <path d="M-216.3503 -146.4785 L-209.2167 -135.6105 L-208.8977 -141.4328 L-203.6103 -143.8912 Z" clip-path="url(#clipPath2)" stroke="none"/>
      <path fill="none" d="M-25.1055 -9.4267 L-230.759 -86.6458" clip-path="url(#clipPath2)"/>
      <path d="M-238.2484 -89.458 L-228.7718 -80.5589 L-229.8228 -86.2943 L-225.2566 -89.9207 Z" clip-path="url(#clipPath2)" stroke="none"/>
      <path fill="none" d="M-25.1055 -3.1096 L-248.4888 -30.7783" clip-path="url(#clipPath2)"/>
      <path d="M-256.4282 -31.7617 L-245.1338 -25.3245 L-247.4964 -30.6554 L-243.9046 -35.2487 Z" clip-path="url(#clipPath2)" stroke="none"/>
      <path fill="none" d="M-25.1055 3.8976 L-239.603 37.1982" clip-path="url(#clipPath2)"/>
      <path d="M-247.5083 38.4255 L-234.8833 41.5253 L-238.6148 37.0448 L-236.4174 31.6437 Z" clip-path="url(#clipPath2)" stroke="none"/>
      <path fill="none" d="M-25.1055 13.2443 L-207.7429 109.594" clip-path="url(#clipPath2)"/>
      <path d="M-214.8187 113.3268 L-201.8721 112.1499 L-206.8585 109.1274 L-206.538 103.3052 Z" clip-path="url(#clipPath2)" stroke="none"/>
      <path fill="none" d="M-14.5736 15 L-178.6425 183.8696" clip-path="url(#clipPath2)"/>
      <path d="M-184.2172 189.6074 L-172.269 184.4849 L-177.9456 183.1524 L-179.4413 177.5165 Z" clip-path="url(#clipPath2)" stroke="none"/>
      <path fill="none" d="M-7.3684 15 L-110.3395 224.6202" clip-path="url(#clipPath2)"/>
      <path d="M-113.8667 231.8007 L-104.0881 223.2345 L-109.8986 223.7227 L-113.0636 218.8255 Z" clip-path="url(#clipPath2)" stroke="none"/>
      <path fill="none" d="M-2.1479 15 L-35.9633 251.1477" clip-path="url(#clipPath2)"/>
      <path d="M-37.0973 259.0669 L-30.4468 247.8968 L-35.8215 250.1577 L-40.3458 246.4793 Z" clip-path="url(#clipPath2)" stroke="none"/>
    </g>
  </g>
</svg>
